<svg width="146" height="38" viewBox="0 0 146 38" fill="none" xmlns="http://www.w3.org/2000/svg">
<path d="M14.2122 26.4379C14.2383 26.3405 14.2416 26.2829 14.2224 26.265C14.2032 26.2472 14.1916 26.2328 14.1874 26.2219L14.3849 26.1477C14.3904 26.0956 14.391 26.064 14.3869 26.053C14.3787 26.0311 14.3745 26.0201 14.3745 26.0201C14.3704 26.0092 14.3718 25.9961 14.3786 25.981C14.3965 25.9618 14.4287 25.931 14.4753 25.8884C14.4849 25.8473 14.4999 25.804 14.5205 25.7588C14.5369 25.7025 14.5499 25.6538 14.5595 25.6127C14.6527 25.5276 14.7562 25.4699 14.87 25.4397C14.9839 25.4094 15.0997 25.3847 15.2177 25.3654C15.3728 25.545 15.4689 25.6842 15.506 25.7829C15.5499 25.8665 15.5733 25.9454 15.576 26.0195C15.5747 26.0826 15.5645 26.1553 15.5453 26.2376C15.5371 26.3157 15.5598 26.4261 15.6134 26.5688C15.6464 26.6565 15.6635 26.7189 15.6649 26.7559C15.6197 26.8355 15.5813 26.9 15.5498 26.9494C15.5142 26.9878 15.5094 27.0585 15.5355 27.1613C15.4697 27.186 15.4245 27.2156 15.3998 27.2499C15.3751 27.2842 15.3525 27.324 15.332 27.3692C15.3224 27.4104 15.3073 27.4536 15.2868 27.4989C15.2621 27.5332 15.2169 27.5627 15.1511 27.5874C15.1044 27.63 15.075 27.6848 15.0627 27.7521C15.0572 27.8042 15.0518 27.8563 15.0463 27.9084C14.9915 27.929 14.9483 27.964 14.9168 28.0134C14.8811 28.0518 14.8379 28.0868 14.7872 28.1184C14.7393 28.2241 14.7064 28.2865 14.6885 28.3057C14.6707 28.3249 14.6508 28.3386 14.6289 28.3469C14.5713 28.3935 14.5384 28.456 14.5303 28.5341C14.5289 28.5972 14.4995 28.6521 14.4419 28.6988C14.3267 28.7921 14.1869 28.8697 14.0223 28.9315C13.8687 28.9892 13.7707 29.0949 13.7283 29.2485C13.561 29.3364 13.4054 29.4387 13.2614 29.5553C13.1243 29.6569 12.9838 29.766 12.8399 29.8827C12.7383 29.8457 12.6238 29.8574 12.4963 29.9178C12.3798 29.9741 12.2776 30.0188 12.1898 30.0517C12.113 30.0806 12.0369 30.0779 11.9615 30.0436C11.9217 30.0711 11.8675 30.1102 11.799 30.161C11.7263 30.2008 11.6516 30.2352 11.5748 30.264C11.498 30.2928 11.4226 30.3087 11.3485 30.3114C11.2703 30.3033 11.2079 30.2704 11.1612 30.2128C11.1434 30.232 11.1201 30.2533 11.0913 30.2766C11.0625 30.2999 11.0392 30.3212 11.0214 30.3404C10.7595 30.3762 10.5009 30.4045 10.2458 30.4252C10.0017 30.4418 9.74727 30.431 9.48253 30.3927L9.18634 30.504C9.1287 30.4505 9.05736 30.4273 8.97233 30.4342C8.89827 30.437 8.83584 30.4041 8.78505 30.3355C8.73293 30.3301 8.68287 30.3301 8.63487 30.3356C8.59784 30.337 8.54983 30.3425 8.49086 30.3521C8.35916 30.3015 8.26861 30.2604 8.21922 30.2289C8.17667 30.1822 8.08067 30.1933 7.93121 30.2619C7.91606 30.155 7.89546 30.1001 7.86939 30.0974C7.83921 30.0837 7.80903 30.07 7.77885 30.0563C7.69242 30.0262 7.64645 29.9871 7.64094 29.9391C7.63542 29.8911 7.58467 29.8726 7.48866 29.8836C7.4763 29.8507 7.46051 29.8254 7.4413 29.8075C7.42209 29.7897 7.4063 29.7643 7.39394 29.7314C7.36375 29.7177 7.3226 29.7082 7.27048 29.7027C7.22933 29.6931 7.19366 29.6815 7.16348 29.6678C7.09621 29.5554 7.03993 29.4889 6.99466 29.4683C6.9123 29.349 6.85603 29.2825 6.82584 29.2688C6.80251 29.2401 6.7826 29.2037 6.76612 29.1598C6.73182 29.1352 6.70506 29.1139 6.68585 29.0961C6.66251 29.0673 6.62478 29.0502 6.57266 29.0447C6.50127 28.9213 6.42576 28.787 6.34612 28.6416C6.26649 28.4963 6.16767 28.3832 6.04967 28.3023C6.01392 28.1405 5.93977 27.9931 5.82723 27.8601C5.72153 27.712 5.63984 27.5612 5.58215 27.4076C5.56566 27.3638 5.55673 27.3233 5.55533 27.2863C5.55394 27.2492 5.545 27.2088 5.52852 27.1649C5.49143 27.0662 5.43789 26.9736 5.36789 26.8872C5.29789 26.8009 5.24641 26.7138 5.21344 26.626C5.17635 26.5273 5.16327 26.4258 5.17418 26.3216C5.18509 26.2173 5.12812 26.1323 5.00327 26.0666C5.00183 25.9294 4.98601 25.854 4.95583 25.8403C4.92565 25.8266 4.90437 25.8033 4.89201 25.7704C4.87141 25.7155 4.86589 25.6675 4.87547 25.6264C4.88093 25.5742 4.87335 25.5207 4.85275 25.4659C4.74839 25.2547 4.69755 25.0861 4.70022 24.9599C4.70289 24.8337 4.66647 24.7034 4.59096 24.569C4.59781 24.5539 4.60602 24.5258 4.6156 24.4847C4.62106 24.4325 4.62651 24.3804 4.63197 24.3283C4.64428 24.2611 4.64767 24.2035 4.64216 24.1555C4.6435 24.0924 4.64553 24.0478 4.64826 24.0217C4.64002 23.9998 4.6208 23.982 4.59062 23.9683C4.56729 23.9395 4.54944 23.9086 4.53708 23.8757C4.52884 23.8538 4.53156 23.8277 4.54526 23.7975C4.55896 23.7674 4.56511 23.7338 4.56372 23.6967C4.56233 23.6597 4.54036 23.6179 4.49782 23.5713C4.46624 23.5205 4.4813 23.4773 4.54301 23.4416C4.47434 23.2922 4.4482 23.1392 4.46457 22.9829C4.49191 22.8224 4.45685 22.6791 4.3594 22.5529C4.40874 22.4843 4.44162 22.4219 4.45805 22.3657C4.47448 22.3094 4.46072 22.2395 4.41678 22.1558C4.48806 22.079 4.53122 21.9939 4.54625 21.9007C4.55717 21.7964 4.55505 21.6908 4.5399 21.5838C4.63997 21.4836 4.68037 21.3746 4.6611 21.2566C4.6528 21.1346 4.69869 21.0234 4.79876 20.9233C4.81652 20.8039 4.83225 20.7292 4.84595 20.699C4.87062 20.6647 4.88568 20.6215 4.89114 20.5693C4.91715 20.4719 4.96442 20.3979 5.03297 20.3471C5.10837 20.2812 5.15223 20.2146 5.16453 20.1474C5.27964 19.954 5.33922 19.8127 5.34329 19.7235C5.34735 19.6344 5.39599 19.5472 5.48921 19.4621C5.56461 19.3963 5.61465 19.3462 5.63931 19.3119C5.66398 19.2776 5.68932 19.2117 5.71533 19.1143L5.9457 19.0278C6.01013 18.966 6.07386 18.8858 6.1369 18.787C6.20684 18.7732 6.26718 18.7505 6.31791 18.719C6.36864 18.6874 6.41113 18.6339 6.44538 18.5584C6.59896 18.5007 6.74773 18.4136 6.89168 18.2969C7.0466 18.1761 7.21527 18.1253 7.3977 18.1444C7.45116 18.0867 7.52177 18.0414 7.60954 18.0085C7.70827 17.9714 7.80906 17.9398 7.91191 17.9136C8.01477 17.8875 8.11762 17.8614 8.22048 17.8353C8.31921 17.7982 8.40833 17.7522 8.48786 17.6973C8.57428 17.7274 8.66344 17.7315 8.75532 17.7095C8.85817 17.6834 8.9473 17.6374 9.0227 17.5715C9.08446 17.6359 9.14825 17.6558 9.21407 17.6311C9.27577 17.5954 9.33886 17.5967 9.40335 17.6351C9.4582 17.6145 9.50414 17.6035 9.54117 17.6021C9.5782 17.6007 9.62072 17.5972 9.66872 17.5917C9.70303 17.6164 9.73939 17.6465 9.77781 17.6822C9.82309 17.7027 9.86494 17.7308 9.90336 17.7665C10.0282 17.7321 10.1543 17.7348 10.2819 17.7745C10.4095 17.8142 10.511 17.9012 10.5866 18.0356C10.6277 18.0452 10.6709 18.0602 10.7162 18.0808C10.7683 18.0862 10.8081 18.1088 10.8356 18.1486C10.9124 18.1197 10.9734 18.1156 11.0187 18.1361C11.0639 18.1567 11.1133 18.1882 11.1668 18.2307C11.2738 18.2156 11.3705 18.223 11.4569 18.2532C11.5502 18.2682 11.6476 18.2942 11.7491 18.3312C11.7739 18.397 11.8061 18.4663 11.8459 18.5389C11.8926 18.5965 11.8782 18.6582 11.8028 18.7241L11.8811 18.8825C11.8715 18.9236 11.862 18.9648 11.8524 19.0059C11.8497 19.032 11.8435 19.0656 11.8339 19.1068C11.812 19.2151 11.8011 19.3194 11.8012 19.4195C11.8012 19.5196 11.7354 19.5944 11.6038 19.6439C11.5489 19.6645 11.492 19.6796 11.4331 19.6892C11.3809 19.6838 11.3275 19.6913 11.2726 19.7119C11.1711 19.675 11.0991 19.6332 11.0565 19.5866C11.0249 19.5358 10.9509 19.5386 10.8343 19.5949C10.789 19.4742 10.7382 19.4057 10.682 19.3893C10.6216 19.3619 10.5619 19.3029 10.5029 19.2124C10.4178 19.2193 10.3431 19.2036 10.2786 19.1652C10.2251 19.1228 10.1606 19.0844 10.0851 19.0501C9.97816 19.0653 9.889 19.0612 9.81767 19.0379C9.74633 19.0147 9.65033 19.0257 9.52965 19.071C9.30607 19.0424 9.12091 19.0493 8.97418 19.0919C8.82744 19.1345 8.67316 19.1737 8.51134 19.2094C8.44964 19.2451 8.40851 19.2856 8.38796 19.3309C8.37839 19.3721 8.3249 19.3796 8.2275 19.3536C8.20556 19.3619 8.17883 19.3907 8.14731 19.4401C8.12677 19.4853 8.08013 19.4778 8.0074 19.4175C7.90733 19.5177 7.79557 19.5534 7.67211 19.5247C7.65841 19.5549 7.64677 19.5905 7.63719 19.6317C7.63447 19.6578 7.59813 19.6777 7.52819 19.6914C7.37048 19.7381 7.21896 19.8013 7.07362 19.881C6.92827 19.9606 6.84057 20.0937 6.8105 20.2802C6.73098 20.3351 6.67273 20.4134 6.63576 20.5149C6.59466 20.6054 6.53641 20.6836 6.46101 20.7495C6.44319 20.7687 6.42949 20.7989 6.41992 20.8401C6.41719 20.8661 6.41446 20.8922 6.41173 20.9182L6.24718 20.9801C6.20881 21.0445 6.19308 21.1193 6.19998 21.2043C6.21374 21.2743 6.19046 21.3456 6.13015 21.4183C6.17409 21.502 6.17345 21.5836 6.12823 21.6632C6.09399 21.7386 6.0371 21.8038 5.95758 21.8587C5.95625 21.9218 5.95148 21.9924 5.9433 22.0706C5.94196 22.1337 5.92005 22.192 5.87756 22.2455C5.94205 22.2839 5.9695 22.3237 5.95992 22.3648C5.94622 22.395 5.91607 22.4314 5.86946 22.4739C5.91479 22.5946 5.93815 22.6734 5.93954 22.7105C5.93682 22.7365 5.9156 22.8134 5.8759 22.9409C5.9102 22.9656 5.93011 23.0019 5.93562 23.0499C5.93701 23.087 5.93292 23.1261 5.92334 23.1672C5.96589 23.2138 5.97825 23.2467 5.96043 23.2659C5.93849 23.2742 5.97416 23.2858 6.06743 23.3009C6.01264 23.4216 6.00448 23.5498 6.04296 23.6856C6.07732 23.8104 6.1062 23.9373 6.12958 24.0662C6.14746 24.1471 6.15367 24.2136 6.14821 24.2657C6.15373 24.3137 6.15169 24.3583 6.14212 24.3995C6.14351 24.4365 6.14902 24.4845 6.15866 24.5435C6.17514 24.5873 6.20741 24.6566 6.25547 24.7512C6.2308 24.7855 6.21916 24.8212 6.22055 24.8582C6.2288 24.8801 6.22813 24.9117 6.21855 24.9528C6.27346 25.0324 6.30985 25.1126 6.32773 25.1935C6.3456 25.2744 6.37102 25.3587 6.40399 25.4465C6.4452 25.5562 6.49189 25.6638 6.54407 25.7694C6.59625 25.875 6.64295 25.9827 6.68416 26.0924C6.69652 26.1253 6.71437 26.1561 6.7377 26.1849C6.75691 26.2027 6.7727 26.2281 6.78506 26.261C6.78378 26.4242 6.80099 26.5367 6.83669 26.5984C6.87923 26.645 6.91423 26.6882 6.94168 26.7279C6.99659 26.8075 7.04053 26.8911 7.0735 26.9789C7.10234 27.0557 7.14422 27.1338 7.19913 27.2133C7.2307 27.2641 7.28422 27.3066 7.35967 27.3408C7.33779 27.4492 7.3536 27.5246 7.40712 27.5671C7.47161 27.6054 7.52033 27.6685 7.5533 27.7563C7.59584 27.8029 7.6233 27.8426 7.63566 27.8756C7.64802 27.9085 7.65284 27.938 7.65011 27.964C7.7489 28.0271 7.82093 28.0688 7.86621 28.0894C7.91148 28.1099 7.96569 28.1709 8.02884 28.2724C8.13175 28.3464 8.19145 28.4054 8.20793 28.4492C8.22441 28.4931 8.27517 28.5116 8.36021 28.5047C8.40554 28.6254 8.44741 28.7035 8.48584 28.7392C8.52426 28.7748 8.5716 28.8008 8.62784 28.8173C8.67996 28.8227 8.73415 28.8337 8.79039 28.8501C8.85348 28.8514 8.91591 28.8843 8.97767 28.9487C9.15319 28.8828 9.29377 28.8738 9.39941 28.9218C9.51602 28.9656 9.65318 28.9641 9.81088 28.9174C9.8644 28.9599 9.91722 28.9839 9.96934 28.9893C10.0324 28.9907 10.0887 29.0071 10.1381 29.0386C10.2341 29.0276 10.3205 29.0077 10.3973 28.9788C10.4809 28.9349 10.5625 28.9355 10.6421 28.9807C10.675 28.9684 10.6928 28.9492 10.6956 28.9231C10.6983 28.897 10.7422 28.8805 10.8272 28.8736C10.856 28.9504 10.9287 28.9607 11.0453 28.9044C11.1577 28.8371 11.2228 28.7939 11.2407 28.7747C11.4121 28.7979 11.5699 28.8012 11.7139 28.7847C11.8538 28.7572 11.9895 28.7187 12.1212 28.6692C12.2089 28.6363 12.2926 28.5923 12.3721 28.5374C12.4626 28.4784 12.5572 28.4303 12.6559 28.3932C12.7628 28.278 12.8492 28.208 12.915 28.1832C12.9767 28.1476 13.0309 28.1084 13.0775 28.0659C13.1639 27.9959 13.2406 27.917 13.3078 27.8292C13.3749 27.7413 13.4538 27.6679 13.5443 27.6089C13.5607 27.5526 13.5922 27.5033 13.6388 27.4607C13.6813 27.4072 13.7183 27.3557 13.7498 27.3063C13.7923 27.2528 13.8238 27.2034 13.8444 27.1582C13.8759 27.1088 13.8814 27.0566 13.8608 27.0018C13.9115 26.9702 13.9471 26.9318 13.9677 26.8865C13.9992 26.8371 14.0232 26.7843 14.0396 26.7281C14.056 26.6718 14.0745 26.6211 14.0951 26.5758C14.1225 26.5154 14.1615 26.4694 14.2122 26.4379Z" fill="white"/>
<path d="M31.8971 22.9075C31.8628 23.0503 31.8131 23.2033 31.7479 23.3665C31.6941 23.5267 31.588 23.6282 31.4296 23.671C31.4458 23.7759 31.4312 23.8344 31.386 23.8466C31.3407 23.8588 31.3299 23.886 31.3534 23.9282C31.2228 23.9392 31.084 23.9646 30.9369 24.0043C30.8012 24.0409 30.6859 24.1085 30.5911 24.2069C30.3599 24.1601 30.1271 24.1744 29.8926 24.2498C29.6693 24.3222 29.4415 24.3777 29.2092 24.4161C29.1413 24.4345 29.0719 24.4471 29.0009 24.4541C28.9383 24.4468 28.8715 24.4466 28.8005 24.4536C28.7522 24.4545 28.7172 24.4822 28.6955 24.5366C28.6707 24.5797 28.6357 24.6074 28.5904 24.6196C28.5391 24.6092 28.4923 24.6158 28.4501 24.6393C28.4192 24.6598 28.3811 24.6761 28.3359 24.6883C28.2906 24.7005 28.2495 24.7056 28.2125 24.7034C28.1755 24.7013 28.1344 24.7063 28.0891 24.7185C28.0212 24.7369 27.9579 24.7722 27.8992 24.8244C27.8518 24.8736 27.7885 24.9089 27.7093 24.9303C27.5849 24.9639 27.463 24.9847 27.3438 24.9926C27.2245 25.0005 27.1027 25.0213 26.9782 25.0549C26.9217 25.0702 26.864 25.1039 26.8053 25.1562C26.7548 25.1941 26.7013 25.2207 26.6448 25.236C26.6108 25.2451 26.5753 25.2486 26.5384 25.2465C26.5127 25.2413 26.4829 25.2432 26.4489 25.2524C26.3697 25.2738 26.2992 25.305 26.2375 25.3459C26.1757 25.3869 26.1052 25.418 26.026 25.4394C25.9694 25.4547 25.9072 25.4715 25.8393 25.4898C25.7797 25.4938 25.716 25.5049 25.6481 25.5233C25.5123 25.5599 25.4371 25.6409 25.4224 25.7663C25.3823 25.7528 25.3423 25.7393 25.3022 25.7259C25.2765 25.7207 25.2411 25.7242 25.1958 25.7364C25.0827 25.7669 24.9957 25.8268 24.9348 25.9161C24.877 26.0167 24.8028 26.0792 24.7123 26.1036C24.6218 26.1281 24.538 26.1325 24.461 26.1169C24.387 26.1126 24.3089 26.1155 24.2266 26.1255C24.2135 26.032 24.1279 25.9398 23.9699 25.8489C23.8088 25.7467 23.699 25.655 23.6406 25.5736C23.6893 25.4391 23.7051 25.2953 23.688 25.1421C23.6679 24.9776 23.6014 24.8438 23.4886 24.7407C23.5556 24.6741 23.5862 24.5627 23.5804 24.4064C23.5716 24.2389 23.5565 24.1155 23.5351 24.0363C23.5229 23.991 23.4957 23.9802 23.4535 24.0037C23.4082 24.0159 23.3795 23.9994 23.3673 23.9541C23.3581 23.9202 23.3557 23.8662 23.36 23.7923C23.3725 23.7039 23.3871 23.6453 23.4036 23.6166C23.34 23.5609 23.3093 23.5146 23.3114 23.4776C23.3136 23.4406 23.3353 23.3862 23.3766 23.3144C23.3191 23.2813 23.2828 23.2365 23.2675 23.18C23.2492 23.1121 23.2324 23.0499 23.2171 22.9933C23.2018 22.9367 23.1768 22.8889 23.1419 22.8497C23.104 22.7993 23.0409 22.7677 22.9525 22.7552C22.9464 22.7326 22.9501 22.7012 22.9636 22.6612C22.9883 22.6181 22.9931 22.5682 22.9778 22.5117C22.9625 22.4551 22.9113 22.3779 22.8242 22.28C22.7371 22.1821 22.7173 22.1086 22.7647 22.0594C22.7524 22.0141 22.732 21.9833 22.7032 21.9667C22.6828 21.9359 22.7003 21.8886 22.756 21.825C22.668 21.6789 22.617 21.5348 22.6029 21.393C22.6002 21.248 22.5322 21.1086 22.399 20.9746C22.439 20.9881 22.4632 20.9877 22.4714 20.9733C22.4766 20.9476 22.4762 20.9235 22.4701 20.9008C22.4609 20.8669 22.4548 20.8443 22.4517 20.8329C22.4456 20.8103 22.4539 20.7959 22.4765 20.7898C22.4677 20.6223 22.4332 20.4495 22.373 20.2716C22.3241 20.0905 22.2696 19.911 22.2094 19.7331C22.1605 19.5521 22.1132 19.3767 22.0674 19.207C22.0329 19.0342 22.0127 18.8697 22.007 18.7135C22.0394 18.4741 22.0389 18.2922 22.0053 18.1677C21.9799 18.0289 21.9505 17.8973 21.9169 17.7728C21.9016 17.7163 21.8935 17.6638 21.8926 17.6155C21.8886 17.5559 21.9119 17.5071 21.9623 17.4692C21.8817 17.2604 21.8025 17.0572 21.7249 16.8596C21.6556 16.6477 21.6387 16.4277 21.6742 16.1997C21.6045 16.1214 21.5594 16.0668 21.5389 16.0359C21.5267 15.9906 21.5232 15.9552 21.5284 15.9295C21.5336 15.9038 21.5388 15.8781 21.544 15.8525C21.5575 15.8124 21.5551 15.7584 21.5367 15.6906C21.5092 15.5887 21.472 15.4956 21.4249 15.4112C21.3861 15.3125 21.3545 15.2178 21.33 15.1273C21.3148 15.0707 21.296 14.9787 21.2737 14.8512C21.2484 14.7124 21.2215 14.5679 21.1931 14.4178C21.176 14.2646 21.1563 14.1242 21.134 13.9967C21.1231 13.8662 21.1243 13.7809 21.1378 13.7408C21.1451 13.6781 21.1797 13.6263 21.2415 13.5854C21.3032 13.5444 21.325 13.49 21.3066 13.4221C21.3293 13.416 21.3745 13.4038 21.4424 13.3855C21.5185 13.3528 21.5664 13.3277 21.586 13.3103C21.656 13.255 21.7152 13.2268 21.7635 13.2259C21.8087 13.2137 21.8181 13.1809 21.7915 13.1273C21.8746 13.1656 21.9347 13.1858 21.9717 13.1879C22.0056 13.1788 22.0189 13.2055 22.0116 13.2682C22.1082 13.2664 22.1924 13.2861 22.2643 13.3274C22.3331 13.3574 22.4188 13.3828 22.5215 13.4036C22.5295 13.5229 22.5637 13.6047 22.6242 13.649C22.693 13.679 22.7396 13.7392 22.764 13.8298C22.7763 13.875 22.7685 13.9135 22.7406 13.9453C22.7097 13.9658 22.6932 13.9945 22.6911 14.0315C22.773 14.1551 22.8255 14.3048 22.8487 14.4806C22.8802 14.642 22.9466 14.7758 23.0481 14.8819C22.99 15.1161 22.9899 15.3407 23.0479 15.5556C23.0632 15.6122 23.0826 15.6616 23.1062 15.7038C23.1379 15.7316 23.1615 15.7738 23.1768 15.8304C23.2073 15.9435 23.2193 16.0556 23.2129 16.1666C23.2178 16.2745 23.2339 16.3794 23.2614 16.4812C23.2798 16.5491 23.3037 16.6155 23.3334 16.6803C23.363 16.7451 23.387 16.8115 23.4053 16.8793C23.442 17.0151 23.4632 17.1611 23.469 17.3174C23.4747 17.4736 23.5186 17.6135 23.6005 17.737C23.5531 17.7862 23.5314 17.8407 23.5353 17.9003C23.5506 17.9569 23.5474 18.0124 23.5256 18.0668C23.6189 18.1873 23.6597 18.3158 23.648 18.4525C23.6363 18.5892 23.6488 18.7254 23.6855 18.8612C23.6947 18.8951 23.7095 18.9275 23.73 18.9584C23.7618 18.9862 23.7838 19.0228 23.796 19.068C23.7978 19.1646 23.8043 19.2114 23.8157 19.2084C23.827 19.2053 23.8357 19.2151 23.8418 19.2377C23.8601 19.3056 23.8589 19.3909 23.8381 19.4936C23.8142 19.5851 23.8145 19.676 23.8389 19.7665C23.845 19.7892 23.864 19.8144 23.8958 19.8422C23.9389 19.867 23.9635 19.8907 23.9696 19.9133C23.9971 20.0151 24.0132 20.12 24.0181 20.228C24.0312 20.3215 24.0937 20.3957 24.2056 20.4504C24.1961 20.5501 24.2005 20.6339 24.2189 20.7018C24.2485 20.7666 24.2755 20.8443 24.3 20.9348C24.3183 21.0027 24.3197 21.0751 24.3041 21.1522C24.2998 21.2262 24.3068 21.2971 24.3251 21.365C24.3556 21.4781 24.4016 21.581 24.4631 21.6737C24.5358 21.7633 24.5875 21.8646 24.618 21.9778C24.6363 22.0457 24.6644 22.1048 24.7023 22.1553C24.7372 22.1944 24.7736 22.2392 24.8115 22.2897C24.8607 22.3371 24.8944 22.3947 24.9128 22.4626C24.9394 22.5161 24.9479 22.5927 24.9384 22.6924C24.9619 22.7346 24.9896 22.7696 25.0214 22.7975C25.0532 22.8253 25.0752 22.8618 25.0874 22.9071C25.1027 22.9637 25.1066 23.0233 25.0993 23.086C25.1002 23.1343 25.097 23.1898 25.0896 23.2524C25.1419 23.3112 25.1772 23.3745 25.1955 23.4423C25.2138 23.5102 25.2265 23.5796 25.2335 23.6506C25.2518 23.7184 25.2702 23.7863 25.2885 23.8542C25.3181 23.919 25.3632 23.9736 25.4237 24.018C25.5081 23.9709 25.5987 23.9465 25.6953 23.9447C25.7888 23.9315 25.8809 23.9128 25.9714 23.8883C26.0506 23.8669 26.1154 23.8373 26.1659 23.7994C26.2133 23.7502 26.2679 23.7051 26.3296 23.6641C26.4262 23.6623 26.5213 23.6549 26.6149 23.6417C26.7198 23.6256 26.8205 23.6166 26.9171 23.6148C26.9419 23.5717 26.9785 23.5497 27.0268 23.5488C27.0751 23.5478 27.1234 23.5469 27.1717 23.546C27.2283 23.5308 27.2792 23.517 27.3244 23.5048C27.3666 23.4813 27.3971 23.4366 27.4157 23.3709C27.5206 23.3547 27.6172 23.3529 27.7056 23.3655C27.8022 23.3637 27.904 23.3362 28.0111 23.283C28.1068 23.2329 28.1973 23.2084 28.2826 23.2097C28.3648 23.1996 28.4512 23.1824 28.5417 23.1579C28.6322 23.1335 28.7197 23.0977 28.8041 23.0507C28.8968 22.9893 28.9883 22.9463 29.0788 22.9219C29.1354 22.9066 29.1781 22.9072 29.2068 22.9237C29.2469 22.9372 29.2926 22.9491 29.3439 22.9596C29.4653 22.9146 29.6135 22.8564 29.7884 22.7849C29.9715 22.6991 30.1064 22.6141 30.193 22.53C30.2434 22.4921 30.2682 22.449 30.2673 22.4007C30.2746 22.3381 30.3092 22.2862 30.371 22.2453C30.4654 22.2805 30.5286 22.312 30.5604 22.3398C30.6035 22.3646 30.6729 22.3519 30.7686 22.3018C30.8004 22.3296 30.8322 22.3575 30.864 22.3853C30.8927 22.4018 30.923 22.424 30.9548 22.4518C31.0113 22.4365 31.0709 22.4326 31.1336 22.4399C31.2046 22.4329 31.2698 22.4274 31.3295 22.4235C31.4527 22.4752 31.5578 22.55 31.6449 22.6478C31.729 22.7344 31.8131 22.8209 31.8971 22.9075Z" fill="white"/>
<path d="M44.834 19.926C44.8266 19.9512 44.812 20.0015 44.7899 20.0769C44.7658 20.1409 44.737 20.2116 44.7034 20.2892C44.6699 20.3667 44.641 20.4375 44.6169 20.5014C44.5907 20.5538 44.5729 20.5868 44.5634 20.6005C44.5142 20.657 44.4455 20.7052 44.3574 20.7451C44.2788 20.7713 44.2091 20.8137 44.1483 20.8724C44.0634 20.864 43.9942 20.8765 43.9408 20.9101C43.8988 20.9415 43.849 20.9625 43.7914 20.9729C43.7568 20.9792 43.7243 20.997 43.6939 21.0264C43.6729 21.0421 43.6462 21.0589 43.6137 21.0767C43.5602 21.1102 43.4921 21.1285 43.4093 21.1317C43.3265 21.1348 43.2751 21.1798 43.2552 21.2668C43.1797 21.2448 43.1247 21.2369 43.0901 21.2432C43.0671 21.2474 43.0241 21.2731 42.9612 21.3202C42.8008 21.2898 42.6971 21.3087 42.6499 21.3768C42.609 21.3485 42.5561 21.3521 42.4911 21.3878C42.424 21.4119 42.3831 21.4491 42.3684 21.4994C42.316 21.4731 42.2647 21.4527 42.2144 21.438C42.164 21.4233 42.1174 21.3961 42.0744 21.3562C41.9256 21.4547 41.7359 21.5249 41.5053 21.5668C41.2841 21.5951 41.0834 21.6375 40.9031 21.694C40.7437 21.7349 40.5865 21.7873 40.4314 21.8512C40.2878 21.913 40.1379 21.9402 39.9817 21.9329C39.9261 21.9549 39.8585 22.0088 39.7788 22.0948C39.6573 22.0811 39.5451 22.0538 39.4424 22.0129C39.3397 21.972 39.2501 21.9049 39.1736 21.8116C39.1988 21.688 39.1752 21.591 39.1029 21.5208C39.0306 21.4505 38.9923 21.3384 38.9882 21.1843C39.0333 21.1046 39.0941 21.0459 39.1706 21.0082C39.245 20.959 39.2911 20.8851 39.309 20.7866C39.3855 20.7488 39.4814 20.7195 39.5967 20.6986C39.712 20.6776 39.7933 20.6331 39.8404 20.565C39.9599 20.5671 40.0438 20.5697 40.092 20.5729C40.1517 20.574 40.1979 20.5656 40.2304 20.5478C40.2629 20.5299 40.2875 20.5017 40.3043 20.4629C40.321 20.4241 40.3567 20.3581 40.4112 20.2648C40.3777 20.2113 40.3415 20.1762 40.3028 20.1594C40.2619 20.1311 40.221 20.1028 40.1801 20.0745C40.1927 20.0127 40.1807 19.9791 40.144 19.9739C40.1052 19.9571 40.0827 19.9314 40.0764 19.8968C40.0638 19.8276 40.0817 19.7946 40.1299 19.7978C40.176 19.7894 40.1875 19.7218 40.1645 19.595C40.1582 19.5604 40.1462 19.5268 40.1284 19.4943C40.12 19.4482 40.0964 19.4168 40.0576 19.4C40.0702 19.3382 40.0828 19.2763 40.0954 19.2145C40.1059 19.1411 40.1232 19.0725 40.1473 19.0085C40.0949 18.9823 40.0567 18.9357 40.0326 18.8686C40.0085 18.8015 39.9891 18.7276 39.9744 18.6469C39.9598 18.5662 39.9404 18.4923 39.9163 18.4252C39.9037 18.356 39.8692 18.2968 39.8126 18.2475C39.8021 18.1899 39.8116 18.1107 39.8409 18.0101C39.7278 17.7805 39.644 17.5159 39.5895 17.2161C39.5445 16.9027 39.456 16.6448 39.3239 16.4425C39.412 16.2717 39.4194 16.1155 39.346 15.974C39.2727 15.8324 39.2214 15.681 39.1921 15.5196C39.1711 15.4043 39.1753 15.2963 39.2047 15.1957C39.2435 15.0814 39.2016 14.9819 39.079 14.8969C39.101 14.8215 39.1083 14.7308 39.101 14.6249C39.0916 14.5075 39.0775 14.397 39.0586 14.2932C39.0377 14.1779 39.0005 14.0715 38.9471 13.974C38.9052 13.8744 38.8559 13.8 38.7993 13.7507C38.8318 13.7329 38.8449 13.7067 38.8386 13.6721C38.8439 13.6354 38.856 13.6035 38.8748 13.5762C38.8476 13.5573 38.825 13.5317 38.8072 13.4992C38.8009 13.4646 38.7805 13.4504 38.7459 13.4567C38.7784 13.3079 38.7617 13.2156 38.6957 13.18C38.6391 13.1307 38.6517 13.0689 38.7334 12.9945C38.7209 12.9253 38.6941 12.8765 38.6533 12.8482C38.6218 12.8063 38.6046 12.7439 38.6014 12.6611C38.5742 12.6423 38.5726 12.6008 38.5967 12.5369C38.6303 12.4594 38.6418 12.3918 38.6314 12.3341C38.6083 12.2073 38.569 12.0893 38.5135 11.9803C38.4695 11.8692 38.436 11.7502 38.4129 11.6234C38.4046 11.5773 38.403 11.5359 38.4083 11.4992C38.4114 11.451 38.4088 11.4038 38.4004 11.3577C38.39 11.3001 38.3554 11.2408 38.2967 11.18C38.2474 11.1056 38.1956 11.0495 38.1411 11.0118C37.9681 11.0432 37.8266 11.1165 37.7165 11.2318C37.5698 11.2108 37.4566 11.2433 37.3769 11.3292C37.3067 11.4015 37.2197 11.4471 37.1159 11.4659C37.0582 11.4764 37.0032 11.4685 36.9508 11.4423C36.8963 11.4046 36.8381 11.3794 36.7763 11.3668C36.7774 11.3071 36.7643 11.2678 36.737 11.2489C36.7192 11.2164 36.7051 11.1713 36.6946 11.1137C36.5835 11.0267 36.5143 10.9737 36.4871 10.9549C36.4598 10.936 36.4247 10.9066 36.3818 10.8668C36.3996 10.7683 36.4127 10.6766 36.4211 10.5917C36.439 10.4931 36.4683 10.3925 36.5092 10.2898C36.6476 10.2647 36.7566 10.2091 36.8363 10.1232C36.9275 10.0352 37.0559 9.98804 37.2215 9.98178C37.2634 9.95034 37.2996 9.91995 37.33 9.89061C37.3604 9.86127 37.3898 9.82616 37.4181 9.78528C37.503 9.79369 37.5905 9.78374 37.6806 9.75546C37.7708 9.72718 37.8374 9.66745 37.8803 9.57626C37.9401 9.57732 37.9998 9.57838 38.0596 9.57944C38.1288 9.56688 38.1922 9.55536 38.2498 9.54489C38.4343 9.51138 38.5339 9.46947 38.5486 9.41916C38.5727 9.35523 38.634 9.26667 38.7326 9.15349C38.85 9.14408 38.959 9.15406 39.0596 9.18342C39.1696 9.19917 39.276 9.22749 39.3787 9.26839C39.5035 9.23382 39.657 9.19402 39.8394 9.14898C40.0313 9.09032 40.1618 8.9892 40.231 8.84561C40.3232 8.82886 40.4196 8.83517 40.5203 8.86453C40.6188 8.88237 40.7142 8.88291 40.8064 8.86616C40.8641 8.85569 40.9076 8.86565 40.9369 8.89606C40.9641 8.91493 40.9924 8.93957 41.0218 8.96997C41.1193 8.91653 41.2204 8.91602 41.3252 8.96845C41.4416 9.01879 41.5631 9.03243 41.69 9.0094C41.7612 9.13938 41.7932 9.28246 41.7858 9.43864C41.79 9.59272 41.8219 9.7358 41.8816 9.86787C41.7936 9.90769 41.7076 9.95903 41.6238 10.0219C41.5399 10.0848 41.4707 10.1629 41.4162 10.2561C41.347 10.2687 41.2846 10.286 41.2291 10.308C41.1735 10.33 41.1279 10.374 41.0923 10.44C40.8858 10.418 40.6788 10.4258 40.4712 10.4635C40.2731 10.4876 40.0823 10.552 39.8989 10.6568C39.9083 10.7742 39.912 10.8926 39.9098 11.0121C39.9171 11.118 39.9313 11.2285 39.9522 11.3438C39.9522 11.4749 39.9611 11.5566 39.9789 11.5891C39.9946 11.6101 40.0056 11.6379 40.0119 11.6725C40.0182 11.707 40.0187 11.7427 40.0135 11.7794C40.0061 11.8045 40.0056 11.8344 40.0119 11.869C40.0223 11.9266 40.0433 11.9764 40.0747 12.0184C40.1041 12.0488 40.124 12.0928 40.1344 12.1504C40.1491 12.2311 40.1465 12.315 40.1265 12.402C40.116 12.4754 40.1181 12.5524 40.1328 12.6331C40.1454 12.7023 40.1647 12.7762 40.1909 12.8548C40.2265 12.9198 40.2506 12.9869 40.2632 13.0561C40.2862 13.1829 40.2957 13.3003 40.2914 13.4083C40.2967 13.5026 40.3396 13.6079 40.4203 13.7243C40.3689 13.7694 40.3553 13.8254 40.3794 13.8925C40.415 13.9575 40.4071 14.0125 40.3558 14.0576C40.3893 14.1111 40.4181 14.1713 40.4422 14.2384C40.4642 14.294 40.5072 14.3338 40.5711 14.3579C40.5575 14.4795 40.5622 14.6037 40.5852 14.7306C40.6177 14.8438 40.6444 14.958 40.6653 15.0733C40.6737 15.1194 40.6926 15.1577 40.7219 15.1881C40.7491 15.207 40.7764 15.2258 40.8036 15.2447C40.789 15.295 40.78 15.3443 40.7769 15.3925C40.7716 15.4292 40.7617 15.4727 40.747 15.523C40.7826 15.588 40.7962 15.6629 40.7878 15.7478C40.7889 15.8191 40.8234 15.8783 40.8916 15.9255C40.8517 15.9685 40.8313 16.0198 40.8302 16.0796C40.8292 16.1393 40.8213 16.1944 40.8066 16.2447C40.8517 16.296 40.8873 16.361 40.9135 16.4396C40.9397 16.5183 40.9292 16.5916 40.882 16.6597C40.9606 16.7646 40.9983 16.8411 40.9951 16.8893C41.0014 16.9239 41.0077 16.9585 41.014 16.9931C41.0245 17.0507 41.048 17.0822 41.0847 17.0874C41.1193 17.0811 41.1534 17.1047 41.1869 17.1582C41.1513 17.2242 41.1512 17.2897 41.1869 17.3547C41.2319 17.4061 41.2288 17.4543 41.1774 17.4994C41.2319 17.5371 41.2702 17.5838 41.2922 17.6393C41.3142 17.6949 41.3314 17.7572 41.344 17.8264C41.3545 17.8841 41.3602 17.9485 41.3613 18.0198C41.3738 18.089 41.3958 18.1446 41.4273 18.1865C41.3717 18.3395 41.3643 18.4302 41.4052 18.4585C41.444 18.4753 41.4838 18.4978 41.5247 18.5261C41.5278 18.7399 41.6226 18.9014 41.8092 19.0104C41.7599 19.067 41.7447 19.1472 41.7635 19.251C41.7918 19.3411 41.7939 19.4181 41.7698 19.4821C41.8211 19.568 41.8657 19.6493 41.9034 19.7258C41.9526 19.8002 41.9914 19.8825 42.0197 19.9727C42.0721 19.9989 42.1203 20.002 42.1643 19.9821C42.2062 19.9507 42.256 19.9297 42.3137 19.9193C42.3483 19.913 42.3782 19.9135 42.4033 19.9208C42.44 19.9261 42.4756 19.9256 42.5102 19.9193C42.6171 19.8522 42.6832 19.8224 42.7083 19.8297C42.745 19.835 42.7749 19.8355 42.798 19.8313C42.9793 19.715 43.1276 19.6464 43.2429 19.6254C43.3561 19.5929 43.4128 19.5112 43.4128 19.3802C43.5092 19.3865 43.614 19.3734 43.7272 19.3409C43.8404 19.3085 43.9437 19.3195 44.037 19.374C44.0967 19.3751 44.1418 19.3609 44.1722 19.3316C44.212 19.2886 44.2608 19.2619 44.3184 19.2514C44.3404 19.307 44.3729 19.3547 44.4159 19.3945C44.4588 19.4344 44.5018 19.4742 44.5448 19.514C44.5877 19.5539 44.6202 19.6016 44.6422 19.6571C44.6621 19.7012 44.6679 19.7656 44.6595 19.8505C44.6888 19.8809 44.7124 19.9124 44.7302 19.9449C44.7459 19.9658 44.7805 19.9595 44.834 19.926Z" fill="white"/>
<path d="M59.3848 16.8778C59.4355 16.7906 59.454 16.736 59.4402 16.7137C59.4263 16.6915 59.4189 16.6745 59.4178 16.6628L59.6278 16.6433C59.6468 16.5945 59.6558 16.5642 59.6547 16.5525C59.6525 16.5292 59.6514 16.5175 59.6514 16.5175C59.6503 16.5059 59.6551 16.4937 59.6657 16.4809C59.6879 16.4671 59.7271 16.4458 59.7833 16.417C59.8034 16.3798 59.8293 16.3421 59.861 16.3038C59.8917 16.2539 59.9171 16.2104 59.9372 16.1732C60.0495 16.1157 60.1646 16.0873 60.2823 16.0881C60.4001 16.0889 60.5184 16.0956 60.6373 16.1081C60.7396 16.3222 60.7956 16.4817 60.8054 16.5868C60.8257 16.679 60.8275 16.7612 60.8106 16.8334C60.7927 16.8939 60.7637 16.9614 60.7235 17.0357C60.695 17.109 60.6878 17.2215 60.702 17.3732C60.7106 17.4665 60.7108 17.5312 60.7024 17.5673C60.6378 17.6322 60.5838 17.6843 60.5404 17.7236C60.4958 17.7513 60.4726 17.8182 60.4707 17.9243C60.4007 17.9308 60.3493 17.9473 60.3165 17.9739C60.2836 18.0005 60.2513 18.0329 60.2196 18.0712C60.1995 18.1084 60.1736 18.1461 60.1419 18.1844C60.109 18.211 60.0576 18.2275 59.9876 18.234C59.9314 18.2628 59.8885 18.308 59.859 18.3696C59.84 18.4184 59.821 18.4672 59.802 18.5161C59.7436 18.5215 59.6927 18.5439 59.6493 18.5832C59.6048 18.6109 59.5539 18.6333 59.4967 18.6504C59.4226 18.7397 59.3744 18.7912 59.3522 18.8051C59.3299 18.8189 59.3071 18.8269 59.2838 18.8291C59.216 18.8589 59.1678 18.9105 59.1393 18.9838C59.1214 19.0443 59.0785 19.0894 59.0107 19.1193C58.875 19.179 58.7196 19.217 58.5446 19.2333C58.3813 19.2484 58.2589 19.3246 58.1775 19.4616C57.9929 19.5023 57.8159 19.5599 57.6463 19.6346C57.4873 19.6964 57.3229 19.7647 57.1533 19.8393C57.0652 19.7769 56.9516 19.758 56.8127 19.7827C56.6854 19.8063 56.5751 19.8225 56.4817 19.8311C56.4001 19.8387 56.3273 19.8161 56.2636 19.7632C56.218 19.7792 56.1554 19.8026 56.0759 19.8336C55.9953 19.8528 55.9142 19.8663 55.8325 19.8739C55.7508 19.8815 55.6739 19.8768 55.6017 19.86C55.5285 19.8315 55.4769 19.7834 55.4471 19.7155C55.4248 19.7294 55.3967 19.7437 55.3628 19.7587C55.3289 19.7736 55.3008 19.788 55.2785 19.8018C55.0164 19.7673 54.7596 19.7265 54.508 19.6793C54.2681 19.631 54.0256 19.5535 53.7802 19.4468L53.4652 19.4761C53.4237 19.4094 53.361 19.3681 53.2772 19.3524C53.205 19.3356 53.1534 19.2874 53.1225 19.2079C53.0736 19.1889 53.0253 19.1757 52.9776 19.1684C52.9415 19.16 52.8937 19.1527 52.8343 19.1464C52.7206 19.0628 52.6441 18.9993 52.6047 18.9559C52.576 18.8997 52.4805 18.8851 52.3182 18.9119C52.3318 18.8048 52.3263 18.7464 52.3019 18.7369C52.2764 18.7158 52.2509 18.6946 52.2254 18.6734C52.15 18.6216 52.1159 18.5718 52.1232 18.524C52.1306 18.4763 52.0865 18.4451 51.9909 18.4304C51.9877 18.3954 51.9791 18.3668 51.9653 18.3445C51.9515 18.3223 51.9429 18.2936 51.9397 18.2586C51.9142 18.2375 51.877 18.2174 51.8281 18.1984C51.791 18.1783 51.7596 18.1577 51.7341 18.1365C51.6988 18.0103 51.6621 17.9314 51.6238 17.8996C51.5758 17.7629 51.539 17.6839 51.5135 17.6627C51.4986 17.6288 51.489 17.5885 51.4846 17.5418C51.458 17.509 51.4378 17.4815 51.424 17.4592C51.409 17.4253 51.3772 17.3988 51.3283 17.3798C51.292 17.242 51.2545 17.0925 51.216 16.9313C51.1775 16.7701 51.1119 16.635 51.0194 16.5259C51.0275 16.3603 50.9948 16.1986 50.9213 16.0407C50.8584 15.87 50.8193 15.703 50.8041 15.5396C50.7998 15.4929 50.8018 15.4516 50.8102 15.4155C50.8186 15.3794 50.8207 15.338 50.8163 15.2913C50.8065 15.1863 50.7793 15.0829 50.7345 14.9812C50.6897 14.8794 50.663 14.7818 50.6543 14.6885C50.6446 14.5835 50.6587 14.4821 50.6967 14.3844C50.7347 14.2868 50.7021 14.1897 50.599 14.0934C50.6337 13.9607 50.6383 13.8838 50.6128 13.8626C50.5873 13.8414 50.5729 13.8134 50.5697 13.7784C50.5643 13.72 50.5716 13.6723 50.5917 13.6351C50.6107 13.5862 50.6175 13.5326 50.612 13.4743C50.567 13.2431 50.5624 13.067 50.5982 12.946C50.634 12.8249 50.6332 12.6897 50.5958 12.5402C50.6064 12.5274 50.6217 12.5024 50.6418 12.4653C50.6608 12.4164 50.6798 12.3676 50.6988 12.3187C50.7283 12.2571 50.7468 12.2025 50.7541 12.1547C50.772 12.0942 50.7857 12.0517 50.7952 12.0273C50.7931 12.004 50.7792 11.9817 50.7537 11.9605C50.7388 11.9266 50.7297 11.8922 50.7264 11.8572C50.7243 11.8338 50.7338 11.8094 50.7549 11.7839C50.7761 11.7584 50.7909 11.7276 50.7993 11.6915C50.8077 11.6554 50.7975 11.6093 50.7688 11.5531C50.7517 11.4958 50.7776 11.4581 50.8465 11.4399C50.8197 11.2777 50.8347 11.1233 50.8917 10.9767C50.9604 10.8291 50.9643 10.6816 50.9035 10.5343C50.9692 10.4811 51.0174 10.4295 51.048 10.3796C51.0787 10.3297 51.0839 10.2586 51.0635 10.1663C51.1525 10.111 51.2166 10.0403 51.2556 9.95427C51.2936 9.85658 51.3194 9.75415 51.333 9.64696C51.4559 9.57668 51.5236 9.48211 51.5361 9.36326C51.5603 9.24332 51.6338 9.14821 51.7567 9.07793C51.8053 8.96749 51.8402 8.89952 51.8613 8.87401C51.8942 8.84742 51.9201 8.8097 51.9391 8.76086C51.9898 8.67375 52.055 8.61473 52.1345 8.5838C52.2246 8.54011 52.2844 8.48747 52.314 8.42587C52.476 8.26958 52.5707 8.14896 52.5981 8.06403C52.6255 7.97909 52.6954 7.90786 52.8077 7.85034C52.8978 7.80665 52.9593 7.77151 52.9921 7.74492C53.0249 7.71833 53.0667 7.66148 53.1175 7.57438L53.3625 7.55159C53.4409 7.50899 53.5236 7.44834 53.6104 7.36965C53.6815 7.37481 53.7457 7.36884 53.8029 7.35174C53.8602 7.33465 53.9153 7.29422 53.9682 7.23045C54.1316 7.21526 54.298 7.17035 54.4676 7.09573C54.6489 7.02003 54.825 7.01542 54.996 7.08191C55.0627 7.04039 55.1428 7.01529 55.2361 7.00661C55.3411 6.99685 55.4467 6.99291 55.5528 6.99482C55.6589 6.99672 55.765 6.99862 55.8711 7.00052C55.9761 6.99076 56.0742 6.96986 56.1654 6.93785C56.2408 6.98968 56.3258 7.01709 56.4202 7.02007C56.5263 7.02198 56.6244 7.00108 56.7145 6.9574C56.7571 7.03582 56.8134 7.07178 56.8834 7.06527C56.9523 7.04709 57.0128 7.065 57.0649 7.119C57.1233 7.11358 57.1705 7.11507 57.2066 7.12348C57.2427 7.13189 57.2846 7.13977 57.3324 7.14709C57.3589 7.17993 57.3861 7.2186 57.4138 7.2631C57.452 7.29485 57.485 7.33298 57.5127 7.37748C57.6421 7.37721 57.7631 7.41303 57.8757 7.48495C57.9884 7.55686 58.0634 7.66758 58.1008 7.81709C58.138 7.83718 58.1757 7.86309 58.214 7.89484C58.2628 7.91384 58.2952 7.94613 58.3113 7.99172C58.3929 7.98412 58.4529 7.9962 58.4912 8.02795C58.5294 8.0597 58.5688 8.10312 58.6092 8.1582C58.7164 8.17177 58.8077 8.20447 58.8831 8.25631C58.9692 8.29538 59.0563 8.34613 59.1444 8.40854C59.151 8.47855 59.1638 8.55386 59.1831 8.63445C59.213 8.70229 59.1828 8.75805 59.0927 8.80174L59.1265 8.97514C59.1064 9.01231 59.0864 9.04949 59.0663 9.08666C59.0568 9.11109 59.042 9.14189 59.0219 9.17906C58.9723 9.27783 58.9343 9.37552 58.9079 9.47212C58.8816 9.56873 58.7984 9.62354 58.6584 9.63656C58.6001 9.64199 58.5412 9.64158 58.4818 9.63533C58.4329 9.61634 58.3793 9.60955 58.321 9.61498C58.2328 9.55256 58.1743 9.49327 58.1456 9.4371C58.1285 9.37984 58.0563 9.36302 57.929 9.38662C57.9171 9.25827 57.8861 9.17876 57.8362 9.1481C57.7852 9.10576 57.7431 9.03317 57.71 8.93033C57.6262 8.91459 57.5582 8.87972 57.5061 8.82572C57.4657 8.77063 57.4136 8.71663 57.3498 8.66371C57.2426 8.65014 57.1577 8.62273 57.095 8.58148C57.0323 8.54023 56.9368 8.52558 56.8085 8.53752C56.6003 8.45095 56.4199 8.40888 56.2671 8.41132C56.1143 8.41376 55.9552 8.41091 55.7897 8.40276C55.7207 8.42094 55.6704 8.44916 55.6386 8.48742C55.6186 8.5246 55.565 8.51781 55.4779 8.46707C55.4545 8.46924 55.4212 8.48999 55.3777 8.52934C55.346 8.5676 55.303 8.54806 55.2487 8.47072C55.1258 8.541 55.0086 8.54602 54.897 8.48577C54.8759 8.51128 54.8552 8.54262 54.8352 8.5798C54.8257 8.60422 54.7854 8.61385 54.7143 8.60869C54.5498 8.61222 54.387 8.63324 54.2258 8.67177C54.0646 8.7103 53.945 8.81559 53.8668 8.98762C53.7756 9.01964 53.6988 9.07975 53.6364 9.16794C53.5729 9.24446 53.4961 9.30456 53.406 9.34825C53.3838 9.36209 53.3626 9.38759 53.3425 9.42477C53.333 9.44919 53.3235 9.47361 53.314 9.49803L53.139 9.51431C53.085 9.56641 53.0501 9.63438 53.0344 9.71823C53.0292 9.78933 52.988 9.85201 52.9107 9.90628C52.931 9.99854 52.9089 10.0771 52.8443 10.142C52.7914 10.2057 52.7193 10.2536 52.6282 10.2856C52.6102 10.3461 52.587 10.413 52.5586 10.4863C52.5406 10.5468 52.5041 10.5973 52.4491 10.6377C52.5012 10.6917 52.5172 10.7373 52.4971 10.7745C52.4759 10.8 52.4372 10.8271 52.3811 10.8559C52.393 10.9842 52.3948 11.0665 52.3864 11.1025C52.3769 11.127 52.3362 11.1955 52.2642 11.3081C52.2908 11.3409 52.3005 11.3812 52.2931 11.429C52.2847 11.4651 52.2705 11.5017 52.2504 11.5389C52.2792 11.5951 52.2824 11.6301 52.2602 11.6439C52.2368 11.6461 52.2682 11.6667 52.3542 11.7058C52.2695 11.8078 52.2279 11.9294 52.2292 12.0705C52.2295 12.1999 52.2239 12.3299 52.2125 12.4604C52.2084 12.5432 52.1969 12.609 52.1779 12.6578C52.1706 12.7056 52.1569 12.7481 52.1368 12.7852C52.1284 12.8213 52.1211 12.8691 52.1148 12.9285C52.1192 12.9752 52.132 13.0505 52.1535 13.1544C52.1206 13.181 52.1 13.2123 52.0916 13.2484C52.0938 13.2718 52.0848 13.302 52.0647 13.3392C52.0968 13.4304 52.1107 13.5174 52.1067 13.6001C52.1026 13.6829 52.1049 13.7709 52.1136 13.8643C52.1244 13.981 52.1411 14.0971 52.1636 14.2127C52.1862 14.3283 52.2028 14.4444 52.2137 14.5611C52.2169 14.5961 52.226 14.6306 52.241 14.6645C52.2548 14.6868 52.2633 14.7154 52.2666 14.7504C52.2224 14.9075 52.2093 15.0205 52.2275 15.0895C52.2563 15.1456 52.2787 15.1965 52.2947 15.2421C52.3267 15.3333 52.347 15.4255 52.3557 15.5189C52.3633 15.6006 52.3831 15.687 52.4151 15.7782C52.4322 15.8354 52.4727 15.8905 52.5364 15.9434C52.4868 16.0422 52.4822 16.1191 52.5226 16.1742C52.5747 16.2282 52.6051 16.3019 52.6138 16.3952C52.6425 16.4514 52.6585 16.497 52.6618 16.532C52.665 16.567 52.6619 16.5967 52.6524 16.6212C52.7311 16.708 52.7896 16.7673 52.8278 16.799C52.8661 16.8308 52.9023 16.9039 52.9365 17.0184C53.0163 17.1169 53.0584 17.1895 53.0627 17.2362C53.067 17.2829 53.1111 17.3141 53.195 17.3298C53.2069 17.4582 53.2267 17.5446 53.2544 17.5891C53.2821 17.6336 53.3209 17.6712 53.3708 17.7019C53.4197 17.7208 53.469 17.7457 53.519 17.7763C53.5795 17.7943 53.631 17.8424 53.6736 17.9208C53.8603 17.9035 53.9983 17.9318 54.0876 18.0059C54.1885 18.0789 54.3212 18.1137 54.4857 18.1101C54.5261 18.1652 54.5707 18.2023 54.6196 18.2213C54.6801 18.2392 54.73 18.2698 54.7694 18.3133C54.8649 18.3279 54.9535 18.3314 55.0352 18.3238C55.1274 18.3035 55.206 18.3256 55.2708 18.3902C55.3058 18.3869 55.3281 18.3731 55.3376 18.3487C55.3471 18.3243 55.3938 18.3199 55.4776 18.3357C55.4852 18.4173 55.5526 18.4464 55.6799 18.4228C55.8061 18.3875 55.8803 18.3629 55.9026 18.3491C56.0618 18.4167 56.2131 18.4615 56.3564 18.4834C56.4986 18.4938 56.6397 18.4924 56.7797 18.4794C56.8731 18.4707 56.9653 18.4503 57.0565 18.4183C57.1594 18.3852 57.2633 18.3638 57.3683 18.354C57.5018 18.271 57.6036 18.2262 57.6736 18.2197C57.7425 18.2015 57.8051 18.1781 57.8612 18.1493C57.963 18.1045 58.0578 18.0486 58.1457 17.9816C58.2337 17.9146 58.3291 17.8645 58.4319 17.8314C58.4626 17.7815 58.506 17.7421 58.5622 17.7134C58.6172 17.6729 58.6665 17.6331 58.7099 17.5937C58.765 17.5533 58.8084 17.5139 58.8402 17.4757C58.8836 17.4363 58.9026 17.3875 58.8972 17.3291C58.9544 17.3121 58.9989 17.2844 59.0307 17.2461C59.0741 17.2068 59.1111 17.1621 59.1418 17.1122C59.1725 17.0623 59.2037 17.0182 59.2354 16.9799C59.2777 16.9289 59.3275 16.8948 59.3848 16.8778Z" fill="white"/>
<path d="M74.1853 10.585C74.1843 10.7022 74.2188 10.7787 74.2888 10.8144C74.3589 10.8385 74.4406 10.8744 74.5339 10.922C74.591 11.0983 74.6486 11.216 74.7067 11.2751C74.7647 11.3342 74.8288 11.3817 74.8988 11.4174C74.9559 11.5937 75.0486 11.7117 75.177 11.7714L75.1754 11.9472C75.1985 11.9943 75.2274 12.0355 75.2623 12.071C75.2972 12.0947 75.3321 12.1243 75.367 12.1598C75.4133 12.2188 75.4361 12.2952 75.4353 12.3889C75.4349 12.4358 75.4636 12.5005 75.5215 12.583C75.5795 12.6539 75.62 12.7128 75.643 12.7599C75.6661 12.7952 75.6775 12.8364 75.6771 12.8832C75.6767 12.9301 75.6821 12.977 75.6934 13.024C75.7158 13.1531 75.7677 13.2473 75.8492 13.3066C75.9308 13.3542 76.0122 13.4252 76.0935 13.5197L76.074 13.7305C76.1671 13.8133 76.2483 13.9078 76.3177 14.0138C76.3989 14.1083 76.4861 14.1852 76.5794 14.2446C76.5309 14.4317 76.5824 14.5728 76.7339 14.6679C76.6861 14.7729 76.6797 14.8373 76.7146 14.8611C76.7497 14.8731 76.7962 14.9087 76.8543 14.9678C76.8424 14.9911 76.8188 15.0143 76.7834 15.0375C76.7599 15.049 76.7363 15.0605 76.7128 15.072C76.7945 15.1079 76.8585 15.167 76.9046 15.2495C76.9509 15.3202 76.9443 15.4022 76.8849 15.4954C77.0013 15.5902 77.094 15.7082 77.1631 15.8494C77.2439 15.9907 77.3486 16.0737 77.4773 16.0982C77.4533 16.1683 77.4587 16.2152 77.4937 16.239C77.5404 16.2628 77.5929 16.2867 77.6513 16.3107C77.6622 16.4045 77.6848 16.4985 77.7191 16.5925C77.7536 16.6749 77.8176 16.7282 77.9111 16.7524C77.9102 16.8579 77.933 16.9342 77.9794 16.9815C78.1189 17.1116 78.2525 17.2476 78.3802 17.3893C78.5197 17.5194 78.6711 17.6321 78.8343 17.7273C78.8097 17.8677 78.8204 17.985 78.8664 18.0791C78.9242 18.1734 79.0055 18.262 79.1102 18.3449C79.0863 18.4033 79.0565 18.4558 79.0209 18.5024C78.9971 18.549 79.0083 18.6136 79.0544 18.696C78.9483 18.7654 78.877 18.882 78.8404 19.0457C78.7466 19.0566 78.6761 19.0736 78.629 19.0966C78.582 19.1197 78.4999 19.1248 78.3828 19.1121C78.3353 19.182 78.2762 19.24 78.2055 19.2863C78.1348 19.3326 78.0641 19.373 77.9935 19.4075C77.8886 19.348 77.7721 19.265 77.6441 19.1584C77.516 19.0635 77.3935 19.0038 77.2765 18.9794C77.242 18.9088 77.2015 18.844 77.1551 18.785C77.1206 18.7144 77.0861 18.6437 77.0515 18.5731C76.9697 18.549 76.9173 18.5075 76.8944 18.4487C76.8716 18.3782 76.8311 18.3192 76.7729 18.2719C76.7032 18.2009 76.6744 18.1421 76.6865 18.0953C76.7104 18.0487 76.6755 18.0132 76.582 17.9889C76.5589 17.9419 76.5476 17.8949 76.548 17.848C76.5602 17.8012 76.5429 17.7601 76.4964 17.7245C76.4031 17.6651 76.3335 17.5825 76.2876 17.4766C76.2417 17.359 76.1604 17.2763 76.0436 17.2284C76.0328 17.1228 75.9927 17.0228 75.9232 16.9285C75.8654 16.8342 75.8017 16.7458 75.7321 16.6631C75.6626 16.5688 75.5989 16.4803 75.5411 16.3978C75.4833 16.3035 75.4548 16.2095 75.4556 16.1158L75.3165 15.9388C75.3171 15.8685 75.3059 15.8157 75.2828 15.7803C75.2714 15.7333 75.2484 15.6921 75.2135 15.6566C75.1904 15.6213 75.1673 15.5859 75.1441 15.5506C75.1328 15.5036 75.1333 15.4509 75.1455 15.3924C75.0636 15.3799 75.0287 15.3445 75.0409 15.286C75.0532 15.2275 75.0242 15.1862 74.9541 15.1622C74.9554 15.0216 74.9212 14.9041 74.8517 14.8097C74.7822 14.7154 74.6952 14.6209 74.5905 14.5262C74.6033 14.3974 74.5808 14.2976 74.5228 14.2268C74.4766 14.1443 74.407 14.0675 74.3138 13.9964C74.2699 13.6562 74.179 13.3331 74.041 13.0272C73.9148 12.7214 73.7178 12.456 73.4503 12.231C73.4627 12.1491 73.4456 12.0904 73.3991 12.0548C73.3642 12.0193 73.3176 11.9896 73.2592 11.9657C73.2126 11.9301 73.1602 11.8945 73.1019 11.8588C73.0437 11.8115 72.9974 11.7525 72.9628 11.6819C72.9038 11.7282 72.8567 11.7512 72.8216 11.7509C72.7982 11.7507 72.7571 11.7562 72.6984 11.7674C72.5811 11.7781 72.5105 11.8127 72.4866 11.8711C72.4627 11.9177 72.3922 11.9406 72.275 11.9396C72.2865 11.9631 72.2979 11.9983 72.3093 12.0453C72.3324 12.0807 72.3321 12.1158 72.3083 12.1508C72.2264 12.1384 72.1619 12.1495 72.1147 12.1843C72.0676 12.2073 72.0204 12.242 71.9731 12.2885C71.9377 12.3234 71.8963 12.364 71.849 12.4105C71.8018 12.4452 71.7372 12.4622 71.6552 12.4615C71.5719 12.6132 71.4652 12.747 71.3353 12.8631C71.2172 12.9675 71.0874 13.066 70.946 13.1585C70.8859 13.3338 70.814 13.5089 70.7305 13.684C70.6588 13.8474 70.6748 14.0234 70.7786 14.2118C70.7665 14.2586 70.7427 14.3052 70.7071 14.3518C70.6716 14.3866 70.642 14.4215 70.6183 14.4565C70.617 14.6088 70.6338 14.6969 70.6687 14.7206C70.7154 14.7445 70.7384 14.7974 70.7377 14.8794C70.7372 14.938 70.725 14.9906 70.7011 15.0373C70.689 15.0841 70.6827 15.1368 70.6822 15.1954C70.6816 15.2657 70.6927 15.3361 70.7155 15.4066C70.7501 15.4772 70.767 15.5477 70.7664 15.618C70.7409 15.8521 70.751 16.0397 70.7967 16.1808C70.8423 16.3218 70.8644 16.4743 70.863 16.6384C70.8622 16.7321 70.8496 16.8316 70.8253 16.9369C70.8126 17.0423 70.8059 17.1418 70.8051 17.2356C70.8043 17.3293 70.8152 17.4232 70.8378 17.5171C70.8721 17.6112 70.936 17.6762 71.0295 17.7121C71.0169 17.8058 71.034 17.8704 71.0805 17.906C71.1272 17.9298 71.1678 17.9712 71.2025 18.0301C71.1785 18.0885 71.1255 18.129 71.0432 18.1517C70.9611 18.1627 70.9195 18.2268 70.9185 18.344C70.918 18.4026 70.9293 18.4496 70.9524 18.4849C70.9874 18.5087 71.0105 18.544 71.0218 18.591C70.9622 18.7077 70.9028 18.8009 70.8436 18.8707C70.7844 18.9405 70.6785 18.9865 70.526 19.0086C70.5022 19.0436 70.4785 19.0785 70.4548 19.1135C70.4309 19.1601 70.4071 19.2068 70.3832 19.2535C70.3129 19.2529 70.2075 19.2519 70.0668 19.2507C69.9379 19.2496 69.8622 19.2021 69.8396 19.1081L69.5056 19.1052C69.4592 19.0462 69.3894 18.987 69.2962 18.9276C69.2973 18.7987 69.2572 18.6987 69.1757 18.6277C69.106 18.5568 69.0246 18.4858 68.9315 18.4146C68.9557 18.3211 68.9741 18.2275 68.9867 18.1339C68.9993 18.0285 69.0295 17.9291 69.0771 17.8358C69.1011 17.7774 69.125 17.7249 69.1488 17.6782C69.1727 17.6315 69.1849 17.5789 69.1854 17.5203C69.1859 17.4617 69.1688 17.403 69.1342 17.3441C69.0996 17.2735 69.0826 17.203 69.0833 17.1327C69.0839 17.0624 69.0727 17.0037 69.0496 16.9566C69.0383 16.9097 69.0211 16.8685 68.998 16.8331C68.9867 16.7861 68.9812 16.7392 68.9816 16.6924C68.9821 16.6338 69.0062 16.5637 69.0538 16.482C68.9842 16.3994 68.9323 16.2993 68.8982 16.1818C68.8758 16.0527 68.9235 15.9594 69.0412 15.9018C69.079 15.5975 69.0874 15.3045 69.0664 15.0231C69.0572 14.7418 69.0539 14.4488 69.0565 14.1441C69.0104 14.0499 68.9703 13.95 68.9361 13.8442C68.9136 13.7268 68.938 13.6215 69.0091 13.5284C69.0331 13.47 69.0334 13.429 69.0102 13.4054C68.9988 13.3701 68.9757 13.3289 68.941 13.2817C68.9774 13.1297 68.9729 12.9773 68.9273 12.8245C68.8935 12.6719 68.8479 12.5309 68.7904 12.4015C68.7445 12.2839 68.704 12.2249 68.6689 12.2246C68.6337 12.2243 68.6164 12.1949 68.6169 12.1363C68.6178 12.0308 68.648 11.9315 68.7074 11.8382C68.7785 11.7451 68.8143 11.6692 68.8149 11.6106C68.8154 11.552 68.7981 11.5109 68.7632 11.4871C68.7283 11.4517 68.6994 11.4104 68.6764 11.3633C68.7001 11.3284 68.7297 11.2935 68.7652 11.2586C68.8006 11.2238 68.8302 11.1889 68.854 11.1539C68.8428 11.0952 68.8257 11.0423 68.8026 10.9953C68.7796 10.9482 68.7566 10.8953 68.7337 10.8365C68.7576 10.7781 68.7698 10.7254 68.7702 10.6786C68.7823 10.6318 68.8295 10.597 68.9118 10.5743C68.9009 10.4805 68.872 10.4333 68.8251 10.4329C68.7783 10.4208 68.761 10.3914 68.7731 10.3446C68.7853 10.2861 68.7974 10.2511 68.8092 10.2394C68.8328 10.2162 68.8507 10.1871 68.8627 10.152C68.8163 10.093 68.7991 10.0518 68.811 10.0285C68.8231 9.99345 68.8293 9.94663 68.8298 9.88804C68.8546 9.73591 68.8554 9.64216 68.8323 9.6068C68.8091 9.57144 68.78 9.54775 68.745 9.53573C68.7218 9.51209 68.6927 9.4884 68.6577 9.46465C68.6345 9.44101 68.6172 9.41156 68.6058 9.37631C68.7356 9.27196 68.7894 9.14352 68.7673 8.99098C68.757 8.82682 68.7467 8.66852 68.7363 8.51608C68.7374 8.38718 68.7445 8.24661 68.7575 8.09438C68.7823 7.94224 68.7307 7.81288 68.6027 7.7063C68.6149 7.64781 68.6215 7.55997 68.6226 7.44279C68.6237 7.31389 68.6248 7.18498 68.6259 7.05608C68.627 6.92718 68.6281 6.81 68.629 6.70453C68.63 6.58735 68.6424 6.51128 68.6661 6.47633C68.7013 6.47664 68.7423 6.47699 68.7892 6.4774C68.836 6.47781 68.8656 6.44877 68.8778 6.39028C68.9367 6.35563 68.9955 6.33857 69.054 6.33907C69.1244 6.33969 69.1832 6.3109 69.2306 6.25272C69.3013 6.20645 69.3894 6.18378 69.4949 6.1847C69.6004 6.1739 69.6766 6.1687 69.7235 6.16911C69.8641 6.17033 69.9691 6.22398 70.0385 6.33005C70.1198 6.42451 70.2068 6.51903 70.2998 6.61359C70.2996 6.63702 70.2817 6.66617 70.2463 6.70102C70.2109 6.72415 70.193 6.75915 70.1926 6.80602C70.1918 6.89977 70.2085 6.99953 70.2427 7.1053C70.2771 7.19935 70.2938 7.29911 70.2929 7.40457L70.2907 7.65066C70.2904 7.68581 70.296 7.72102 70.3074 7.75627C70.3188 7.79153 70.3244 7.82088 70.3242 7.84431C70.3239 7.87947 70.3176 7.92629 70.3054 7.98478C70.3049 8.04337 70.2985 8.10777 70.2862 8.17798C70.2738 8.24819 70.2557 8.31249 70.2317 8.37087C70.2078 8.42926 70.184 8.47007 70.1604 8.49331C70.2068 8.54059 70.2357 8.59357 70.2469 8.65227C70.2581 8.71096 70.2634 8.7696 70.2629 8.82819C70.2625 8.87507 70.2679 8.92785 70.2791 8.98654C70.2904 9.03352 70.3135 9.07474 70.3484 9.1102C70.3124 9.20364 70.2823 9.29127 70.2582 9.3731C70.234 9.45492 70.2216 9.5427 70.2207 9.63645C70.2203 9.68332 70.2317 9.72444 70.2548 9.7598C70.2897 9.79526 70.307 9.82471 70.3068 9.84814C70.3065 9.8833 70.2945 9.91835 70.2707 9.9533C70.2587 9.98836 70.2525 10.0293 70.2521 10.0762C70.2515 10.1465 70.2567 10.2169 70.2678 10.2873C70.2907 10.3461 70.3136 10.4107 70.3364 10.4812C70.3012 10.4927 70.2717 10.51 70.2481 10.5332C70.2362 10.5565 70.2125 10.5798 70.1772 10.6029C70.2573 10.8263 70.291 10.9906 70.2784 11.096C70.2775 11.1897 70.3059 11.3013 70.3633 11.4307C70.4919 11.467 70.574 11.4619 70.6096 11.4153C70.6451 11.3687 70.7042 11.3106 70.7869 11.241C70.8691 11.2183 70.922 11.2012 70.9455 11.1897C70.9809 11.1666 71.0107 11.1082 71.035 11.0147C71.1878 10.9574 71.3348 10.8942 71.4761 10.8251C71.629 10.7562 71.7588 10.6577 71.8654 10.5297C71.9242 10.5068 71.9595 10.4895 71.9713 10.4779C71.9948 10.4664 72.0418 10.4609 72.1121 10.4615C72.1242 10.4147 72.1363 10.3738 72.1483 10.3388C72.1604 10.292 72.1667 10.2452 72.1671 10.1983C72.3314 10.1763 72.4958 10.1367 72.6603 10.0796C72.825 10.0107 72.9374 9.88273 72.9977 9.69575C73.0329 9.68434 73.0623 9.67287 73.0859 9.66136C73.1212 9.63823 73.1507 9.61505 73.1744 9.59181C73.3033 9.59293 73.3972 9.57031 73.4562 9.52395C73.527 9.46597 73.6037 9.40804 73.6862 9.35016C73.8396 9.2343 74.0103 9.14203 74.1984 9.07335C74.3866 8.99296 74.5285 8.85356 74.624 8.65516C74.6826 8.65567 74.7178 8.64426 74.7297 8.62092C74.7417 8.59759 74.7768 8.5979 74.8352 8.62184C74.8707 8.58699 74.9061 8.558 74.9414 8.53487C74.9769 8.50002 75.0124 8.46517 75.0478 8.43032C75.1769 8.40801 75.2828 8.36205 75.3654 8.29245C75.4599 8.21124 75.5718 8.14776 75.7011 8.10201L75.8947 8.06853C75.9309 7.95165 75.9492 7.86978 75.9496 7.82291C76.0201 7.80008 76.0614 7.77114 76.0734 7.73609C76.0972 7.70114 76.156 7.67821 76.2498 7.66731C76.2625 7.55022 76.2749 7.48002 76.2868 7.45668C76.3104 7.43345 76.3225 7.3984 76.3229 7.35152C76.3578 7.37527 76.3929 7.38729 76.428 7.38759C76.4633 7.37618 76.4926 7.37058 76.5161 7.37078C76.5052 7.27693 76.5174 7.21844 76.5527 7.19531C76.5881 7.17218 76.6178 7.13142 76.6417 7.07303C76.7005 7.05011 76.7534 7.03299 76.8004 7.02168C76.8592 6.99875 76.9005 6.95809 76.9245 6.8997C76.9713 6.90011 77.0065 6.89456 77.0301 6.88304C77.0536 6.87153 77.0713 6.85996 77.0831 6.84835C77.1068 6.82511 77.1245 6.80769 77.1363 6.79607C77.1599 6.78456 77.1951 6.77901 77.2419 6.77941C77.2658 6.73274 77.2898 6.66264 77.3141 6.56909C77.35 6.47565 77.3974 6.42333 77.4561 6.41212C77.6674 6.36708 77.8202 6.32153 77.9143 6.27547C78.0085 6.22942 78.12 6.20695 78.2489 6.20807C78.2606 6.20817 78.2957 6.21433 78.3542 6.22656C78.4244 6.23889 78.4887 6.25703 78.5471 6.28097C78.6055 6.30492 78.658 6.32882 78.7047 6.35266C78.7514 6.3765 78.7746 6.40014 78.7744 6.42358C78.7733 6.55248 78.7903 6.61123 78.8256 6.59981C78.8727 6.57679 78.8959 6.59457 78.8954 6.65316C78.8951 6.68831 78.8831 6.72337 78.8594 6.75832C78.8474 6.78165 78.8413 6.81676 78.8409 6.86363C78.8406 6.89878 78.852 6.93404 78.8751 6.9694C78.9101 6.99314 78.9274 7.01673 78.9272 7.04017C78.9268 7.08704 78.903 7.13371 78.8557 7.18018C78.8202 7.21503 78.7847 7.25573 78.7492 7.3023C78.7136 7.34887 78.6838 7.40135 78.6599 7.45973C78.636 7.51812 78.6412 7.58848 78.6756 7.67082C78.6169 7.69374 78.5581 7.71667 78.4993 7.7396C78.4523 7.75091 78.4343 7.79763 78.4453 7.87976C78.375 7.87915 78.2986 7.90192 78.2162 7.94808C78.1456 7.98263 78.0809 8.01136 78.0221 8.03429C77.9749 8.06904 77.9335 8.10969 77.898 8.15626C77.8624 8.20283 77.8268 8.2494 77.7913 8.29596C77.6739 8.31838 77.5623 8.35257 77.4564 8.39853C77.3623 8.43287 77.2856 8.49665 77.2262 8.58989C77.1323 8.60079 77.0324 8.63508 76.9265 8.69276C76.8323 8.73882 76.7556 8.79675 76.6964 8.86655C76.6251 8.98312 76.5659 9.04706 76.519 9.05837C76.4721 9.05796 76.4191 9.0868 76.36 9.14488C76.2653 9.24953 76.1533 9.33645 76.0237 9.40564C75.9061 9.46321 75.8175 9.54448 75.7579 9.64943C75.664 9.67205 75.6052 9.69498 75.5816 9.71821C75.5579 9.74145 75.5342 9.77054 75.5105 9.80549C75.4986 9.82883 75.4808 9.85211 75.4571 9.87534C75.4335 9.89857 75.3864 9.92746 75.3158 9.96201C75.257 9.98493 75.2216 10.0081 75.2097 10.0314C75.1978 10.0547 75.18 10.078 75.1563 10.1013C75.1093 10.1243 75.0506 10.1355 74.9803 10.1349C74.9217 10.1344 74.863 10.1456 74.8042 10.1685C74.7218 10.2029 74.6746 10.2436 74.6625 10.2903C74.6622 10.3255 74.6096 10.3133 74.5046 10.2538C74.4803 10.3473 74.4329 10.4114 74.3623 10.4459C74.3034 10.4806 74.227 10.5033 74.1332 10.5142L74.1853 10.585Z" fill="white"/>
<path d="M111.87 22.6436C111.882 22.7056 111.859 22.7311 111.801 22.7201C111.755 22.7113 111.715 22.7036 111.681 22.6971C111.704 22.7612 111.701 22.8083 111.671 22.8385C111.653 22.8708 111.624 22.901 111.583 22.9289C111.555 22.9476 111.521 22.9709 111.48 22.9988C111.45 23.029 111.431 23.0671 111.422 23.1131C111.242 23.055 111.132 23.0399 111.091 23.0678C111.052 23.0843 110.973 23.1528 110.855 23.2734C110.735 23.2744 110.631 23.2903 110.542 23.321C110.452 23.2919 110.388 23.25 110.351 23.1952C110.323 23.1541 110.243 23.1329 110.112 23.1318C110.16 23.0096 110.12 22.9364 109.993 22.9123C110.02 22.8339 110.034 22.7591 110.036 22.6878C110.049 22.6187 110.013 22.5581 109.927 22.5061C110.01 22.4502 110.035 22.3775 110.005 22.2882C109.976 22.1873 109.977 22.0919 110.006 22.002C110.01 21.979 110.02 21.9571 110.036 21.9362C110.054 21.9039 110.067 21.8705 110.073 21.8359C110.045 21.7351 110.044 21.6753 110.071 21.6567C110.11 21.6402 110.133 21.6147 110.14 21.5802C110.23 21.3588 110.291 21.1617 110.324 20.989C110.359 20.8048 110.392 20.6322 110.423 20.471C110.432 20.425 110.425 20.394 110.405 20.3781C110.384 20.3622 110.358 20.3394 110.328 20.3098C110.339 20.2523 110.363 20.221 110.4 20.2161C110.448 20.2134 110.482 20.1901 110.503 20.1462C110.529 20.0678 110.532 19.9908 110.511 19.9152C110.501 19.8417 110.509 19.7658 110.536 19.6874C110.602 19.5328 110.622 19.4235 110.599 19.3593C110.589 19.2859 110.595 19.2215 110.618 19.1661C110.627 19.12 110.64 19.0809 110.658 19.0485C110.688 19.0184 110.706 18.986 110.712 18.9515C110.721 18.9054 110.723 18.8641 110.718 18.8273C110.713 18.7906 110.714 18.755 110.721 18.7204C110.732 18.6629 110.748 18.6064 110.771 18.5511C110.793 18.4957 110.81 18.4392 110.821 18.3817C110.832 18.3241 110.836 18.2712 110.833 18.223C110.833 18.1632 110.819 18.1128 110.791 18.0717C110.868 17.979 110.914 17.8327 110.928 17.6326C110.942 17.4325 110.973 17.2714 111.02 17.1491C111.081 17.0176 111.097 16.9312 111.07 16.8901C111.053 16.8512 111.055 16.8098 111.075 16.7659C111.084 16.7199 111.098 16.6807 111.116 16.6484C111.145 16.6182 111.164 16.5801 111.173 16.5341C111.184 16.4765 111.177 16.4214 111.151 16.3688C111.137 16.3184 111.141 16.2655 111.163 16.2101C111.256 15.9771 111.285 15.7919 111.251 15.6543C111.23 15.5189 111.261 15.3876 111.344 15.2604C111.353 15.2144 111.348 15.1776 111.33 15.1502C111.311 15.1228 111.293 15.0896 111.277 15.0507C111.31 14.9378 111.312 14.8665 111.282 14.8369C111.266 14.798 111.255 14.7303 111.249 14.6338C111.247 14.4546 111.275 14.2808 111.331 14.1125C111.398 13.9464 111.424 13.7784 111.409 13.6085C111.397 13.5465 111.377 13.495 111.349 13.4539C111.321 13.4128 111.325 13.3599 111.361 13.2952C111.299 13.3072 111.241 13.3319 111.186 13.3692C111.133 13.3949 111.076 13.4138 111.014 13.4259C110.997 13.518 110.965 13.5895 110.92 13.6405C110.888 13.6821 110.873 13.757 110.877 13.865C110.829 13.9274 110.76 13.974 110.671 14.0047L110.502 14.3303C110.486 14.3511 110.459 14.364 110.423 14.3689C110.398 14.3761 110.371 14.3889 110.344 14.4076L110.215 14.6156C110.197 14.6479 110.184 14.6814 110.178 14.7159C110.185 14.7411 110.186 14.7652 110.182 14.7883C110.175 14.8228 110.149 14.8656 110.104 14.9165C110.07 14.9697 110.023 15.0264 109.964 15.0867C109.907 15.1355 109.85 15.1843 109.793 15.2331C109.747 15.284 109.717 15.3199 109.701 15.3408C109.61 15.4427 109.545 15.5019 109.506 15.5183C109.469 15.5233 109.443 15.5362 109.427 15.557C109.399 15.5756 109.381 15.608 109.373 15.654C109.366 15.6885 109.355 15.7162 109.339 15.737C109.305 15.7902 109.243 15.862 109.155 15.9525C109.079 16.0336 109.011 16.0802 108.949 16.0922C108.94 16.1383 108.925 16.189 108.902 16.2443C108.882 16.2882 108.837 16.3035 108.768 16.2904C108.767 16.4214 108.724 16.5206 108.64 16.588C108.555 16.6554 108.528 16.7338 108.559 16.8232C108.502 16.8122 108.452 16.8207 108.411 16.8486C108.384 16.8673 108.355 16.8917 108.326 16.9218C108.296 16.9519 108.266 16.9821 108.237 17.0122C108.207 17.0424 108.168 17.0588 108.12 17.0616C108.13 17.135 108.115 17.2156 108.074 17.3033C108.047 17.3817 107.985 17.4236 107.889 17.4291C107.866 17.4844 107.846 17.5283 107.828 17.5606C107.81 17.593 107.807 17.6401 107.819 17.7021C107.734 17.7097 107.683 17.7596 107.665 17.8517C107.65 17.9323 107.59 17.9983 107.484 18.0498C107.485 18.1693 107.464 18.2488 107.421 18.2883C107.389 18.3299 107.359 18.3957 107.33 18.4856C107.256 18.4955 107.153 18.5654 107.021 18.6953C106.903 18.8158 106.826 18.9085 106.789 18.9731C106.677 18.9994 106.617 19.0299 106.611 19.0644C106.604 19.0989 106.592 19.1324 106.574 19.1647C106.546 19.1833 106.519 19.202 106.492 19.2206C106.464 19.2392 106.437 19.2579 106.409 19.2765C106.36 19.3505 106.319 19.4382 106.288 19.5396C106.27 19.6317 106.254 19.7181 106.238 19.7986C106.192 19.7899 106.154 19.8005 106.125 19.8307C106.107 19.863 106.078 19.8874 106.039 19.9039C106.028 19.9614 106.008 20.0351 105.979 20.125C105.962 20.2171 105.921 20.275 105.857 20.2985C105.885 20.3994 105.859 20.5076 105.777 20.6233C105.697 20.7274 105.66 20.8278 105.666 20.9242C105.563 20.9642 105.456 21.0215 105.347 21.096C105.251 21.1613 105.146 21.2128 105.031 21.2506C104.928 21.2906 104.824 21.3065 104.718 21.2982C104.612 21.29 104.51 21.2289 104.413 21.1148C104.38 21.0967 104.35 21.097 104.323 21.1156C104.298 21.1228 104.268 21.123 104.233 21.1165C104.176 21.1055 104.115 21.0819 104.05 21.0457C103.997 21.0117 103.939 21.0007 103.877 21.0128C103.888 20.8955 103.873 20.7853 103.833 20.6822C103.795 20.5677 103.794 20.4482 103.83 20.3237C103.839 20.2777 103.858 20.2396 103.887 20.2094C103.928 20.1815 103.953 20.1445 103.962 20.0984C103.991 20.0085 103.996 19.92 103.977 19.8329C103.972 19.7364 103.94 19.6528 103.882 19.582C103.888 19.4878 103.895 19.3877 103.903 19.2819C103.911 19.1761 103.881 19.0868 103.811 19.0138C103.849 18.8779 103.849 18.7526 103.811 18.6381C103.773 18.5235 103.717 18.4114 103.643 18.3017C103.647 18.2787 103.64 18.2236 103.62 18.1365C103.613 18.0515 103.594 17.9643 103.563 17.875C103.546 17.7763 103.521 17.688 103.488 17.6102C103.469 17.523 103.456 17.4668 103.449 17.4416C103.434 17.3912 103.421 17.335 103.409 17.273C103.409 17.2133 103.373 17.1826 103.302 17.1809C103.344 17.022 103.321 16.9222 103.233 16.8816C103.148 16.8295 103.084 16.7577 103.042 16.6662C102.99 16.5609 102.951 16.4521 102.925 16.3397C102.901 16.2158 102.852 16.099 102.777 15.9894C102.785 15.8836 102.76 15.7953 102.702 15.7246C102.656 15.6561 102.591 15.59 102.507 15.5264C102.548 15.4387 102.553 15.3801 102.523 15.3505C102.495 15.3093 102.487 15.26 102.498 15.2024C102.474 15.1383 102.431 15.0824 102.369 15.0347C102.32 14.9777 102.27 14.9264 102.219 14.8809C102.222 14.7384 102.181 14.6112 102.095 14.4993C102.011 14.376 101.959 14.2409 101.939 14.0939C101.932 14.0687 101.889 14.0128 101.81 13.9262C101.745 13.8302 101.701 13.7801 101.678 13.7757C101.723 13.665 101.727 13.5822 101.69 13.5274C101.652 13.4725 101.642 13.3991 101.66 13.307C101.621 13.2637 101.593 13.2226 101.576 13.1836C101.573 13.1354 101.57 13.0929 101.565 13.0562C101.562 13.008 101.547 12.9633 101.519 12.9222C101.502 12.8832 101.461 12.8514 101.394 12.8268C101.388 12.7303 101.38 12.6453 101.371 12.5718C101.372 12.5006 101.312 12.4414 101.19 12.3942C101.203 12.3251 101.196 12.27 101.168 12.2289C101.153 12.1785 101.126 12.1316 101.087 12.0883C101.059 12.0472 101.031 12.0061 101.003 11.965C100.977 11.9123 100.97 11.8572 100.981 11.7997C100.987 11.9559 100.965 12.071 100.915 12.145C100.867 12.2075 100.837 12.2733 100.824 12.3424C100.813 12.3999 100.824 12.4377 100.856 12.4558C100.902 12.4646 100.92 12.4978 100.909 12.5553C100.898 12.6129 100.869 12.6672 100.824 12.7181C100.778 12.7691 100.75 12.8234 100.739 12.8809C100.731 13.0465 100.695 13.2065 100.63 13.3611C100.576 13.5179 100.573 13.6248 100.622 13.6818C100.611 13.7394 100.586 13.7764 100.547 13.7928C100.508 13.8092 100.473 13.8383 100.441 13.8799C100.456 13.9304 100.453 13.9775 100.432 14.0214C100.426 14.0559 100.424 14.0973 100.426 14.1455C100.429 14.1938 100.433 14.2363 100.438 14.273C100.454 14.3119 100.459 14.3486 100.453 14.3832C100.429 14.5098 100.384 14.6504 100.319 14.805C100.253 14.9596 100.257 15.0974 100.329 15.2186C100.27 15.2789 100.251 15.3469 100.273 15.4225C100.294 15.4982 100.298 15.5705 100.285 15.6396C100.267 15.6719 100.249 15.7043 100.231 15.7366C100.212 15.7689 100.199 15.8081 100.19 15.8542C100.161 15.9441 100.137 16.0408 100.117 16.1444C100.109 16.2502 100.09 16.3481 100.061 16.438C100.05 16.4955 100.033 16.552 100.011 16.6074C99.9906 16.6512 99.975 16.7019 99.964 16.7595C99.953 16.817 99.9694 16.856 100.013 16.8762C100.057 16.8965 100.062 16.9333 100.028 16.9864C99.8499 17.1076 99.7729 17.2301 99.797 17.354C99.8348 17.4685 99.815 17.5721 99.7377 17.6648L99.6152 17.8382C99.6486 17.9758 99.6417 18.1058 99.5946 18.228C99.5496 18.3387 99.5093 18.4563 99.4737 18.5807C99.4605 18.6498 99.4531 18.72 99.4514 18.7912C99.4613 18.8647 99.4539 18.9349 99.4292 19.0017C99.3776 19.147 99.3579 19.2506 99.3699 19.3125C99.3957 19.3652 99.4031 19.4203 99.3921 19.4778C99.3674 19.5447 99.3291 19.6209 99.277 19.7064C99.2249 19.7919 99.2221 19.8689 99.2687 19.9375C99.198 19.9955 99.1423 20.0684 99.1018 20.1562C99.0634 20.2323 99.0135 20.3063 98.9521 20.3781C99.0014 20.4949 98.9828 20.5928 98.8961 20.6717C98.821 20.7528 98.7423 20.8213 98.6601 20.8772C98.5335 20.8531 98.4471 20.8366 98.4011 20.8278C98.3573 20.8076 98.3142 20.8769 98.272 21.0359C98.2122 21.0364 98.1445 21.0474 98.0689 21.0687C98.0025 21.1038 97.9348 21.1148 97.8658 21.1016C97.7737 21.084 97.7065 21.0295 97.6643 20.9379C97.6336 20.8486 97.5539 20.7976 97.4251 20.785C97.4432 20.7526 97.4476 20.7296 97.4382 20.7159C97.4404 20.7044 97.43 20.6964 97.407 20.692C97.3862 20.6761 97.3664 20.6545 97.3478 20.6271C97.3292 20.5997 97.3264 20.5514 97.3396 20.4823C97.2618 20.2647 97.2525 20.1257 97.3117 20.0655C97.3846 19.9958 97.4288 19.9207 97.4441 19.8402C97.4529 19.7941 97.4548 19.7527 97.4499 19.716C97.4472 19.6678 97.4779 19.6319 97.542 19.6083C97.576 19.5551 97.5837 19.5148 97.565 19.4874C97.5601 19.4507 97.5631 19.4036 97.5741 19.346C97.6766 19.2462 97.7265 19.1723 97.7238 19.124C97.7232 19.0643 97.7263 19.0171 97.7329 18.9826C97.7849 18.8971 97.8017 18.8406 97.783 18.8132C97.7644 18.7858 97.7584 18.7548 97.765 18.7203C97.7957 18.5591 97.8609 18.4045 97.9607 18.2565C98.0605 18.1086 98.1258 17.954 98.1565 17.7928C98.1675 17.7353 98.1647 17.687 98.1483 17.6481C98.1434 17.6114 98.1395 17.5689 98.1368 17.5206C98.1423 17.3666 98.1541 17.2734 98.1722 17.2411C98.204 17.1994 98.2243 17.1556 98.2331 17.1095C98.2621 17.0196 98.2843 16.9344 98.2997 16.8538C98.3172 16.7617 98.3348 16.6696 98.3524 16.5775C98.4324 16.2826 98.5035 16.0039 98.5654 15.7413C98.6411 15.4694 98.6557 15.174 98.6091 14.8549C98.6777 14.8083 98.7188 14.7804 98.7325 14.7711C98.7577 14.7639 98.7838 14.7212 98.8106 14.6428C98.8282 14.5507 98.8353 14.4507 98.832 14.3427C98.8288 14.2347 98.8647 14.1401 98.9398 14.059C98.9508 14.0014 98.9423 13.9521 98.9143 13.911C98.8979 13.8721 98.8883 13.8285 98.8856 13.7802C98.9234 13.6443 98.9865 13.5012 99.0748 13.351C99.0627 13.2891 99.0553 13.234 99.0526 13.1858C99.0635 13.1282 99.0493 13.0778 99.0098 13.0345C99.165 12.6584 99.2936 12.2654 99.3956 11.8554C99.4445 11.6619 99.4818 11.4662 99.5076 11.2683C99.5355 11.0589 99.5797 10.8585 99.64 10.6672C99.6466 10.6327 99.6669 10.5888 99.7009 10.5357C99.7464 10.4847 99.7886 10.451 99.8275 10.4346C99.7738 10.3408 99.756 10.2778 99.7741 10.2454C99.8059 10.2038 99.8248 10.1358 99.8309 10.0415C99.8643 9.92859 99.8728 9.85267 99.8564 9.81374C99.8515 9.77701 99.8476 9.73453 99.8449 9.68629C99.8422 9.63805 99.8452 9.59091 99.854 9.54486C99.8765 9.4895 99.9115 9.43057 99.9592 9.36809C99.9467 9.24639 99.939 9.16142 99.9363 9.11318C99.945 9.06713 99.9563 9.03945 99.97 9.03014C99.9974 9.0115 100.024 8.99862 100.049 8.9915C100.076 8.97287 100.102 8.93011 100.127 8.86324C100.22 8.94054 100.316 8.96495 100.417 8.93646C100.532 8.89865 100.647 8.89072 100.762 8.91266C100.865 8.93241 100.96 8.96833 101.046 9.02042C101.131 9.07251 101.234 9.09801 101.353 9.09693C101.358 9.13366 101.405 9.20219 101.493 9.30252C101.593 9.40504 101.657 9.47111 101.688 9.50071C101.687 9.63173 101.721 9.76357 101.791 9.89624C101.873 10.0311 101.934 10.1501 101.974 10.2531C101.99 10.2921 102.009 10.3195 102.03 10.3354C102.062 10.3535 102.087 10.3762 102.106 10.4036C102.093 10.4727 102.082 10.5302 102.073 10.5763C102.076 10.6245 102.089 10.6807 102.113 10.7449C102.162 10.8616 102.198 10.9222 102.221 10.9266C102.244 10.931 102.265 10.9469 102.284 10.9743C102.3 11.0132 102.3 11.0431 102.284 11.0639C102.28 11.087 102.302 11.127 102.351 11.184C102.4 11.241 102.443 11.3268 102.481 11.4414C102.532 11.5466 102.576 11.6324 102.611 11.6988C102.646 11.7651 102.668 11.8051 102.677 11.8188C102.7 11.8232 102.704 11.8657 102.689 11.9463C102.68 11.9923 102.692 12.0244 102.724 12.0425C102.768 12.0628 102.798 12.0924 102.815 12.1313C102.822 12.2163 102.841 12.2736 102.871 12.3032C102.913 12.335 102.941 12.3761 102.955 12.4265C102.974 12.4539 102.973 12.4896 102.953 12.5334C102.935 12.5658 102.935 12.5956 102.954 12.623C103.021 12.7075 103.048 12.7543 103.034 12.7637C103.02 12.773 103.011 12.7892 103.007 12.8122C102.989 12.8445 103.003 12.895 103.05 12.9635C103.108 13.0342 103.153 13.0786 103.185 13.0967C103.19 13.1334 103.188 13.1748 103.18 13.2209C103.184 13.2576 103.195 13.2954 103.212 13.3343C103.247 13.4007 103.272 13.4234 103.288 13.4026C103.318 13.3725 103.32 13.4207 103.296 13.5473C103.294 13.5588 103.306 13.5909 103.332 13.6435C103.369 13.6984 103.405 13.7589 103.44 13.8253C103.475 13.8916 103.511 13.9522 103.549 14.007C103.586 14.0618 103.609 14.0961 103.619 14.1098C103.583 14.2342 103.606 14.334 103.687 14.4091C103.779 14.4864 103.858 14.573 103.923 14.669C103.961 14.7238 103.98 14.7811 103.98 14.8409C103.994 14.8913 104.034 14.9346 104.099 14.9708C104.137 15.2049 104.157 15.4173 104.156 15.6081C104.247 15.6969 104.31 15.8043 104.345 15.9304C104.383 16.045 104.46 16.1431 104.575 16.2248C104.548 16.3032 104.55 16.3871 104.581 16.4764C104.625 16.5565 104.612 16.6255 104.542 16.6836C104.554 16.7456 104.582 16.7867 104.625 16.807C104.683 16.818 104.726 16.844 104.754 16.8851C104.772 16.9125 104.788 16.9572 104.8 17.0192C104.814 17.0696 104.834 17.1211 104.86 17.1738C104.888 17.2149 104.927 17.2881 104.979 17.3933C105.014 17.4597 105.03 17.5342 105.026 17.617C105.036 17.6904 105.07 17.7625 105.128 17.8333C105.08 17.8957 105.061 17.9637 105.071 18.0372C105.094 18.1013 105.124 18.1665 105.159 18.2329C105.235 18.2713 105.329 18.2474 105.441 18.1614C105.555 18.0638 105.62 17.9748 105.635 17.8942C105.766 17.8953 105.863 17.8542 105.927 17.7709C105.993 17.676 106.043 17.5664 106.079 17.442C106.342 17.3132 106.502 17.1348 106.557 16.9068C106.741 16.6913 106.891 16.4992 107.007 16.3304C107.122 16.1616 107.259 16.0087 107.416 15.8716C107.411 15.7752 107.434 15.714 107.487 15.6883C107.551 15.6647 107.586 15.6058 107.592 15.5115C107.712 15.5104 107.798 15.4671 107.85 15.3816C107.902 15.2961 107.977 15.2449 108.076 15.2279C108.064 15.1659 108.074 15.1141 108.106 15.0725C108.151 15.0215 108.195 14.9763 108.239 14.9368L108.289 14.7674C108.279 14.694 108.302 14.6685 108.357 14.691C108.413 14.7135 108.455 14.7096 108.485 14.6795C108.585 14.5912 108.659 14.486 108.706 14.3638C108.765 14.2437 108.812 14.1215 108.847 13.9971C108.87 13.9417 108.893 13.9162 108.916 13.9206C108.952 13.9157 108.987 13.8924 109.018 13.8507C109.089 13.7329 109.157 13.6265 109.222 13.5317C109.3 13.4391 109.393 13.3555 109.503 13.2809C109.537 13.2278 109.544 13.1875 109.526 13.1601C109.507 13.1327 109.502 13.0959 109.511 13.0499C109.531 13.006 109.561 12.9759 109.6 12.9595C109.639 12.943 109.649 12.8912 109.629 12.8041C109.702 12.7344 109.773 12.6763 109.842 12.6298C109.922 12.5854 109.983 12.5136 110.026 12.4143C110.122 12.4089 110.184 12.367 110.211 12.2886C110.249 12.2124 110.306 12.1636 110.382 12.1422C110.384 12.071 110.388 12.0181 110.394 11.9835C110.415 11.9397 110.436 11.8901 110.458 11.8347C110.568 11.7602 110.62 11.7045 110.616 11.6678C110.613 11.6196 110.627 11.5746 110.659 11.533C110.723 11.5094 110.776 11.4836 110.817 11.4557C110.86 11.4162 110.918 11.3973 110.989 11.399C111.011 11.3436 111.018 11.3091 111.009 11.2954C111.002 11.2702 111.015 11.231 111.049 11.1778C111.145 11.1723 111.216 11.1441 111.262 11.0931C111.321 11.0328 111.408 11.0137 111.523 11.0356C111.551 11.017 111.569 10.9846 111.578 10.9386C111.598 10.8947 111.611 10.8555 111.618 10.821C111.68 10.809 111.734 10.8073 111.78 10.8161C111.838 10.8271 111.895 10.838 111.953 10.849C112.095 10.8523 112.219 10.8937 112.323 10.9732C112.438 11.0549 112.577 11.1111 112.738 11.1419C112.732 11.2361 112.734 11.32 112.744 11.3935C112.765 11.4691 112.781 11.5437 112.79 11.6171C112.804 11.7986 112.806 11.9422 112.798 12.048C112.79 12.1538 112.834 12.2936 112.933 12.4674L112.879 12.654C112.907 12.6951 112.917 12.7387 112.908 12.7848C112.911 12.833 112.939 12.8741 112.992 12.9081C112.917 12.9892 112.889 13.0734 112.908 13.1605C112.939 13.2499 112.957 13.3428 112.962 13.4393L112.829 13.575C112.841 13.6369 112.839 13.7082 112.824 13.7888C112.82 13.8715 112.85 13.931 112.915 13.9672C112.817 14.0439 112.783 14.127 112.814 14.2163C112.847 14.2942 112.854 14.3791 112.837 14.4712C112.821 14.4921 112.804 14.5186 112.786 14.551C112.77 14.5718 112.759 14.5995 112.752 14.634C112.748 14.6571 112.752 14.6995 112.764 14.7615C112.776 14.8234 112.776 14.8832 112.765 14.9407C112.758 15.166 112.741 15.3478 112.715 15.4859C112.7 15.6262 112.68 15.7655 112.653 15.9036C112.642 15.9612 112.652 16.0047 112.682 16.0344C112.712 16.064 112.742 16.0936 112.773 16.1232C112.777 16.1599 112.76 16.1865 112.722 16.2029C112.696 16.21 112.684 16.2435 112.685 16.3032C112.703 16.3306 112.709 16.3616 112.703 16.3962C112.708 16.4329 112.733 16.4556 112.779 16.4644C112.684 16.6491 112.643 16.8322 112.657 17.0137C112.672 17.1836 112.657 17.3538 112.613 17.5243C112.595 17.5566 112.572 17.5821 112.545 17.6008C112.519 17.6079 112.498 17.6276 112.48 17.66C112.473 17.6945 112.472 17.7301 112.477 17.7668C112.484 17.7921 112.486 17.8162 112.481 17.8392C112.475 17.8737 112.457 17.9061 112.427 17.9362C112.411 17.9571 112.401 17.979 112.397 18.002C112.386 18.0596 112.407 18.1053 112.46 18.1393C112.513 18.1733 112.531 18.2065 112.512 18.2388C112.508 18.2619 112.477 18.2978 112.42 18.3465C112.363 18.3953 112.38 18.4342 112.47 18.4633C112.406 18.4869 112.373 18.5343 112.371 18.6055C112.381 18.679 112.361 18.7229 112.31 18.7371C112.342 19.0057 112.288 19.228 112.147 19.4039C112.159 19.4659 112.166 19.5267 112.166 19.5865C112.178 19.6484 112.219 19.686 112.288 19.6992C112.244 19.7386 112.202 19.7723 112.161 19.8003C112.12 19.8282 112.078 19.8619 112.034 19.9014C112 19.9546 112.005 19.9913 112.049 20.0116C112.095 20.0204 112.114 20.0478 112.105 20.0938C112.081 20.2204 112.055 20.2931 112.028 20.3117C112.014 20.321 112.005 20.3372 112.001 20.3602C111.992 20.4063 111.989 20.4534 111.992 20.5016C112.006 20.5521 112.014 20.6014 112.017 20.6497C112.022 20.6864 112.014 20.7267 111.994 20.7705C111.974 20.8144 111.932 20.8481 111.867 20.8717C111.843 20.9385 111.841 21.0098 111.862 21.0854C111.886 21.1496 111.884 21.2208 111.857 21.2992C111.851 21.3338 111.837 21.373 111.817 21.4168C111.811 21.4513 111.804 21.4859 111.797 21.5204C111.793 21.5434 111.779 21.5884 111.754 21.6553C111.741 21.7243 111.726 21.7992 111.711 21.8797C111.698 21.9488 111.685 22.0179 111.672 22.0869C111.672 22.1467 111.677 22.1834 111.686 22.1971C111.698 22.2591 111.737 22.338 111.802 22.434C111.881 22.5206 111.904 22.5905 111.87 22.6436Z" fill="white"/>
<path d="M131.583 16.3448C131.535 16.3421 131.492 16.3596 131.456 16.3974C131.434 16.4275 131.396 16.4339 131.34 16.4165C131.311 16.4689 131.316 16.5133 131.353 16.5496C131.406 16.5782 131.425 16.6149 131.411 16.6596C131.39 16.7268 131.341 16.7667 131.264 16.7794C131.201 16.7844 131.153 16.8187 131.121 16.8824C131.016 16.8252 130.936 16.8065 130.881 16.8261C130.837 16.8493 130.769 16.871 130.677 16.8914C130.613 16.8594 130.55 16.8458 130.487 16.8508C130.427 16.8446 130.364 16.8311 130.297 16.8102C130.252 16.7963 130.208 16.8009 130.164 16.8241C130.12 16.8472 130.074 16.8574 130.025 16.8547C129.929 16.8492 129.832 16.8253 129.735 16.7828C129.649 16.7437 129.554 16.7327 129.451 16.7496C129.446 16.6867 129.412 16.6578 129.349 16.6627C129.289 16.6565 129.237 16.6465 129.192 16.6326C129.136 16.6152 129.09 16.5883 129.052 16.552C129.017 16.5046 128.967 16.4704 128.9 16.4495C128.81 16.4217 128.71 16.4089 128.599 16.4112C128.499 16.4169 128.404 16.4059 128.314 16.378C128.225 16.3502 128.143 16.3185 128.068 16.283C128.008 16.2397 127.933 16.2042 127.843 16.1764C127.776 16.1555 127.724 16.164 127.688 16.2018C127.655 16.2284 127.607 16.2442 127.544 16.2492C127.367 16.1082 127.148 16.0033 126.887 15.9345C126.63 15.8545 126.392 15.8297 126.174 15.8601C126.027 15.7408 125.855 15.6627 125.658 15.626C125.461 15.5892 125.281 15.515 125.12 15.4034C125.002 15.4281 124.872 15.4122 124.73 15.3558C124.599 15.3029 124.497 15.2345 124.425 15.1507C124.325 15.1565 124.225 15.1437 124.124 15.1124C124.027 15.0699 123.934 15.0347 123.844 15.0069C123.752 15.0273 123.705 15.0802 123.703 15.1654C123.715 15.243 123.713 15.3098 123.696 15.3657C123.685 15.3993 123.664 15.4294 123.631 15.456C123.609 15.4861 123.593 15.5179 123.583 15.5515C123.565 15.6075 123.561 15.6613 123.569 15.713C123.578 15.7647 123.579 15.8203 123.573 15.8798C123.533 16.1252 123.479 16.3598 123.409 16.5836C123.334 16.7075 123.302 16.7897 123.314 16.8302C123.341 16.863 123.349 16.8962 123.338 16.9298C123.328 16.9633 123.312 16.9952 123.29 17.0253C123.269 17.0554 123.251 17.0928 123.237 17.1376C123.227 17.1711 123.222 17.2064 123.222 17.2435C123.227 17.2694 123.224 17.2991 123.213 17.3326C123.203 17.3662 123.177 17.389 123.137 17.4009C123.107 17.4163 123.086 17.4464 123.072 17.4912C123.058 17.536 123.05 17.5825 123.047 17.6307C123.055 17.6824 123.051 17.7363 123.033 17.7922C123.02 17.837 122.996 17.8727 122.963 17.8993C122.942 17.9294 122.924 17.9668 122.91 18.0116C122.903 18.0339 122.899 18.1063 122.898 18.2286C122.908 18.3545 122.911 18.423 122.908 18.4342C123.093 18.4304 123.268 18.4787 123.433 18.5791C123.602 18.6683 123.77 18.7391 123.938 18.7912C124.016 18.8156 124.092 18.827 124.166 18.8255C124.244 18.8128 124.326 18.8259 124.412 18.865C124.557 18.9102 124.651 18.9454 124.692 18.9705C124.737 18.9844 124.782 18.9983 124.826 19.0122C124.916 19.04 124.983 19.0424 125.027 19.0192C125.071 18.9961 125.121 18.9932 125.177 19.0106C125.21 19.0211 125.24 19.0427 125.267 19.0755C125.297 19.0971 125.334 19.1149 125.379 19.1288C125.446 19.1497 125.528 19.1443 125.623 19.1127C125.723 19.0699 125.803 19.0275 125.865 18.9855C125.889 19.0295 125.923 19.0584 125.967 19.0723C126.016 19.0751 126.056 19.0816 126.09 19.0921C126.138 19.0948 126.183 19.1087 126.224 19.1338C126.269 19.1477 126.314 19.1802 126.36 19.2311C126.374 19.2234 126.408 19.2153 126.459 19.2069C126.511 19.1984 126.555 19.1938 126.592 19.193C126.641 19.1958 126.682 19.2023 126.715 19.2128C126.76 19.2267 126.775 19.256 126.761 19.3008C126.976 19.2816 127.141 19.3023 127.258 19.363C127.377 19.4124 127.527 19.465 127.706 19.5206C127.851 19.5659 127.998 19.587 128.146 19.5839C128.305 19.5844 128.458 19.6072 128.603 19.6525C128.659 19.6698 128.706 19.6782 128.743 19.6774C128.791 19.6801 128.838 19.6885 128.882 19.7024C128.999 19.8001 129.067 19.8395 129.085 19.8206C129.114 19.8051 129.151 19.8044 129.196 19.8183C129.274 19.8426 129.348 19.9023 129.417 19.9973C129.5 20.0845 129.651 20.15 129.871 20.1937C129.884 20.2713 129.918 20.3373 129.975 20.3918C129.936 20.4778 129.923 20.5596 129.936 20.6372C129.948 20.7148 129.972 20.7958 130.007 20.8804C129.979 20.9328 129.952 20.9797 129.927 21.021C129.902 21.0623 129.91 21.114 129.952 21.1762C129.898 21.2329 129.836 21.2749 129.766 21.3023C129.696 21.3297 129.634 21.3717 129.579 21.4284C129.497 21.3782 129.422 21.3612 129.356 21.3774C129.289 21.3935 129.219 21.4024 129.145 21.4039C129.06 21.4019 128.98 21.3832 128.905 21.3476C128.833 21.3009 128.761 21.2968 128.688 21.3354C128.66 21.2655 128.608 21.2369 128.53 21.2496C128.467 21.2546 128.408 21.2484 128.352 21.231C128.213 21.1634 128.128 21.1429 128.095 21.1695C128.066 21.185 128.029 21.1857 127.984 21.1718C127.99 21.1124 127.958 21.0778 127.887 21.0681C127.828 21.0619 127.794 21.033 127.785 20.9812C127.72 21.0345 127.646 21.036 127.563 20.9858C127.481 20.9356 127.411 20.9018 127.355 20.8844C127.21 20.8392 127.06 20.8292 126.904 20.8546C126.764 20.8723 126.637 20.8082 126.522 20.6623C126.464 20.6931 126.401 20.6981 126.334 20.6772C126.278 20.6598 126.229 20.6386 126.188 20.6135C126.146 20.5884 126.098 20.5671 126.042 20.5497C125.952 20.5219 125.869 20.5144 125.791 20.5271C125.717 20.5286 125.641 20.5171 125.563 20.4928C125.462 20.4615 125.391 20.4148 125.348 20.3526C125.208 20.3703 125.054 20.353 124.886 20.3009C124.733 20.241 124.59 20.2272 124.457 20.2596C124.338 20.2472 124.258 20.2099 124.216 20.1477C123.986 20.1746 123.756 20.146 123.524 20.0617C123.304 19.981 123.075 19.9467 122.839 19.959C122.775 19.9269 122.731 19.8889 122.708 19.8449C122.689 19.7897 122.633 19.7723 122.54 19.7927C122.395 19.9439 122.268 20.1374 122.158 20.3731C122.062 20.6012 122.03 20.8242 122.06 21.0423C122.024 21.0801 121.982 21.1162 121.934 21.1505C121.89 21.1736 121.85 21.2041 121.814 21.2419C121.779 21.3538 121.781 21.4465 121.82 21.5198C121.809 21.5534 121.787 21.5835 121.755 21.6101C121.725 21.6255 121.7 21.6483 121.678 21.6784C121.653 21.7196 121.639 21.7644 121.636 21.8126C121.634 21.8609 121.625 21.9074 121.611 21.9521C121.587 22.0305 121.552 22.1053 121.505 22.1767C121.462 22.2369 121.426 22.3118 121.398 22.4013C121.381 22.4572 121.376 22.5111 121.385 22.5628C121.397 22.6033 121.394 22.6516 121.377 22.7075C121.359 22.7635 121.326 22.7901 121.278 22.7874C121.241 22.7881 121.212 22.8035 121.19 22.8336C121.162 22.8861 121.153 22.9326 121.165 22.9731C121.177 23.0137 121.148 23.0476 121.078 23.075C121.118 23.2224 121.112 23.3801 121.06 23.5479C121.023 23.7081 121.037 23.8598 121.103 24.003C121.03 24.0786 120.986 24.1814 120.97 24.3115C120.969 24.4338 120.96 24.5415 120.943 24.6345C120.996 24.6631 121.048 24.6731 121.1 24.6647C121.163 24.6597 121.22 24.6715 121.273 24.7001C121.337 24.7692 121.409 24.8159 121.487 24.8402C121.576 24.8681 121.662 24.8886 121.744 24.9017C121.829 24.9037 121.911 24.9169 121.989 24.9412C122.071 24.9544 122.144 24.9955 122.209 25.0646C122.249 25.0527 122.325 25.0641 122.437 25.0989C122.549 25.1337 122.68 25.1681 122.829 25.2021C122.989 25.2396 123.151 25.2715 123.314 25.2978C123.481 25.313 123.631 25.3043 123.764 25.272C123.805 25.2971 123.834 25.3243 123.849 25.3537C123.876 25.3865 123.902 25.4193 123.929 25.4521C124.073 25.4232 124.21 25.4353 124.341 25.4882C124.475 25.5299 124.608 25.5587 124.738 25.5746C124.735 25.6229 124.749 25.6578 124.779 25.6794C124.82 25.7045 124.856 25.7279 124.886 25.7495C125.06 25.7423 125.216 25.7724 125.355 25.84C125.508 25.8999 125.668 25.9374 125.835 25.9526C125.932 25.958 126.02 25.9488 126.101 25.9249C126.197 25.8933 126.293 25.8802 126.39 25.8857C126.451 25.966 126.531 26.0218 126.632 26.0531C126.748 26.0767 126.865 26.0947 126.984 26.1071C127.102 26.1195 127.223 26.1448 127.347 26.1831C127.473 26.2102 127.587 26.2764 127.69 26.3818L127.638 26.5497C127.68 26.6118 127.722 26.674 127.764 26.7361C127.809 26.7871 127.846 26.8475 127.873 26.9174C127.86 26.9992 127.806 27.0744 127.711 27.1431C127.704 27.1655 127.704 27.184 127.712 27.1986C127.734 27.2056 127.755 27.2182 127.774 27.2363C127.804 27.2579 127.823 27.2761 127.831 27.2907C127.838 27.3054 127.83 27.3334 127.804 27.3747C127.802 27.4229 127.758 27.4646 127.674 27.4997C127.593 27.5236 127.502 27.5384 127.402 27.5441C127.302 27.5499 127.198 27.5483 127.091 27.5393C126.983 27.5304 126.905 27.5061 126.856 27.4663C126.671 27.5071 126.481 27.5277 126.284 27.528C126.102 27.5206 125.916 27.4873 125.726 27.4281C125.67 27.4108 125.61 27.386 125.547 27.354C125.494 27.3254 125.434 27.3007 125.367 27.2798C125.2 27.2647 125.079 27.2393 125.004 27.2038C124.933 27.1571 124.849 27.1495 124.754 27.1811C124.705 27.1413 124.65 27.0998 124.59 27.0566C124.53 27.0133 124.466 26.9812 124.399 26.9604C124.247 26.9375 124.164 26.9058 124.152 26.8653C124.152 26.8283 124.131 26.7972 124.089 26.7721C123.964 26.7821 123.824 26.7571 123.671 26.6972C123.532 26.6296 123.41 26.6099 123.303 26.638C123.247 26.6206 123.209 26.6028 123.19 26.5847C123.183 26.57 123.175 26.5553 123.167 26.5407C123.16 26.526 123.143 26.5208 123.117 26.525C123.091 26.5293 123.03 26.5472 122.935 26.5788C122.871 26.5467 122.787 26.5206 122.683 26.5005C122.579 26.4804 122.505 26.4393 122.463 26.3771C122.397 26.3933 122.327 26.4021 122.253 26.4036C122.19 26.4086 122.123 26.4248 122.053 26.4522C121.991 26.4572 121.951 26.445 121.936 26.4157C121.932 26.3898 121.907 26.3699 121.862 26.356C121.818 26.3421 121.775 26.3411 121.735 26.353C121.705 26.3685 121.674 26.371 121.64 26.3605C121.607 26.3501 121.575 26.3341 121.545 26.3124C121.515 26.2908 121.483 26.2748 121.449 26.2643C121.382 26.2435 121.317 26.2355 121.254 26.2405C121.188 26.2567 121.121 26.2543 121.054 26.2335C120.818 26.1234 120.617 26.0793 120.451 26.1012C120.281 26.1343 120.112 26.1248 119.944 26.0726C119.855 26.0448 119.785 25.9925 119.735 25.9156C119.685 25.8388 119.601 25.7942 119.482 25.7818C119.514 25.7181 119.517 25.6699 119.49 25.6371C119.46 25.6154 119.438 25.59 119.422 25.5606C119.414 25.5089 119.416 25.4607 119.43 25.4159C119.448 25.3599 119.452 25.3061 119.444 25.2544C119.435 25.1656 119.403 25.0884 119.35 25.0228C119.311 24.9494 119.286 24.874 119.273 24.7964C119.268 24.7335 119.269 24.6908 119.276 24.6685C119.298 24.6384 119.295 24.5884 119.268 24.5185C119.251 24.4521 119.261 24.4 119.298 24.3622C119.334 24.3244 119.311 24.2804 119.228 24.2302C119.346 24.1685 119.41 24.0597 119.422 23.9038C119.433 23.7479 119.457 23.614 119.491 23.5021C119.512 23.4349 119.543 23.3769 119.582 23.3279C119.637 23.2711 119.676 23.2036 119.701 23.1253C119.711 23.0917 119.703 23.0585 119.676 23.0257C119.664 22.9852 119.665 22.9425 119.679 22.8978C119.729 22.7782 119.737 22.7131 119.703 22.7027C119.769 22.6495 119.826 22.563 119.876 22.4434C119.925 22.3238 119.964 22.2192 119.992 22.1297C120.019 22.0402 120.031 21.9454 120.025 21.8455C120.019 21.7455 120.03 21.6508 120.058 21.5613C120.093 21.4494 120.137 21.3465 120.191 21.2528C120.255 21.1625 120.305 21.0614 120.34 20.9495C120.324 20.8831 120.332 20.8366 120.365 20.81C120.398 20.7834 120.421 20.7477 120.435 20.7029C120.453 20.647 120.464 20.5707 120.469 20.4743C120.49 20.3701 120.492 20.2848 120.475 20.2184C120.57 20.1497 120.637 20.0539 120.675 19.9308C120.717 19.7965 120.796 19.6985 120.914 19.6368C120.963 19.5172 120.998 19.3867 121.017 19.2455C121.04 19.0931 121.104 18.9657 121.209 18.8635C121.186 18.7824 121.186 18.7028 121.21 18.6244C121.238 18.5349 121.264 18.451 121.288 18.3726C121.327 18.2866 121.353 18.2027 121.367 18.1208C121.394 18.0313 121.396 17.946 121.373 17.865C121.442 17.8376 121.49 17.7847 121.514 17.7064C121.553 17.6204 121.577 17.5235 121.586 17.4158C121.595 17.3082 121.602 17.2061 121.607 17.1096C121.616 17.0019 121.631 16.9145 121.652 16.8474C121.688 16.8096 121.704 16.7777 121.7 16.7519C121.699 16.7148 121.702 16.6851 121.709 16.6627C121.737 16.5732 121.767 16.4966 121.799 16.433C121.846 16.3616 121.882 16.2867 121.906 16.2084C121.927 16.1412 121.936 16.0706 121.935 15.9965C121.933 15.9224 121.943 15.8518 121.964 15.7847C122.016 15.6168 122.098 15.452 122.21 15.2904C122.336 15.121 122.38 14.9385 122.343 14.7428C122.382 14.6568 122.453 14.5867 122.556 14.5328C122.559 14.3251 122.599 14.1167 122.676 13.9076C122.754 13.6984 122.839 13.504 122.931 13.3242C122.961 13.3087 122.999 13.3024 123.048 13.3051C123.099 13.2967 123.142 13.2791 123.174 13.2525C123.207 13.2259 123.275 13.2041 123.379 13.1872C123.493 13.1737 123.568 13.1722 123.601 13.1826C123.705 13.2028 123.782 13.2327 123.831 13.2725C123.895 13.3045 123.955 13.3478 124.011 13.4022C124.079 13.4602 124.134 13.5202 124.176 13.5824C124.23 13.648 124.271 13.6916 124.301 13.7132C124.443 13.7326 124.555 13.7859 124.638 13.8732C124.736 13.9527 124.847 14.0116 124.97 14.0499C125.059 14.0777 125.151 14.1 125.244 14.1166C125.34 14.122 125.419 14.1649 125.48 14.2452C125.713 14.2071 125.939 14.2284 126.159 14.3092C126.38 14.39 126.596 14.4634 126.809 14.5295C126.865 14.5469 126.913 14.5496 126.954 14.5377C127.005 14.5292 127.057 14.5207 127.109 14.5123C127.202 14.5659 127.3 14.6084 127.4 14.6397C127.501 14.6711 127.602 14.7024 127.703 14.7337C127.863 14.8082 127.981 14.8448 128.055 14.8432C128.14 14.8452 128.228 14.8601 128.317 14.8879C128.373 14.9053 128.415 14.9304 128.441 14.9632C128.479 14.9995 128.526 15.0264 128.582 15.0438C128.705 15.082 128.831 15.1091 128.961 15.125C129.103 15.1444 129.235 15.1732 129.358 15.2114C129.449 15.154 129.557 15.1444 129.68 15.1826C129.806 15.2097 129.923 15.2092 130.03 15.1811C130.169 15.2857 130.321 15.3697 130.486 15.4331C130.665 15.4888 130.846 15.4962 131.031 15.4553C131.069 15.4916 131.108 15.5223 131.15 15.5474C131.202 15.576 131.225 15.62 131.219 15.6795C131.338 15.6919 131.413 15.7274 131.444 15.7861C131.489 15.837 131.555 15.882 131.641 15.9211C131.631 15.9917 131.616 16.0606 131.595 16.1277C131.585 16.1983 131.581 16.2707 131.583 16.3448Z" fill="white"/>
<path d="M137.14 28.4003C137.074 28.3111 136.998 28.2808 136.911 28.3091C136.829 28.3266 136.744 28.318 136.657 28.2832C136.591 28.2572 136.543 28.2191 136.513 28.1691C136.487 28.1082 136.433 28.068 136.353 28.0485C136.379 27.9832 136.38 27.9331 136.356 27.8983C136.347 27.857 136.323 27.8222 136.284 27.7939C136.249 27.7548 136.214 27.7157 136.18 27.6765C136.156 27.6417 136.149 27.5949 136.16 27.5362C136.168 27.4513 136.191 27.3784 136.228 27.3174C136.269 27.2456 136.294 27.1672 136.303 27.0823C136.318 26.9496 136.316 26.8288 136.296 26.72C136.281 26.6003 136.35 26.4893 136.505 26.3869C136.492 26.2302 136.521 26.0779 136.593 25.9298C136.679 25.7752 136.718 25.6142 136.71 25.4466C136.742 25.3965 136.773 25.3519 136.801 25.3127C136.829 25.2735 136.86 25.2289 136.892 25.1788C136.892 25.0526 136.912 24.9089 136.951 24.7479C137.005 24.5803 137.047 24.4268 137.077 24.2875C137.097 24.207 137.128 24.1754 137.172 24.1928C137.22 24.1992 137.246 24.1655 137.25 24.0915C137.298 24.0349 137.3 23.9979 137.257 23.9805C137.217 23.9523 137.209 23.9109 137.23 23.8565C137.243 23.8238 137.26 23.7988 137.279 23.7814C137.314 23.7574 137.336 23.7345 137.345 23.7128C137.358 23.6801 137.363 23.6507 137.361 23.6246C137.363 23.5876 137.371 23.5528 137.384 23.5202C137.392 23.4984 137.41 23.4864 137.436 23.4842C137.473 23.4863 137.509 23.4439 137.543 23.3568C137.561 23.3133 137.579 23.2512 137.599 23.1707C137.623 23.0793 137.646 22.9879 137.67 22.8964C137.709 22.7985 137.747 22.719 137.784 22.6581C137.826 22.5862 137.869 22.5405 137.915 22.5208C137.906 22.4795 137.897 22.4382 137.889 22.3968C137.895 22.3489 137.894 22.3043 137.885 22.263C137.92 22.239 137.953 22.1889 137.983 22.1128C138.018 22.0257 138.067 21.9506 138.13 21.8874C138.197 21.8134 138.254 21.735 138.299 21.6522C138.327 21.613 138.343 21.5749 138.345 21.5379C138.362 21.4944 138.379 21.4509 138.397 21.4073C138.419 21.3529 138.449 21.3083 138.488 21.2734C138.538 21.2429 138.57 21.2113 138.583 21.1787C138.611 21.0764 138.624 21.0122 138.622 20.9861C138.624 20.9491 138.629 20.9197 138.638 20.8979C138.655 20.8544 138.681 20.8206 138.716 20.7966C138.762 20.777 138.793 20.7454 138.811 20.7019C138.819 20.6801 138.823 20.6562 138.821 20.6301C138.823 20.5931 138.83 20.5583 138.843 20.5256C138.878 20.4385 138.919 20.3667 138.967 20.3101C139.019 20.2426 139.061 20.1707 139.091 20.0945C139.117 20.0292 139.122 19.9683 139.107 19.9117C139.107 19.8486 139.118 19.7898 139.14 19.7354C139.157 19.6919 139.172 19.6538 139.185 19.6211C139.209 19.5928 139.23 19.5569 139.247 19.5134C139.367 19.498 139.518 19.5142 139.701 19.5619C139.884 19.6096 140.019 19.6824 140.106 19.7803C140.084 19.8347 140.061 19.9076 140.037 19.999C140.025 20.0948 140.078 20.135 140.198 20.1196C140.172 20.2481 140.156 20.3808 140.152 20.5179C140.159 20.6594 140.136 20.7954 140.084 20.926C140.049 21.0131 139.995 21.086 139.921 21.1448C139.862 21.1971 139.816 21.2668 139.781 21.3539C139.759 21.4083 139.745 21.4594 139.739 21.5073C139.732 21.5552 139.718 21.6064 139.696 21.6608C139.679 21.7043 139.653 21.7381 139.618 21.762C139.588 21.7751 139.564 21.8034 139.546 21.847C139.501 21.9928 139.459 22.0647 139.422 22.0625C139.42 22.1626 139.398 22.2671 139.354 22.3759C139.311 22.4848 139.267 22.5936 139.224 22.7025C139.18 22.8113 139.15 22.9191 139.133 23.0257C139.115 23.1324 139.126 23.2314 139.166 23.3227C139.12 23.4055 139.059 23.4632 138.983 23.4959C138.922 23.522 138.879 23.5678 138.853 23.6331C138.822 23.7093 138.81 23.7865 138.817 23.8649C138.828 23.9323 138.818 24.0042 138.788 24.0803C138.762 24.1456 138.725 24.2066 138.677 24.2632C138.64 24.3242 138.608 24.3873 138.582 24.4526C138.509 24.6377 138.438 24.8303 138.371 25.0306C138.303 25.2309 138.249 25.43 138.208 25.6281C138.197 25.6868 138.192 25.7478 138.192 25.8109C138.196 25.8631 138.188 25.9164 138.166 25.9709C138.144 26.0253 138.114 26.0699 138.075 26.1048C138.051 26.1331 138.028 26.1744 138.006 26.2289C137.945 26.3812 137.914 26.539 137.912 26.7023C137.921 26.8698 137.884 27.0254 137.801 27.1691C137.812 27.2366 137.825 27.2986 137.841 27.3552C137.867 27.4161 137.891 27.4824 137.913 27.5542C137.822 27.7828 137.708 27.9396 137.574 28.0245C137.45 28.1139 137.305 28.2391 137.14 28.4003ZM136.783 30.7182C136.617 30.7532 136.519 30.8588 136.486 31.0351C136.432 31.0134 136.382 31.0123 136.336 31.032C136.305 31.045 136.264 31.0538 136.212 31.0582C136.123 31.1235 136.022 31.1715 135.908 31.2021C135.8 31.2218 135.695 31.2621 135.595 31.3231C135.547 31.2535 135.488 31.2111 135.419 31.196C135.356 31.196 135.296 31.1721 135.239 31.1243C135.169 30.9829 135.134 30.8992 135.131 30.8731C135.133 30.8361 135.133 30.8045 135.131 30.7784C135.133 30.7414 135.125 30.7001 135.105 30.6544C135.085 30.6087 135.05 30.538 135 30.4423C135.005 30.3052 135.045 30.1888 135.121 30.0929C135.201 29.9862 135.282 29.8795 135.362 29.7728C135.501 29.7401 135.638 29.6812 135.773 29.5962C135.83 29.644 135.891 29.681 135.956 29.707C136.037 29.7265 136.101 29.7711 136.149 29.8407C136.214 29.8668 136.275 29.8721 136.332 29.8569C136.403 29.835 136.467 29.835 136.521 29.8567C136.608 29.8914 136.665 29.9393 136.691 30.0002C136.732 30.0545 136.792 30.11 136.87 30.1665C136.847 30.2579 136.828 30.3515 136.815 30.4472C136.817 30.5365 136.807 30.6268 136.783 30.7182Z" fill="white"/>
</svg>
