<svg width="1200" height="1200" xmlns="http://www.w3.org/2000/svg">
 <g stroke="null">
  <title>Layer 1</title>
  <g stroke-width="0" id="svg_5" stroke="null">
   <path id="svg_6" d="m1128.34884,753.58838c-0.9,0 -1.7,-0.1 -2.6,-0.3l-1078.8,-289.5c-4.6,-1.2 -7.7,-5.5 -7.4,-10.3c0.3,-4.7 3.9,-8.6 8.5,-9.3l268.3,-38.7c1.8,-0.3 3.5,0 5.2,0.6l810.6,328.2c4.9,2 7.4,7.4 5.7,12.4c-1.4,4.2 -5.3,6.9 -9.5,6.9zm-1029.3,-296.5l874.6,234.6l-657.1,-266.1l-217.5,31.5z" stroke="null"/>
   <path id="svg_7" d="m1128.34884,753.58838c-1.5,0 -2.9,-0.3 -4.3,-1l-715.3,-342.3c-4,-1.9 -6.2,-6.2 -5.6,-10.5c0.7,-4.4 4.1,-7.8 8.5,-8.4l247.1,-35.3c2.8,-0.4 5.5,0.4 7.7,2.1l468.2,377.6c3.9,3.2 4.9,8.8 2.2,13.1c-1.9,3 -5.2,4.7 -8.5,4.7zm-681.2,-347.1l608.2,291.1l-398.1,-321.1l-210.1,30z" stroke="null"/>
   <path id="svg_8" d="m1128.34884,753.58838c-0.4,0 -0.8,0 -1.2,-0.1l-761.2,-94.1c-4.2,-0.5 -7.6,-3.6 -8.5,-7.8l-25.4,-116.9c-0.7,-3.4 0.3,-7 2.9,-9.4c2.5,-2.4 6.1,-3.3 9.5,-2.4l786.6,211c5.1,1.4 8.2,6.4 7.2,11.6c-1,4.8 -5.2,8.1 -9.9,8.1zm-752.9,-113.2l611.6,75.6l-632.1,-169.5l20.5,93.9z" stroke="null"/>
   <path id="svg_9" d="m1128.34884,753.58838c-1.3,0 -2.5,-0.2 -3.7,-0.7l-723.2,-292.8c-4.3,-1.7 -6.8,-6.2 -6.1,-10.8l7.8,-49.5c0.5,-3.1 2.4,-5.8 5.2,-7.3c2.8,-1.5 6.1,-1.5 9,-0.2l715.3,342.4c4.9,2.3 7,8.1 4.8,13.1c-1.6,3.6 -5.3,5.8 -9.1,5.8zm-712,-309.1l415.1,168.1l-410.6,-196.5l-4.5,28.4z" stroke="null"/>
  </g>
  <path stroke="#000" fill="#fff" stroke-width="null" stroke-dasharray="null" stroke-opacity="null" fill-opacity="null" opacity="NaN" d="m96.51163,457.09108l231.25135,-33.83526l673.17146,277.05709" id="svg_2"/>
  <path stroke="#000" fill="#fff" stroke-width="0" stroke-dasharray="null" stroke-opacity="null" fill-opacity="null" opacity="NaN" d="m448.06645,406.53369c0,0 213.56613,-30.953 212.88676,-31.09809c0.67937,0.1451 413.26769,334.43746 412.58831,334.29236" id="svg_10"/>
  <path stroke="#000" fill="#fff" stroke-width="null" stroke-dasharray="null" stroke-opacity="null" fill-opacity="null" opacity="undefined" d="m352.51221,544.58535l21.39376,101.9609l654.14199,76.77056" id="svg_11"/>
  <path id="svg_1" d="m414.56897,445c0,0 6.03448,-36.2069 6.03448,-36.2069c0,0 588.7931,281.89655 588.7931,281.89655" opacity="NaN" fill-opacity="null" stroke-opacity="null" stroke-dasharray="null" stroke-width="null" stroke="#000" fill="#fff"/>
 </g>

</svg>