<svg width="334" height="130" viewBox="0 0 334 130" fill="none"
    xmlns="http://www.w3.org/2000/svg"
    xmlns:xlink="http://www.w3.org/1999/xlink">
    <a href="https://redis.io/" target="_blank">
        <path d="M50.6371 117.66C47.8247 119.126 33.255 125.116 30.1531 126.733C27.0514 128.351 25.3282 128.335 22.8779 127.164C20.4276 125.992 4.92286 119.729 2.12997 118.394C0.73394 117.727 0 117.164 0 116.632V111.305C0 111.305 20.1851 106.911 23.4439 105.742C26.7025 104.573 27.8331 104.53 30.6062 105.546C33.3796 106.562 49.9613 109.554 52.7021 110.558C52.7021 110.558 52.7008 115.316 52.7008 115.809C52.7012 116.336 52.0688 116.914 50.6371 117.66Z" fill="#912626"/>
        <path d="M50.6362 112.364C47.8238 113.83 33.2546 119.82 30.1528 121.437C27.0512 123.055 25.3281 123.039 22.8778 121.867C20.4274 120.697 4.92335 114.433 2.13055 113.099C-0.662243 111.764 -0.720915 110.845 2.02268 109.771C4.76606 108.696 20.1851 102.647 23.4442 101.478C26.7027 100.309 27.8331 100.266 30.6061 101.282C33.3793 102.298 47.8617 108.063 50.6022 109.066C53.3433 110.071 53.4485 110.898 50.6362 112.364Z" fill="#C6302B"/>
        <path d="M50.6371 109.04C47.8247 110.506 33.255 116.497 30.1531 118.114C27.0514 119.731 25.3282 119.716 22.8779 118.544C20.4274 117.373 4.92286 111.11 2.12997 109.775C0.73394 109.108 0 108.545 0 108.013V102.686C0 102.686 20.1851 98.2915 23.4439 97.1223C26.7025 95.9534 27.8331 95.911 30.6062 96.9267C33.3796 97.9427 49.9613 100.934 52.7021 101.938C52.7021 101.938 52.7008 106.696 52.7008 107.19C52.7012 107.717 52.0688 108.294 50.6371 109.04Z" fill="#912626"/>
        <path d="M50.6362 103.745C47.8238 105.211 33.2546 111.201 30.1528 112.818C27.0512 114.435 25.3281 114.419 22.8778 113.248C20.4274 112.077 4.92335 105.814 2.13055 104.479C-0.662243 103.145 -0.720915 102.226 2.02268 101.151C4.76606 100.077 20.1851 94.0273 23.4442 92.8583C26.7027 91.6894 27.8331 91.647 30.6061 92.663C33.3793 93.6787 47.8617 99.4428 50.6022 100.447C53.3433 101.451 53.4485 102.279 50.6362 103.745V103.745Z" fill="#C6302B"/>
        <path d="M50.6371 100.101C47.8247 101.567 33.255 107.558 30.1531 109.176C27.0514 110.792 25.3282 110.777 22.8779 109.605C20.4274 108.434 4.92286 102.171 2.12997 100.836C0.73394 100.169 0 99.6061 0 99.0745V93.7467C0 93.7467 20.1851 89.3527 23.4439 88.1838C26.7025 87.0146 27.8331 86.9724 30.6062 87.9882C33.3796 89.0042 49.9613 91.9953 52.7021 92.9994C52.7021 92.9994 52.7008 97.7571 52.7008 98.2514C52.7012 98.7774 52.0688 99.3551 50.6371 100.101Z" fill="#912626"/>
        <path d="M50.6362 94.8057C47.8238 96.2714 33.2546 102.262 30.1528 103.879C27.0512 105.496 25.3281 105.48 22.8778 104.309C20.4276 103.138 4.92335 96.875 2.13055 95.5404C-0.662243 94.2058 -0.720915 93.2866 2.02268 92.2121C4.76606 91.1379 20.1851 85.0887 23.4442 83.9194C26.7027 82.7503 27.8331 82.7083 30.6061 83.7242C33.3793 84.7402 47.8617 90.5043 50.6022 91.5083C53.3433 92.5121 53.4485 93.3399 50.6362 94.8057Z" fill="#C6302B"/>
        <path d="M32.7912 89.6235L28.2602 90.094L27.2458 92.5346L25.6074 89.8111L20.3754 89.3408L24.2794 87.933L23.1081 85.7718L26.7631 87.2013L30.209 86.0731L29.2777 88.3078L32.7912 89.6235Z" fill="white"/>
        <path d="M26.9752 101.465L18.5187 97.9572L30.6363 96.0973L26.9752 101.465Z" fill="white"/>
        <path d="M15.251 90.98C18.828 90.98 21.7276 92.1041 21.7276 93.4905C21.7276 94.8771 18.828 96.001 15.251 96.001C11.6742 96.001 8.77435 94.8771 8.77435 93.4905C8.77435 92.1041 11.6742 90.98 15.251 90.98Z" fill="white"/>
        <path d="M38.1461 90.2906L45.3177 93.1247L38.1522 95.9559L38.1461 90.2906Z" fill="#621B1C"/>
        <path d="M30.212 93.4291L38.1461 90.2906L38.1523 95.9559L37.3744 96.2603L30.212 93.4291Z" fill="#9A2928"/>
    </a>
    <a href="https://www.rabbitmq.com/" target="_blank">
        <path d="M50.1953 18.0066H35.7969C35.3175 18.0096 34.8569 17.8205 34.5179 17.4815C34.1789 17.1426 33.9898 16.6819 33.9929 16.2025V1.8041C33.9929 1.32668 33.8024 0.868963 33.4638 0.53243C33.1251 0.195896 32.6662 0.00834314 32.1888 0.0113458H26.7993C26.3219 0.00834314 25.863 0.195896 25.5243 0.53243C25.1857 0.868963 24.9952 1.32668 24.9952 1.8041V16.2025C24.9983 16.6819 24.8092 17.1426 24.4702 17.4815C24.1312 17.8205 23.6706 18.0096 23.1912 18.0066H17.8017C17.3223 18.0096 16.8617 17.8205 16.5227 17.4815C16.1837 17.1426 15.9946 16.6819 15.9976 16.2025V1.8041C16.0007 1.32472 15.8116 0.864102 15.4726 0.525122C15.1336 0.186142 14.673 -0.00295394 14.1936 3.48997e-05H8.79277C8.31534 3.48997e-05 7.85763 0.190488 7.52109 0.529138C7.18456 0.867788 6.99701 1.32668 6.99997 1.8041V43.2067C6.99699 43.6861 7.18608 44.1467 7.52506 44.4857C7.86404 44.8246 8.32466 45.0137 8.80404 45.0107H50.1953C50.6747 45.0137 51.1353 44.8246 51.4743 44.4857C51.8133 44.1467 52.0024 43.6861 51.9994 43.2067V19.8444C52.0116 19.3592 51.8266 18.8898 51.4866 18.5435C51.1466 18.1971 50.6807 18.0034 50.1953 18.0066ZM42.9567 33.2958C42.9597 34.0124 42.6771 34.7007 42.1714 35.2086C41.6657 35.7164 40.9785 36.0018 40.2619 36.0018H36.6538C35.9372 36.0018 35.25 35.7164 34.7443 35.2086C34.2386 34.7007 33.956 34.0124 33.959 33.2958V29.699C33.956 28.9823 34.2386 28.294 34.7443 27.7862C35.25 27.2784 35.9372 26.9929 36.6538 26.9929H40.2619C40.9785 26.9929 41.6657 27.2784 42.1714 27.7862C42.6771 28.294 42.9597 28.9823 42.9567 29.699V33.2958Z" fill="#FF6600"/>
    </a>
    <a href="https://www.postgresql.org/" target="_blank">
        <path d="M226.532 27.9559C226.27 27.1615 225.583 26.6081 224.694 26.4752C224.275 26.4127 223.795 26.4393 223.227 26.5565C222.237 26.7607 221.503 26.8384 220.967 26.8535C222.99 23.4379 224.635 19.5428 225.582 15.8763C227.113 9.94773 226.295 7.24689 225.339 6.02515C222.808 2.7917 219.116 1.05453 214.662 1.00128C212.286 0.972282 210.199 1.44144 209.111 1.77872C208.098 1.60008 207.009 1.50024 205.866 1.48175C203.723 1.4476 201.83 1.91463 200.212 2.87456C199.317 2.57183 197.879 2.14491 196.22 1.87239C192.316 1.23146 189.169 1.73093 186.868 3.35675C184.081 5.32532 182.789 8.7455 183.028 13.5224C183.104 15.0391 183.952 19.6535 185.288 24.0299C186.056 26.5452 186.874 28.6341 187.721 30.2389C188.922 32.5146 190.207 33.8548 191.65 34.3359C192.459 34.6054 193.928 34.794 195.473 33.5073C195.669 33.7443 195.93 33.9801 196.277 34.1989C196.717 34.4767 197.256 34.7036 197.794 34.8381C199.732 35.3227 201.547 35.2015 203.096 34.5224C203.106 34.7978 203.113 35.061 203.12 35.2883C203.13 35.657 203.14 36.0184 203.153 36.3564C203.245 38.6423 203.401 40.4196 203.862 41.663C203.887 41.7315 203.921 41.8357 203.957 41.9462C204.187 42.65 204.571 43.8282 205.549 44.7511C206.562 45.7069 207.787 46.0001 208.908 46C209.471 46 210.008 45.9262 210.479 45.8253C212.157 45.4657 214.063 44.9176 215.442 42.9543C216.746 41.0982 217.379 38.3027 217.494 33.8977C217.509 33.7732 217.523 33.6543 217.536 33.5409C217.545 33.4644 217.554 33.3862 217.563 33.3082L217.87 33.3352L217.949 33.3405C219.659 33.4184 221.749 33.0559 223.033 32.4596C224.047 31.9889 227.298 30.2729 226.532 27.9559Z" fill="black"/>
        <path d="M223.609 28.4066C218.527 29.455 218.177 27.7341 218.177 27.7341C223.544 19.771 225.787 9.66288 223.851 7.18899C218.569 0.440676 209.427 3.63219 209.274 3.71505L209.225 3.72384C208.221 3.51538 207.097 3.3912 205.834 3.37059C203.534 3.3329 201.789 3.97352 200.466 4.97741C200.466 4.97741 184.156 -1.7416 184.914 13.4278C185.076 16.655 189.54 37.8461 194.864 31.4454C196.811 29.1049 198.691 27.1259 198.691 27.1259C199.625 27.7464 200.743 28.0628 201.915 27.9492L202.006 27.8719C201.978 28.1625 201.991 28.4467 202.043 28.7832C200.671 30.3157 201.074 30.5848 198.332 31.1493C195.557 31.7211 197.187 32.7391 198.251 33.0052C199.542 33.3278 202.526 33.7848 204.543 30.9616L204.463 31.2838C205 31.7142 205.378 34.0838 205.314 36.2318C205.251 38.38 205.209 39.8547 205.632 41.0066C206.056 42.1586 206.478 44.7504 210.083 43.978C213.095 43.3325 214.655 41.6598 214.873 38.8696C215.027 36.886 215.375 37.1792 215.397 35.4058L215.677 34.5662C216 31.8773 215.728 31.0098 217.584 31.4133L218.035 31.4529C219.401 31.515 221.188 31.2332 222.238 30.7456C224.497 29.6971 225.837 27.9466 223.609 28.4066H223.609Z" fill="#336791"/>
        <path d="M201.42 14.8711C200.962 14.8073 200.548 14.8663 200.338 15.0252C200.22 15.1146 200.183 15.2182 200.173 15.2895C200.147 15.4784 200.279 15.6871 200.361 15.7948C200.59 16.0997 200.927 16.3093 201.259 16.3554C201.307 16.3621 201.355 16.3653 201.403 16.3653C201.958 16.3653 202.462 15.9335 202.506 15.6147C202.562 15.2154 201.982 14.9493 201.42 14.8711Z" fill="white"/>
        <path d="M216.594 14.8837H216.594C216.551 14.5707 215.994 14.4815 215.465 14.555C214.937 14.6285 214.426 14.8667 214.468 15.1803C214.503 15.4243 214.943 15.8407 215.464 15.8406C215.508 15.8406 215.553 15.8376 215.598 15.8314C215.946 15.7832 216.201 15.5622 216.322 15.4348C216.507 15.2408 216.614 15.0243 216.594 14.8837Z" fill="white"/>
        <path d="M225.301 28.2874C225.107 27.7014 224.483 27.5127 223.447 27.7268C220.369 28.3619 219.267 27.9219 218.906 27.6555C221.297 24.0116 223.265 19.6071 224.327 15.4975C224.83 13.5509 225.107 11.7431 225.13 10.2696C225.155 8.65209 224.88 7.4637 224.311 6.73769C222.021 3.81081 218.659 2.24087 214.59 2.19772C211.792 2.16629 209.429 2.8823 208.97 3.08358C208.005 2.8436 206.953 2.69628 205.808 2.67748C203.708 2.64353 201.893 3.14633 200.39 4.17113C199.737 3.92822 198.05 3.34903 195.986 3.01669C192.419 2.44225 189.584 2.87745 187.561 4.31058C185.148 6.02067 184.033 9.07749 184.249 13.396C184.322 14.849 185.15 19.3185 186.456 23.599C188.176 29.2328 190.045 32.4222 192.012 33.0782C192.242 33.155 192.508 33.2087 192.8 33.2087C193.518 33.2087 194.398 32.8853 195.313 31.785C196.833 29.9561 198.252 28.4235 198.776 27.8667C199.549 28.2818 200.398 28.5135 201.267 28.5367C201.269 28.5594 201.271 28.5822 201.273 28.6048C201.099 28.8115 200.956 28.9927 200.834 29.1474C200.232 29.9115 200.107 30.0706 198.169 30.4696C197.618 30.5833 196.154 30.885 196.132 31.9111C196.109 33.0322 197.863 33.5031 198.063 33.553C198.759 33.7273 199.43 33.8133 200.069 33.8133C201.625 33.8132 202.994 33.3019 204.089 32.3126C204.055 36.3094 204.222 40.2479 204.701 41.4479C205.094 42.4301 206.055 44.831 209.088 44.8308C209.533 44.8308 210.023 44.779 210.561 44.6635C213.727 43.9848 215.101 42.5858 215.633 39.5015C215.918 37.8532 216.406 33.9169 216.636 31.8055C217.12 31.9567 217.744 32.0259 218.419 32.0258C219.826 32.0258 221.449 31.7269 222.467 31.2543C223.611 30.7232 225.675 29.4197 225.301 28.2874ZM217.763 14.0198C217.752 14.6432 217.666 15.209 217.575 15.7997C217.478 16.435 217.376 17.0918 217.351 17.8892C217.326 18.6651 217.423 19.4718 217.516 20.2519C217.706 21.8276 217.9 23.4499 217.148 25.0506C217.031 24.843 216.918 24.6164 216.815 24.3656C216.721 24.1389 216.518 23.7748 216.237 23.2709C215.143 21.3096 212.582 16.7167 213.893 14.8425C214.284 14.2846 215.275 13.7111 217.763 14.0198ZM214.747 3.45998C218.393 3.54051 221.277 4.90452 223.32 7.51392C224.886 9.51542 223.161 18.6226 218.168 26.4794C218.119 26.4168 218.069 26.3535 218.017 26.2886C217.996 26.2627 217.975 26.2363 217.954 26.2096C219.244 24.0789 218.992 21.9708 218.767 20.1016C218.675 19.3346 218.588 18.6101 218.61 17.9297C218.633 17.2082 218.728 16.5897 218.82 15.9915C218.934 15.2543 219.049 14.4916 219.017 13.5924C219.041 13.4981 219.051 13.3867 219.038 13.2544C218.957 12.3921 217.972 9.81169 215.966 7.47582C214.868 6.19841 213.268 4.76872 211.082 3.80444C212.022 3.60963 213.308 3.42795 214.747 3.45998ZM194.344 30.9797C193.336 32.192 192.64 31.9597 192.411 31.8834C190.919 31.3857 189.187 28.2322 187.661 23.2313C186.34 18.9043 185.568 14.5531 185.507 13.333C185.314 9.4743 186.25 6.78498 188.288 5.33983C191.604 2.98799 197.056 4.39566 199.247 5.10964C199.216 5.14066 199.183 5.16977 199.152 5.20129C195.557 8.83215 195.642 15.0355 195.651 15.4147C195.65 15.561 195.662 15.7681 195.679 16.0531C195.741 17.0963 195.856 19.0382 195.549 21.2374C195.263 23.2809 195.893 25.2811 197.277 26.7251C197.42 26.8745 197.57 27.0149 197.724 27.1469C197.108 27.8066 195.769 29.2654 194.344 30.9797ZM198.186 25.8535C197.071 24.6898 196.564 23.071 196.796 21.4118C197.121 19.0887 197.001 17.0654 196.937 15.9785C196.928 15.8264 196.92 15.6931 196.915 15.5879C197.44 15.1223 199.874 13.8181 201.61 14.2159C202.402 14.3973 202.884 14.9366 203.085 15.8644C204.124 20.6674 203.223 22.6693 202.499 24.2779C202.349 24.6094 202.208 24.9226 202.088 25.2468L201.995 25.4973C201.758 26.1307 201.539 26.7196 201.402 27.2789C200.217 27.2753 199.063 26.7688 198.186 25.8535ZM198.368 32.3311C198.022 32.2446 197.711 32.0943 197.528 31.9697C197.68 31.8979 197.952 31.8003 198.423 31.7033C200.703 31.2339 201.054 30.9028 201.823 29.9267C202 29.703 202.199 29.4492 202.476 29.1402C202.476 29.14 202.476 29.1399 202.476 29.1398C202.888 28.6785 203.077 28.7567 203.419 28.8984C203.696 29.0131 203.966 29.3603 204.075 29.7425C204.127 29.9229 204.185 30.2656 203.995 30.532C202.389 32.7805 200.049 32.7516 198.368 32.3311ZM210.297 43.432C207.509 44.0295 206.522 42.6067 205.871 40.9801C205.451 39.93 205.245 35.1947 205.391 29.9655C205.393 29.8959 205.383 29.8287 205.364 29.7655C205.347 29.6436 205.322 29.5202 205.286 29.396C205.068 28.6351 204.538 27.9986 203.901 27.7348C203.648 27.63 203.184 27.4377 202.626 27.5804C202.745 27.0902 202.951 26.5368 203.175 25.9374L203.269 25.6852C203.374 25.401 203.507 25.1065 203.647 24.7949C204.405 23.1117 205.442 20.8063 204.316 15.5982C203.894 13.6475 202.486 12.6949 200.35 12.9161C199.07 13.0486 197.899 13.5651 197.315 13.8613C197.189 13.9249 197.074 13.9864 196.967 14.0463C197.13 12.0808 197.746 8.40766 200.05 6.08372C201.501 4.62058 203.433 3.89801 205.787 3.93691C210.426 4.0129 213.4 6.39332 215.079 8.37695C216.526 10.0863 217.309 11.8081 217.621 12.7367C215.271 12.4978 213.672 12.9619 212.861 14.1206C211.098 16.641 213.826 21.5333 215.137 23.8844C215.377 24.3153 215.585 24.6877 215.65 24.8459C216.077 25.8806 216.63 26.5714 217.033 27.0757C217.157 27.2302 217.277 27.38 217.368 27.5109C216.656 27.7162 215.377 28.1904 215.494 30.561C215.4 31.7507 214.731 37.3199 214.392 39.2875C213.944 41.887 212.987 42.8553 210.297 43.432ZM221.937 30.1119C221.209 30.4499 219.991 30.7034 218.833 30.7578C217.555 30.8177 216.904 30.6146 216.751 30.4897C216.679 29.0124 217.229 28.858 217.811 28.6946C217.902 28.6689 217.991 28.6439 218.078 28.6138C218.131 28.6573 218.19 28.7006 218.254 28.7429C219.281 29.4212 221.114 29.4943 223.701 28.9603C223.711 28.9583 223.72 28.9564 223.73 28.9545C223.381 29.2808 222.784 29.7187 221.937 30.1119Z" fill="white"/>
    </a>
    <a href="https://pusher.com/" target="_blank">
        <path d="M117.578 44.9367V33.6559C117.578 33.6322 117.591 33.6085 117.613 33.5967L132.122 25.2266C132.144 25.2149 132.157 25.192 132.157 25.1674V21.9605C132.158 21.9361 132.145 21.9132 132.124 21.9008C132.103 21.8885 132.077 21.8887 132.056 21.9013L117.68 30.1956C117.659 30.2082 117.633 30.2084 117.612 30.196C117.591 30.1837 117.578 30.1608 117.579 30.1364V26.9271C117.579 26.9034 117.591 26.8809 117.612 26.8691L132.122 18.499C132.143 18.4866 132.156 18.4642 132.157 18.4398V15.233C132.156 15.2092 132.143 15.1874 132.123 15.1753C132.102 15.1633 132.077 15.1627 132.056 15.1738L117.68 23.4668C117.659 23.48 117.633 23.4806 117.611 23.4685C117.59 23.4563 117.577 23.4334 117.578 23.4088V20.2008C117.578 20.1771 117.591 20.1546 117.613 20.1427L132.122 11.7762C132.144 11.7644 132.157 11.7416 132.157 11.717V8.46752C132.155 8.4202 132.13 8.37669 132.09 8.35147L117.645 0.0181133C117.604 -0.00603776 117.553 -0.00603776 117.511 0.0181133L114.764 1.60378C114.743 1.61546 114.73 1.63768 114.73 1.66181C114.73 1.68594 114.743 1.70816 114.764 1.71984L129.14 10.0129C129.16 10.0255 129.172 10.0474 129.172 10.071C129.172 10.0945 129.16 10.1164 129.14 10.129L126.393 11.7135C126.351 11.7362 126.3 11.7362 126.258 11.7135L111.814 3.38248C111.77 3.3571 111.716 3.3571 111.672 3.38248L108.933 4.96578C108.912 4.97746 108.899 4.99968 108.899 5.02381C108.899 5.04793 108.912 5.07016 108.933 5.08184L123.307 13.3761C123.329 13.3876 123.342 13.4102 123.342 13.4347C123.342 13.4593 123.329 13.4819 123.307 13.4933L120.56 15.0778C120.516 15.1032 120.461 15.1032 120.418 15.0778L105.983 6.74448C105.939 6.7191 105.885 6.7191 105.841 6.74448L103 8.38818V36.6046C103 36.6283 103.012 36.6519 103.034 36.6626L105.815 38.2672C105.836 38.2799 105.862 38.2801 105.883 38.2677C105.904 38.2553 105.916 38.2324 105.916 38.208V10.1882C105.915 10.164 105.928 10.1415 105.949 10.1294C105.97 10.1174 105.996 10.1176 106.016 10.1302L108.799 11.7348C108.818 11.7466 108.831 11.7691 108.831 11.794V39.9678C108.831 39.9914 108.843 40.0151 108.864 40.027L111.645 41.6328C111.666 41.645 111.692 41.645 111.713 41.6328C111.735 41.6206 111.748 41.5981 111.748 41.5736V13.5502C111.747 13.5258 111.759 13.5029 111.78 13.4905C111.802 13.4782 111.828 13.4783 111.848 13.491L114.629 15.0944C114.65 15.1063 114.663 15.1299 114.663 15.1536V43.3321C114.663 43.3558 114.675 43.3783 114.695 43.3913L117.484 44.9936C117.504 45.0032 117.528 45.0019 117.547 44.9902C117.566 44.9785 117.578 44.958 117.579 44.9356L117.578 44.9367Z" fill="#300D4F"/>
    </a>
    <a href="https://www.mysql.com/" target="_blank">
        <path d="M139.423 116.91C136.977 116.849 135.081 117.093 133.49 117.761C133.031 117.943 132.297 117.943 132.236 118.52C132.481 118.763 132.511 119.158 132.726 119.492C133.093 120.1 133.735 120.92 134.316 121.345C134.958 121.831 135.6 122.317 136.273 122.743C137.466 123.472 138.812 123.897 139.974 124.626C140.647 125.051 141.319 125.598 141.992 126.054C142.329 126.297 142.543 126.692 142.971 126.844V126.753C142.757 126.479 142.695 126.084 142.481 125.78C142.176 125.477 141.87 125.203 141.564 124.899C140.677 123.715 139.576 122.682 138.383 121.831C137.405 121.163 135.264 120.252 134.866 119.128C134.866 119.128 134.836 119.097 134.805 119.067C135.478 119.006 136.273 118.763 136.915 118.581C137.955 118.307 138.903 118.368 139.974 118.095C140.463 117.973 140.952 117.821 141.442 117.67V117.396C140.891 116.849 140.494 116.12 139.912 115.604C138.353 114.267 136.64 112.961 134.866 111.868C133.918 111.26 132.695 110.865 131.686 110.349C131.319 110.166 130.707 110.075 130.493 109.771C129.942 109.103 129.637 108.222 129.239 107.432C128.353 105.761 127.496 103.909 126.731 102.147C126.181 100.962 125.845 99.7771 125.172 98.6836C122.022 93.5195 118.596 90.3906 113.336 87.3224C112.205 86.6845 110.859 86.4111 109.422 86.077C108.657 86.0465 107.893 85.9859 107.128 85.9554C106.639 85.7427 106.149 85.1657 105.721 84.8922C103.978 83.7985 99.4824 81.4293 98.1979 84.5581C97.3722 86.5327 99.4212 88.4767 100.125 89.4793C100.645 90.1779 101.317 90.9677 101.684 91.7576C101.899 92.2737 101.96 92.8208 102.174 93.3676C102.663 94.7039 103.122 96.1926 103.764 97.4383C104.101 98.0761 104.467 98.7444 104.896 99.3215C105.14 99.6556 105.568 99.8077 105.66 100.354C105.232 100.962 105.201 101.873 104.957 102.633C103.856 106.065 104.284 110.318 105.844 112.839C106.333 113.599 107.495 115.27 109.055 114.632C110.431 114.085 110.125 112.354 110.523 110.835C110.615 110.47 110.553 110.227 110.737 109.984C110.737 110.014 110.737 110.045 110.737 110.045C111.165 110.895 111.593 111.716 111.991 112.566C112.939 114.055 114.59 115.604 115.966 116.637C116.701 117.183 117.281 118.125 118.199 118.46V118.368H118.138C117.954 118.095 117.679 117.973 117.434 117.761C116.884 117.214 116.272 116.546 115.844 115.938C114.56 114.237 113.428 112.354 112.419 110.409C111.93 109.468 111.501 108.435 111.104 107.493C110.92 107.128 110.92 106.582 110.614 106.4C110.156 107.068 109.483 107.645 109.146 108.465C108.566 109.771 108.504 111.381 108.29 113.052C108.168 113.083 108.229 113.052 108.168 113.113C107.189 112.87 106.853 111.868 106.486 111.017C105.568 108.86 105.415 105.397 106.211 102.906C106.425 102.268 107.342 100.263 106.975 99.6558C106.792 99.0785 106.18 98.7444 105.844 98.2888C105.446 97.7115 105.018 96.9826 104.743 96.3445C104.009 94.6435 103.642 92.76 102.847 91.0588C102.479 90.2688 101.837 89.4488 101.317 88.7199C100.736 87.8996 100.094 87.3224 99.6353 86.3503C99.4826 86.0162 99.2683 85.4694 99.5129 85.1049C99.5741 84.8619 99.6963 84.7708 99.9412 84.71C100.339 84.3757 101.47 84.8011 101.868 84.9833C102.999 85.4387 103.947 85.8643 104.896 86.5021C105.324 86.8059 105.782 87.3832 106.333 87.5351H106.975C107.954 87.7475 109.055 87.5959 109.972 87.8691C111.593 88.3854 113.061 89.145 114.376 89.9653C118.383 92.4865 121.685 96.0712 123.918 100.354C124.285 101.053 124.438 101.691 124.774 102.42C125.417 103.909 126.212 105.427 126.854 106.886C127.496 108.313 128.108 109.771 129.025 110.956C129.484 111.594 131.319 111.928 132.144 112.262C132.756 112.536 133.704 112.779 134.255 113.113C135.294 113.751 136.334 114.48 137.313 115.179C137.802 115.543 139.331 116.303 139.423 116.91L139.423 116.91Z" fill="#00546B"/>
        <path d="M108.228 90.5118C107.708 90.5118 107.341 90.5728 106.974 90.6639C106.974 90.6638 106.974 90.6944 106.974 90.7247H107.036C107.28 91.2107 107.708 91.5449 108.014 91.9701C108.259 92.4561 108.473 92.9422 108.718 93.4284C108.748 93.3979 108.779 93.3676 108.779 93.3676C109.207 93.0636 109.421 92.5777 109.421 91.8487C109.237 91.636 109.207 91.4234 109.054 91.2107C108.87 90.9067 108.473 90.755 108.228 90.5118Z" fill="#00546B"/>
    </a>
    <a href="https://www.arangodb.com/" target="_blank">
        <path d="M231.746 100.455C232.023 100.727 232.253 101 232.437 101.364C233.083 102.5 233.267 104.455 233.359 105.318C233.405 106.909 233.037 109.364 232.622 109.818C232.299 110 230.594 112.364 229.441 113.045C229.119 113.227 228.658 113.273 228.151 113.455C227.321 113.773 226.768 114.136 225.339 114.045C221.006 113.727 216.812 111.591 213.493 110.409C212.248 112.591 207.593 114.955 207.593 114.955C207.593 114.955 206.026 115.364 205.288 115.545C204.873 115.636 203.859 115.727 203.168 115.727C202.799 115.727 202.43 115.5 202.062 115.545C201.739 115.591 201.416 115.818 201.14 115.864C199.803 115.909 197.314 114.864 197.314 114.864L195.424 113.5L194.318 112.409C194.318 112.409 192.797 110.864 192.198 109.455C192.013 109 191.552 108.5 191.414 108.091C191.23 107.636 191.23 106.773 191.091 106.227C190.584 103.727 191.322 101.818 192.797 100.182C193.995 99.5455 194.779 98.8182 196.208 98.2273C198.282 97.3636 200.218 95.6818 203.03 95.5455C203.444 93.8636 204.182 93.1364 205.15 92.1364C205.98 91.2727 207.132 90.2727 208.146 89.5455C210.128 88.0455 213.539 87 216.397 87C218.471 87 219.9 87.5455 221.467 88.1818C222.896 88.7273 224.141 89.5 225.339 90.1818C225.339 90.1818 227.644 91.5 228.75 94.6364C229.026 95.4091 230.594 96.9545 230.962 97.8636C230.962 97.8636 231.239 98.4545 231.331 99.0909C231.423 99.7273 231.562 100.227 231.746 100.455V100.455Z" fill="#423334"/>
        <path fill-rule="evenodd" clip-rule="evenodd" d="M213.632 109.864C213.678 109.818 213.632 109.818 213.632 109.818L213.586 109.773C213.632 109.727 213.448 109.591 213.448 109.682C213.402 109.636 213.402 109.682 213.402 109.682C213.402 109.727 213.402 109.727 213.355 109.773C213.309 109.773 213.309 109.773 213.309 109.818H213.263V109.864C213.263 109.864 213.309 109.909 213.263 109.909C213.217 109.955 213.263 109.955 213.263 109.955C213.263 109.955 213.309 110 213.263 110L213.355 110.091H213.448C213.494 110.091 213.494 110.091 213.54 110.045C213.54 110.045 213.586 110 213.586 110.045L213.632 110C213.678 109.955 213.632 109.955 213.632 109.955C213.678 109.909 213.678 109.909 213.632 109.864V109.864ZM203.906 114C203.86 114 203.86 114.045 203.86 114.091C203.906 114.045 203.906 114 203.906 114ZM202.062 113.5C202.062 113.591 202.063 113.591 202.109 113.591C202.109 113.636 202.109 113.636 202.155 113.636C202.155 113.682 202.201 113.682 202.201 113.636H202.247C202.293 113.636 202.293 113.636 202.293 113.591C202.339 113.591 202.339 113.591 202.339 113.545V113.455C202.339 113.409 202.339 113.273 202.293 113.273C202.247 113.136 202.201 113.045 201.97 113.045V112.909C201.878 112.909 201.878 112.864 201.832 112.864C201.786 112.773 201.74 112.636 201.555 112.682L201.509 112.955C201.648 113 201.878 113.045 202.016 113.136C201.786 113.136 202.016 113.455 202.062 113.5V113.5ZM211.42 108.409C211.281 108.364 211.281 108.318 211.097 108.273C211.005 108.318 210.866 108.455 210.866 108.591C211.051 108.682 211.235 108.591 211.42 108.409V108.409ZM211.373 109.818C211.373 109.864 211.373 109.909 211.327 109.909C211.327 109.955 211.327 110.045 211.281 110.045C211.189 110 211.189 110.227 211.281 110.227C211.281 110.273 211.281 110.318 211.327 110.318C211.327 110.364 211.327 110.364 211.373 110.364C211.373 110.409 211.466 110.409 211.466 110.364C211.512 110.364 211.604 110.364 211.604 110.318C211.65 110.318 211.65 110.318 211.65 110.273C211.696 110.273 211.696 110.227 211.696 110.182C211.742 110.182 211.742 110.182 211.742 110.136V110.045C211.696 110.045 211.696 109.955 211.696 109.909C211.604 109.864 211.512 109.864 211.373 109.818V109.818ZM214.416 108.636C214.462 108.591 214.462 108.591 214.416 108.545C214.462 108.5 214.416 108.5 214.416 108.5C214.462 108.455 214.416 108.455 214.416 108.455C214.462 108.409 214.416 108.409 214.37 108.364C214.416 108.318 214.37 108.318 214.323 108.273L214.37 108.227C214.323 108.091 214.37 107.909 214.185 107.773C214.047 107.727 213.862 107.818 213.724 107.909L213.678 108.364C213.632 108.409 213.54 108.5 213.586 108.545L213.54 108.591C213.402 108.5 213.217 108.273 213.079 108.273C213.033 108.227 212.987 108.182 212.941 108.227C212.895 108.182 212.895 108.182 212.848 108.227C212.802 108.182 212.802 108.182 212.756 108.227C212.71 108.182 212.71 108.227 212.71 108.227C212.664 108.182 212.664 108.227 212.664 108.227C212.618 108.182 212.618 108.182 212.572 108.227C212.526 108.182 212.526 108.182 212.48 108.227C212.434 108.182 212.434 108.182 212.388 108.227C212.341 108.182 212.341 108.227 212.341 108.227C212.157 108.136 211.973 108.227 211.834 108.273C211.742 108.591 212.019 108.682 212.341 108.909C212.295 108.955 212.387 109 212.434 109.045C212.618 109.364 212.987 109.091 213.217 109.045C213.309 109.045 213.263 109.091 213.309 109.136L213.586 109L213.632 109.045C213.678 109 213.632 108.955 213.632 108.909C213.678 108.864 213.632 108.864 213.586 108.818L213.632 108.773C213.724 108.864 213.816 108.727 213.816 108.864C213.955 108.773 214.093 108.818 214.185 108.773C214.231 108.818 214.231 108.773 214.277 108.727C214.323 108.773 214.37 108.727 214.416 108.636V108.636ZM213.263 109.773C213.217 109.727 213.263 109.682 213.309 109.727C213.309 109.727 213.355 109.682 213.355 109.727C213.355 109.682 213.402 109.636 213.355 109.545C213.309 109.545 213.309 109.545 213.309 109.5C213.263 109.5 213.263 109.5 213.263 109.455C213.217 109.455 213.125 109.455 213.125 109.409H212.848C212.848 109.545 212.618 109.409 212.664 109.591H212.618C212.618 109.636 212.618 109.636 212.572 109.636C212.572 109.682 212.572 109.682 212.526 109.682C212.526 109.727 212.48 109.727 212.48 109.682C212.434 109.682 212.388 109.682 212.388 109.636H212.249C212.295 109.727 212.341 109.818 212.295 109.909C212.295 110.045 212.203 110.091 212.111 110.136C212.111 110.318 212.249 110.364 212.388 110.455C212.065 110.545 211.742 110.636 211.512 110.818C211.466 110.818 211.42 110.818 211.42 110.864C211.327 110.864 211.327 110.909 211.327 110.955C211.189 111.045 211.051 111.045 211.051 111.273C211.051 111.318 211.051 111.318 211.097 111.318V111.364C211.097 111.409 211.097 111.409 211.143 111.409C211.143 111.455 211.143 111.455 211.189 111.455C211.189 111.5 211.189 111.545 211.235 111.545C211.235 111.591 211.235 111.591 211.281 111.591C211.281 111.682 211.235 111.864 211.373 111.818C211.327 111.909 211.558 111.909 211.558 111.818C211.696 111.818 211.696 111.636 211.696 111.5C211.742 111.5 211.742 111.455 211.742 111.409C211.88 111.273 212.111 111.136 212.295 111.045C212.249 111.045 212.249 111.045 212.249 111C212.295 111 212.295 110.955 212.295 110.909C212.48 110.5 212.664 110.182 213.033 109.955C213.033 109.864 213.125 109.909 213.217 109.909C213.263 109.818 213.263 109.818 213.263 109.773V109.773ZM214.83 105.909C214.877 105.955 214.877 105.909 214.877 105.909C214.969 106.045 215.061 105.909 215.107 105.818C215.061 105.727 215.015 105.864 214.969 105.818C215.015 105.773 215.015 105.773 214.969 105.727C215.338 105.727 215.891 105.682 216.352 105.864L215.845 105.591C215.845 105.409 215.983 105.591 216.075 105.455L216.029 105.409L215.983 105.364C215.983 105.364 215.937 105.409 215.937 105.364C215.891 105.364 215.891 105.318 215.891 105.318C215.891 105.318 215.845 105.364 215.845 105.318L215.798 105.273C215.798 105.273 215.752 105.318 215.752 105.273L215.706 105.227C215.706 105.227 215.66 105.273 215.66 105.227L215.614 105.182C215.614 105.182 215.568 105.227 215.568 105.182L215.522 105.136L215.476 105.091C215.476 105.091 215.43 105.136 215.43 105.091L215.384 105.045L215.337 105.091C215.43 105.182 215.476 105.182 215.291 105.318C215.107 105.273 214.969 105.318 214.784 105.318C214.877 105.364 214.969 105.455 214.969 105.5L214.877 105.591C214.83 105.545 214.83 105.591 214.83 105.591C214.692 105.591 214.646 105.818 214.6 105.909C214.692 106.136 214.784 106 214.83 105.909V105.909ZM201.233 112.045C201.325 112.136 201.509 112.227 201.602 112.091C201.555 111.955 201.279 111.818 201.233 112.045ZM201.878 112.182V112.091C201.786 111.955 201.648 112.227 201.878 112.182ZM212.341 109.591C212.203 109.409 211.88 109.318 211.742 109.273C211.696 109.227 211.696 109.273 211.696 109.273C211.604 109.182 211.558 109.318 211.512 109.364C211.373 109.364 211.281 109.636 211.327 109.682C211.373 109.727 211.42 109.727 211.42 109.773H211.373C211.373 109.727 211.373 109.727 211.327 109.727C211.327 109.682 211.42 109.682 211.512 109.682C211.512 109.727 211.512 109.727 211.558 109.727C211.558 109.773 211.558 109.773 211.604 109.773C211.604 109.818 211.604 109.818 211.65 109.818C211.65 109.864 211.65 109.864 211.696 109.864V109.909H211.834C211.88 109.818 211.973 110 212.019 110C212.065 110.045 212.157 110.091 212.203 110.045V110C212.157 109.773 212.295 109.682 212.341 109.591V109.591ZM212.157 107.5C212.203 107.545 212.203 107.455 212.249 107.455C212.295 107.5 212.387 107.409 212.341 107.364C212.387 107.318 212.341 107.318 212.341 107.318C212.434 107.227 212.572 107.409 212.664 107.455L212.71 107.5L212.756 107.545L212.802 107.591C212.756 107.636 212.802 107.636 212.848 107.636C212.895 107.682 212.941 107.727 212.987 107.682C213.033 107.727 213.033 107.682 213.033 107.682C213.079 107.682 213.125 107.682 213.217 107.773C213.263 107.682 213.309 107.682 213.355 107.682C213.402 107.727 213.402 107.682 213.402 107.682C213.448 107.727 213.494 107.636 213.54 107.591C213.586 107.636 213.586 107.591 213.586 107.591C213.632 107.636 213.632 107.591 213.678 107.545C213.724 107.591 213.724 107.545 213.724 107.5C213.77 107.455 213.77 107.455 213.724 107.409C213.862 107.318 213.586 107.182 213.54 107.273C213.494 107.227 213.448 107.182 213.402 107.227C213.355 107.182 213.355 107.227 213.355 107.227C213.309 107.182 213.309 107.227 213.263 107.273C213.217 107.273 213.171 107.273 213.125 107.227C213.079 107.182 213.079 107.227 213.079 107.227C213.033 107.182 213.033 107.182 212.987 107.227H212.895C212.848 107.182 212.848 107.227 212.848 107.227C212.802 107.182 212.802 107.227 212.802 107.227L212.756 107.273C212.71 107.227 212.664 107.273 212.618 107.273L212.572 107.227C212.157 106.909 211.696 107.5 212.157 107.5V107.5ZM207.133 110.227C207.179 110.364 207.502 110.409 207.594 110.318C207.64 110.318 207.64 110.318 207.64 110.273C207.686 110.273 207.686 110.273 207.686 110.227C207.732 110.227 207.732 110.091 207.686 110.091C207.686 110.045 207.686 109.955 207.64 109.955C207.594 109.955 207.594 109.955 207.594 109.909C207.548 109.909 207.548 109.909 207.548 109.864V109.818C207.409 109.727 207.317 109.591 207.133 109.545C206.902 109.727 207.087 110.091 206.902 110.364C207.041 110.545 207.041 110.318 207.133 110.227ZM214.277 106.818C214.231 106.864 214.277 106.864 214.277 106.864L214.231 106.909C214.323 107 214.323 107.091 214.462 107.227C214.738 107.045 215.061 107 215.384 107.227C215.614 106.818 215.43 106.545 215.061 106.318C214.877 106.409 214.692 106.364 214.554 106.5C214.508 106.455 214.508 106.5 214.508 106.5C214.508 106.545 214.462 106.5 214.462 106.5C214.416 106.455 214.416 106.5 214.416 106.5C214.37 106.455 214.231 106.636 214.323 106.636C214.277 106.682 214.323 106.682 214.323 106.682L214.277 106.727C214.231 106.773 214.231 106.773 214.277 106.818V106.818ZM210.037 110.364C209.991 110.364 209.991 110.273 209.898 110.273C209.852 110.409 210.037 110.455 210.037 110.364ZM214.923 106.136C214.738 106.045 215.015 106.273 214.923 106.136V106.136ZM206.257 110.318C206.211 110.318 206.165 110.273 206.073 110.273C206.027 110.318 206.027 110.409 206.027 110.5C206.211 110.545 206.211 110.364 206.257 110.318ZM205.012 113.773C205.059 113.773 205.012 113.727 205.012 113.773V113.773ZM205.612 113.955C205.612 113.864 205.335 113.864 205.335 113.955H205.243C205.243 113.773 205.059 113.955 205.197 114C205.243 114.091 205.059 114.136 205.243 114.136C205.289 114.136 205.289 114.136 205.289 114.182C205.335 114.182 205.335 114.182 205.335 114.227C205.381 114.227 205.381 114.273 205.381 114.318H205.566C205.566 114.273 205.612 114.273 205.658 114.273C205.612 114.136 205.612 114.182 205.658 114.045C205.658 113.955 205.658 113.955 205.612 113.955ZM204.321 113.591C204.367 113.636 204.413 113.636 204.413 113.591C204.552 113.636 204.598 113.545 204.736 113.545C204.736 113.591 204.828 113.591 204.874 113.591C204.874 113.682 205.151 113.682 205.105 113.545C205.335 113.182 205.105 112.682 204.69 112.818C204.69 113.091 204.644 113.182 204.275 113.136C204.275 113.091 204.229 113.091 204.183 113.091L203.584 112.591C203.584 112.545 203.584 112.455 203.538 112.455C203.491 112 203.722 111.727 203.491 111.5C203.445 111.682 203.169 111.682 203.169 111.955C203.123 111.955 203.123 111.955 203.123 112C203.077 112.182 203.123 112.364 203.123 112.545V112.591C203.077 112.591 203.077 112.636 203.077 112.682C203.03 112.682 203.03 112.773 203.03 112.818C202.938 112.773 202.938 113 203.03 113C203.03 113.091 203.077 113.091 203.123 113.091C203.215 113.364 202.938 113.591 203.215 113.727C203.491 113.455 203.722 113.5 203.998 113.727C203.952 113.545 204.275 113.727 204.321 113.591V113.591ZM208.746 110.5L208.93 109.773C209.438 110.136 209.484 109.545 209.898 109.455C209.945 109.364 209.945 109.227 210.083 109.136C209.945 109.091 210.083 109 209.991 108.864C209.852 108.818 209.76 108.682 209.622 108.682C209.76 108.773 209.806 109.045 209.806 109.136C209.391 109.227 209.023 109.409 208.7 109.227C208.608 109.227 208.608 109.136 208.47 109.182C208.47 109.227 208.47 109.227 208.423 109.227H208.377C208.377 109.273 208.377 109.273 208.331 109.273V109.455C208.423 109.409 208.423 109.636 208.331 109.636C208.285 109.682 208.377 109.864 208.285 109.864C208.285 109.909 208.285 110 208.239 110C208.147 110 208.239 110.136 208.193 110.227C208.055 110.409 208.562 110.818 208.746 110.5V110.5ZM206.303 111.182C206.349 111.045 206.257 111.045 206.257 110.909C205.796 110.818 205.612 111.591 205.381 111.318C205.381 111.273 205.381 111.273 205.335 111.273C205.335 111.227 205.335 111.227 205.289 111.227C205.289 111.182 205.289 111.182 205.243 111.182C205.243 111.136 205.151 111.136 205.105 111.136C205.105 111.091 204.966 111.091 204.966 111.136C204.92 111.136 204.92 111.136 204.92 111.182C204.874 111.182 204.874 111.182 204.874 111.227C204.828 111.227 204.828 111.227 204.828 111.273V111.318C204.782 111.318 204.782 111.364 204.782 111.409H204.736C204.782 111.5 204.644 111.682 204.828 111.682H204.874V111.727C204.69 111.682 204.69 111.818 204.552 111.909C204.367 111.909 204.137 111.818 203.998 111.909V112.091C204.229 112.227 204.321 111.955 204.598 112C204.598 112.091 204.69 112.136 204.782 112.182C204.736 112.273 204.966 112.273 204.966 112.182C205.059 112.182 204.966 111.955 205.012 111.864C205.059 111.864 205.059 111.864 205.059 111.818C205.059 111.773 205.105 111.773 205.151 111.773C205.473 111.773 205.473 112.136 205.796 112.091C205.98 111.773 205.934 111.273 206.303 111.182V111.182ZM215.153 110.045C215.153 110.091 215.245 110.091 215.291 110.091C215.291 110 215.245 110.045 215.153 110.045ZM215.706 111.182C215.752 111.182 215.752 111.136 215.706 111.182V111.182ZM203.169 114.455C203.169 114.364 203.215 114.364 203.215 114.318C203.123 114.227 202.846 114.273 202.8 114.409C202.754 114.409 202.754 114.409 202.754 114.455H202.708L202.431 114.682C202.385 114.545 202.016 114.545 202.155 114.727C202.155 114.773 202.155 114.773 202.201 114.773C202.201 114.864 201.97 114.818 201.924 114.909C201.878 114.909 201.878 114.909 201.878 114.955C201.832 114.955 201.832 114.955 201.832 115C201.786 115 201.786 115 201.786 115.045V115.091C201.74 115.091 201.74 115.091 201.74 115.136C201.786 115.273 201.832 115.364 201.97 115.409C201.97 115.227 202.062 115.182 202.062 115.091V115C202.109 115 202.109 114.909 202.109 114.864L202.385 114.818V114.682H202.477C202.477 114.864 202.662 114.682 202.8 114.727C202.8 114.773 202.8 114.773 202.846 114.773C202.846 114.818 202.892 114.818 202.938 114.818C202.984 114.909 203.215 114.864 203.261 114.909C203.353 114.727 203.169 114.636 203.169 114.455V114.455ZM210.59 111.955C210.682 111.773 210.774 111.455 210.728 111.273C210.774 111.273 210.774 111.227 210.728 111.227C210.682 111.091 210.636 111.136 210.728 111L210.544 110.955C210.544 110.909 210.544 110.818 210.498 110.818V110.682C210.59 110.682 210.59 110.636 210.59 110.545C210.866 110.545 210.728 110.136 210.682 110.045C210.452 110.091 210.359 110 210.267 109.955C210.175 110 210.129 110.091 210.037 110.182C210.175 110.227 210.083 110.364 210.129 110.545L209.852 110.682C209.806 110.545 209.76 110.409 209.622 110.318C209.622 110.545 209.391 110.227 209.299 110.409C209.253 110.409 209.207 110.409 209.207 110.455C209.023 110.545 209.161 110.909 209.207 111C209.115 111.091 208.93 111.091 208.7 111.091C208.7 111.045 208.608 111.045 208.608 111.091H208.562C208.423 111 208.239 111 208.147 111.091C208.147 111.318 208.193 111.455 208.377 111.5C208.377 111.545 208.47 111.545 208.516 111.545C208.516 111.591 208.562 111.591 208.562 111.545C208.608 111.545 208.654 111.545 208.654 111.5C208.977 111.364 209.253 111.636 209.53 111.5C209.622 111.5 209.622 111.455 209.622 111.409C209.668 111.273 209.852 111.273 210.037 111.273C210.129 111.364 210.129 111.5 210.129 111.682C210.083 111.682 210.083 111.773 210.083 111.818C210.037 111.818 210.037 111.909 210.083 111.909C210.037 112.136 210.405 112 210.405 112.182C210.313 112.364 210.129 112.455 210.083 112.636C210.267 112.682 210.452 113 210.267 113.182C210.129 113.273 209.991 113.409 209.945 113.591L210.498 113.227L210.452 113.045H210.728C210.866 112.636 211.327 112.545 211.327 112.045C211.051 112.182 210.636 112.182 210.59 111.955V111.955ZM199.666 114.273H199.481C199.435 114.364 199.666 114.364 199.666 114.273ZM203.676 110.136C203.63 110.045 203.63 110.045 203.584 110.045C203.584 110 203.584 110 203.538 110C203.584 109.909 203.445 109.955 203.445 109.864C203.169 110.045 202.846 110.182 202.754 110.545C202.662 110.773 202.339 110.773 202.109 110.682C202.063 110.818 201.97 110.955 201.832 111H201.786C201.786 110.955 201.694 110.955 201.694 111H201.141C201.141 111.182 201.141 111.318 201.187 111.455C201.325 111.545 201.417 111.545 201.602 111.545C201.602 111.591 201.602 111.591 201.648 111.591C201.648 111.636 201.694 111.636 201.74 111.636C201.74 111.682 201.832 111.682 201.878 111.682C201.878 111.773 202.109 111.773 202.109 111.682C202.155 111.682 202.155 111.682 202.155 111.636C202.201 111.636 202.247 111.636 202.247 111.591C202.293 111.591 202.293 111.591 202.293 111.545C202.339 111.545 202.385 111.545 202.385 111.5C202.431 111.5 202.431 111.5 202.431 111.455C202.846 111.227 203.353 110.182 203.86 110.818C203.814 110.773 203.768 110.773 203.768 110.864C203.722 110.864 203.722 111 203.768 111C203.768 111.045 203.814 111.045 203.86 111.045H203.952C204.229 111.136 203.906 110.636 204.229 110.727C204.229 110.318 203.722 110.455 203.676 110.136V110.136ZM199.02 114.773C198.974 114.773 198.928 114.773 198.928 114.727C198.882 114.727 198.79 114.727 198.79 114.682C198.605 114.636 198.652 114.864 198.513 114.909C198.513 114.955 198.513 115.045 198.467 115.091C198.421 115.182 198.513 115.227 198.513 115.318L198.652 115.364H198.698C198.698 115.318 198.744 115.318 198.79 115.318C198.79 115.273 198.836 115.273 198.928 115.273C198.928 115.227 198.974 115.227 199.02 115.227C199.02 115.182 199.066 115.182 199.113 115.136C199.113 115.091 199.113 115.091 199.159 115.091C199.159 115.045 199.159 115.045 199.205 115.045C199.159 114.955 199.112 114.909 199.02 114.773C199.066 114.818 199.02 114.818 199.02 114.773V114.773ZM194.641 112.636C194.641 112.636 194.641 112.591 194.688 112.591C194.641 112.591 194.641 112.591 194.641 112.636ZM191.553 108.136C191.507 108.091 191.553 108.091 191.553 108C191.507 108 191.461 107.955 191.461 107.955C191.461 108 191.461 108.045 191.507 108.045C191.599 108.318 191.83 108.636 192.014 108.909C192.06 108.864 192.06 108.818 192.06 108.727C192.152 108.409 191.738 108.273 191.553 108.136V108.136ZM195.471 112.818C195.471 112.773 195.425 112.773 195.471 112.818C195.425 112.727 195.425 112.727 195.379 112.727C195.379 112.682 195.333 112.682 195.287 112.682C195.287 112.636 195.287 112.636 195.241 112.636C195.241 112.591 195.148 112.591 195.148 112.636H195.056C195.056 112.409 194.918 112.591 194.78 112.5C194.78 112.727 194.826 112.773 194.872 112.864L195.333 113.318V113.273C195.379 113.273 195.379 113.227 195.379 113.182C195.425 113.182 195.425 113.136 195.425 113.091C195.517 113.136 195.517 112.818 195.471 112.818V112.818ZM198.052 114.455C198.052 114.545 198.145 114.591 198.191 114.636C198.329 114.591 198.421 114.591 198.559 114.591C198.559 114.636 198.559 114.636 198.605 114.682C198.652 114.682 198.744 114.636 198.79 114.591L198.421 114.273C198.237 114.273 198.098 114.364 198.052 114.455V114.455ZM199.666 115.5C199.666 115.455 199.666 115.409 199.62 115.409C199.573 115.455 199.62 115.5 199.666 115.5ZM199.712 115.545C199.712 115.5 199.666 115.5 199.712 115.545V115.545ZM199.712 114.227C199.758 114.227 199.758 114.182 199.758 114.091H199.666C199.712 114.136 199.712 114.136 199.712 114.227V114.227ZM199.666 114.273C199.712 114.273 199.758 114.273 199.758 114.227C199.666 114.227 199.666 114.227 199.666 114.273ZM197.868 114.545V114.455C197.822 114.5 197.822 114.591 197.822 114.682H197.96C197.914 114.591 197.914 114.545 197.868 114.545V114.545ZM199.205 115C199.297 115.136 199.435 115.273 199.62 115.409C199.62 115.091 199.435 114.955 199.205 114.864V115V115ZM198.559 114.909V114.682C198.421 114.727 198.283 114.682 198.191 114.636L197.914 114.682V114.727C198.006 114.727 197.914 114.864 197.96 114.955C198.006 114.955 198.006 114.955 198.006 115C198.052 115 198.098 115 198.098 115.045C198.145 115.045 198.145 115.091 198.145 115.136C198.191 115.136 198.237 115.136 198.237 115.182C198.283 115.182 198.329 115.182 198.329 115.227C198.375 115.227 198.375 115.273 198.375 115.273L198.513 115.318C198.513 115.227 198.559 115.182 198.559 115.136C198.513 115 198.513 114.909 198.559 114.909V114.909ZM200.173 114.318C200.495 114.273 200.449 114.091 200.726 114C200.91 114.045 200.91 113.909 200.956 113.818C201.048 113.818 201.048 113.773 201.048 113.727C201.095 113.727 201.095 113.636 201.048 113.636V113.591H201.095C201.141 113.455 200.818 113.5 200.818 113.545C200.772 113.545 200.772 113.545 200.772 113.591C200.726 113.591 200.68 113.591 200.68 113.636C200.634 113.636 200.634 113.636 200.634 113.682C200.587 113.682 200.587 113.727 200.587 113.773C200.541 113.773 200.541 113.773 200.541 113.818C200.495 113.818 200.449 113.818 200.449 113.864C200.403 113.864 200.403 113.864 200.403 113.909H200.127C200.127 113.864 200.08 113.864 200.034 113.864C200.034 113.818 200.034 113.773 199.988 113.773C200.034 113.455 199.85 113.318 200.034 113.227C199.804 113.273 199.712 113.182 199.527 113.136C199.251 113.227 199.02 113.545 198.744 113.5C198.698 113.273 198.605 113.045 198.559 112.773C198.421 112.727 198.375 112.773 198.237 112.773C198.283 112.545 197.914 112.5 197.868 112.455V112.545C197.776 112.5 197.776 112.727 197.868 112.727L198.145 112.818L198.191 113.227C198.329 113.227 198.421 113.364 198.467 113.5C198.421 113.5 198.421 113.5 198.421 113.545V113.591C198.375 113.591 198.329 113.591 198.329 113.636C198.283 113.636 198.191 113.636 198.191 113.682C198.145 113.682 198.052 113.682 198.052 113.727C198.006 113.727 197.96 113.727 197.96 113.773C197.914 113.773 197.914 113.773 197.914 113.818C197.591 113.818 197.591 113.5 197.13 113.545C197.084 113.682 196.992 113.818 197.13 113.909C197.177 113.909 197.177 113.955 197.177 114C197.223 114 197.269 114 197.269 114.091C197.315 114.091 197.315 114.091 197.315 114.136C197.361 114.136 197.361 114.136 197.361 114.182C197.407 114.136 197.545 114.182 197.591 114.227C197.638 114.227 197.684 114.227 197.684 114.273C197.73 114.273 197.73 114.273 197.73 114.318C197.776 114.318 197.822 114.318 197.822 114.364C197.822 114.364 197.868 114.364 197.868 114.409C197.914 114.273 198.006 114.182 198.052 114.091C198.191 114.136 198.283 114.182 198.375 114.227C198.513 114.182 198.652 114.182 198.79 114.227C198.836 114.364 198.836 114.5 198.744 114.591C198.79 114.636 198.836 114.636 198.836 114.682V114.727C198.882 114.727 198.974 114.727 198.974 114.773C199.02 114.773 199.066 114.773 199.066 114.818C199.113 114.818 199.113 114.818 199.113 114.864L199.205 114.909L198.928 114.545C199.02 114.455 198.928 114.227 199.113 114.227C199.113 114.182 199.113 114.182 199.159 114.182C199.251 114.136 199.343 114.045 199.481 114.045C199.527 114.045 199.62 114.045 199.666 114.091H199.758V114C199.804 114 199.804 114.045 199.804 114.091C199.896 114.091 199.942 114.091 199.942 114.136C199.988 114.136 199.988 114.136 199.988 114.182C200.034 114.182 200.034 114.182 200.034 114.227C200.08 114.227 200.127 114.227 200.173 114.318C200.173 114.273 200.219 114.273 200.173 114.318V114.318ZM199.435 114.182C199.435 114.227 199.435 114.273 199.481 114.273C199.481 114.227 199.481 114.182 199.435 114.182ZM211.512 111.909C211.512 111.864 211.466 111.864 211.512 111.909C211.42 111.909 211.466 111.955 211.512 111.909C211.512 111.955 211.466 112 211.512 111.909ZM203.63 114.273C203.584 114.273 203.584 114.318 203.584 114.364C203.63 114.364 203.63 114.318 203.63 114.273ZM203.63 114.5C203.63 114.545 203.63 114.636 203.676 114.636C203.676 114.545 203.676 114.5 203.63 114.5ZM203.63 114.636C203.63 114.682 203.63 114.773 203.676 114.773C203.676 114.682 203.722 114.636 203.63 114.636ZM203.63 114.5V114.364C203.537 114.364 203.537 114.5 203.63 114.5ZM203.906 114.909C203.998 115.045 204.183 115.318 204.367 115.227C204.183 115.136 204.137 114.909 203.906 114.909ZM203.676 114.727C203.676 114.818 203.722 114.818 203.768 114.818C203.768 114.773 203.722 114.773 203.676 114.727ZM204.782 115.273C204.69 115.227 204.505 115.045 204.413 115.182C204.782 115.182 204.598 115.5 204.828 115.591C204.782 115.5 204.644 115.409 204.782 115.273V115.273ZM203.768 114.818C203.768 114.864 203.814 114.864 203.86 114.864C203.86 114.818 203.814 114.818 203.768 114.818ZM193.028 108.455C193.074 108.273 192.89 108.136 192.705 108.227C192.383 108.273 192.521 108.864 192.659 109.091C192.659 109.136 192.659 109.136 192.705 109.136C192.659 109.273 192.798 109.227 192.89 109.227C192.982 109.318 193.213 109.273 193.259 109.182C193.305 108.909 193.166 108.818 193.074 108.682C193.074 108.591 193.12 108.455 193.028 108.455ZM193.12 109.864C193.12 109.955 193.12 110.045 193.213 110.045C193.213 110 193.259 109.955 193.259 109.864H193.12ZM193.443 109.955C193.673 109.909 193.72 109.955 193.904 109.818C193.858 109.682 193.766 109.545 193.581 109.545C193.627 109.682 193.443 109.591 193.397 109.682C193.489 109.818 193.351 109.864 193.443 109.955V109.955ZM194.503 110.818C194.411 110.727 194.365 110.727 194.227 110.682H194.088C193.996 110.591 193.766 110.682 193.627 110.636C193.627 110.591 193.581 110.591 193.581 110.636C193.535 110.636 193.535 110.682 193.535 110.727C193.489 110.727 193.489 110.773 193.489 110.818C193.443 110.818 193.443 110.818 193.443 110.864C193.397 110.864 193.397 110.864 193.397 110.909C193.351 110.909 193.351 110.955 193.397 110.955V111.091C193.259 111.045 193.351 111.182 193.397 111.182C193.397 111.227 193.397 111.227 193.443 111.227C193.443 111.273 193.443 111.364 193.489 111.364C193.535 111.364 193.581 111.364 193.581 111.409H193.766C193.766 111.364 193.812 111.364 193.858 111.364C193.95 111.318 194.088 111.318 194.134 111.182C194.18 111.182 194.227 111.182 194.227 111.136C194.319 111.136 194.365 111.091 194.411 111.045C194.457 111.045 194.457 111.045 194.457 111C194.503 111 194.503 111 194.503 110.955C194.549 110.955 194.549 110.955 194.549 110.909C194.549 110.909 194.549 110.818 194.503 110.818V110.818ZM200.541 114.682C200.265 114.682 200.08 114.955 200.219 115.091C200.68 115.136 200.818 115.455 201.187 115.455C201.187 115.364 201.187 115.318 201.233 115.273C201.002 115.136 200.726 114.955 200.541 114.682V114.682ZM192.291 107.227L192.198 107.182C192.152 107.182 192.152 107.182 192.152 107.136H192.106C192.06 107.136 192.06 107.136 192.06 107.182C191.968 107.182 191.968 107.227 191.968 107.273C191.922 107.273 191.922 107.273 191.922 107.318V107.364C191.83 107.318 191.83 107.545 191.922 107.545C191.922 107.591 191.922 107.591 191.968 107.591C191.968 107.636 191.968 107.636 192.014 107.636C192.014 107.682 192.106 107.682 192.106 107.636H192.152C192.152 107.591 192.152 107.591 192.198 107.591C192.198 107.545 192.198 107.545 192.245 107.545C192.291 107.545 192.291 107.545 192.291 107.5C192.291 107.455 192.291 107.455 192.337 107.455V107.318C192.291 107.318 192.245 107.273 192.291 107.227ZM195.563 113.545L195.748 113.682V113.545C195.609 113.591 195.563 113.545 195.563 113.545ZM193.166 110.909C193.12 110.818 193.12 110.818 193.074 110.818L193.213 111C193.213 110.955 193.212 110.909 193.166 110.909V110.909ZM208.884 113.455V113.591C209.023 113.591 209.115 113.591 209.115 113.455C209.069 113.409 208.93 113.409 208.884 113.455ZM207.317 112.773C207.363 112.773 207.317 112.727 207.317 112.773C207.271 112.682 207.271 112.682 207.225 112.682C207.087 112.636 206.81 112.636 206.81 112.364C206.81 112.318 206.81 112.318 206.764 112.318C206.764 112.273 206.764 112.182 206.718 112.182C206.718 112.136 206.718 112.136 206.672 112.136C206.672 112.091 206.58 112.091 206.534 112.091C206.534 112.045 206.441 112.045 206.441 112.091C206.395 112.091 206.349 112.091 206.349 112.136C206.303 112.136 206.303 112.136 206.303 112.182H206.257C206.211 112.182 206.211 112.182 206.211 112.227H206.165C206.119 112.227 206.119 112.227 206.119 112.273C206.027 112.273 205.98 112.273 205.98 112.364C205.934 112.364 205.934 112.364 205.934 112.409C205.842 112.409 205.842 112.636 205.934 112.636C205.934 112.682 205.934 112.727 205.98 112.727C205.98 112.773 205.98 112.818 206.027 112.818L206.211 113.091C206.303 113.273 206.211 113.409 205.934 113.364C205.934 113.455 205.842 113.455 205.888 113.591C205.98 113.682 206.073 113.545 206.211 113.591C206.257 113.455 206.257 113.318 206.395 113.273C206.395 113.364 206.626 113.364 206.626 113.273L206.58 113.091C206.626 113.091 206.626 113.091 206.626 113.045C206.81 113 206.764 113.227 206.764 113.364C207.041 113.409 207.179 113.364 207.409 113.273C207.363 113.227 207.502 112.818 207.317 112.773V112.773ZM208.101 112C208.101 111.955 208.009 111.955 208.009 112L207.686 112.045C207.548 112 207.455 111.727 207.317 111.818C207.225 112.273 207.778 112.409 208.055 112.636C208.101 112.5 208.377 112.318 208.239 112.091C208.193 112 208.147 112 208.101 112V112ZM206.211 114.818V114.955C206.303 115 206.303 114.818 206.211 114.818ZM209.76 112.273C209.76 112.227 209.668 112.227 209.622 112.227C209.622 112.182 209.53 112.182 209.53 112.227C209.299 112.273 209.207 112.182 209.069 112.318C208.838 112.318 208.654 112.364 208.654 112.591C208.884 112.682 208.977 112.909 209.345 112.909C209.299 112.773 209.391 112.818 209.391 112.682C209.622 112.682 209.945 112.545 209.852 112.364C209.852 112.273 209.806 112.273 209.76 112.273ZM206.395 114.909C206.488 114.909 206.395 115.136 206.534 115.136C206.626 115.045 206.488 114.818 206.395 114.909ZM206.211 114C206.165 114 206.073 114 206.073 114.045H206.027C206.027 114.136 205.98 114.318 206.119 114.273C206.119 114.318 206.165 114.318 206.165 114.273C206.257 114.227 206.165 114.045 206.211 114V114ZM212.526 111.227C212.526 111.182 212.434 111.182 212.434 111.227C212.387 111.227 212.387 111.273 212.434 111.273C212.434 111.318 212.526 111.318 212.526 111.227ZM210.59 110.682C210.682 110.818 210.682 110.5 210.59 110.682V110.682ZM204.321 114.636C204.321 114.682 204.367 114.682 204.321 114.636V114.636ZM205.105 115.591L205.335 115.545H205.381C205.427 115.455 205.427 115.364 205.381 115.273C205.335 115.455 205.243 115.545 205.105 115.591ZM204.367 114.318C204.321 114.318 204.321 114.364 204.321 114.409C204.367 114.409 204.367 114.364 204.367 114.318ZM204.321 114.636V114.364C204.275 114.409 204.275 114.682 204.321 114.636ZM204.459 114.273C204.413 114.273 204.367 114.273 204.367 114.318C204.413 114.318 204.459 114.318 204.459 114.273ZM204.598 114.773C204.782 115 205.013 115.182 205.381 115.227C205.243 115 204.966 114.727 204.598 114.773ZM204.367 114.682C204.367 114.727 204.413 114.727 204.367 114.682C204.413 114.727 204.413 114.682 204.367 114.682ZM204.413 114.727C204.413 114.773 204.505 114.773 204.598 114.773C204.598 114.727 204.505 114.727 204.413 114.727ZM195.563 111.818C195.563 111.864 195.655 111.864 195.702 111.864C195.655 111.818 195.609 111.818 195.563 111.818ZM198.098 111.409C198.052 111.409 198.052 111.455 198.052 111.5C198.052 111.545 198.052 111.591 198.006 111.591C198.006 111.636 198.006 111.682 197.96 111.682V111.818C198.006 111.818 198.098 111.818 198.098 111.864H198.145C198.145 111.818 198.191 111.818 198.237 111.773V111.727C198.191 111.727 198.191 111.682 198.237 111.682V111.545C198.237 111.455 198.237 111.364 198.283 111.318C198.191 111.364 198.052 111.318 198.098 111.409V111.409ZM198.098 111.273C198.145 111.273 198.191 111.273 198.237 111.227C198.191 111.227 198.145 111.227 198.098 111.273ZM198.006 110.591C198.052 110.409 197.868 110.591 198.006 110.591V110.591ZM200.495 111.818C200.588 111.773 200.68 111.727 200.68 111.545C200.541 111.409 200.357 111.545 200.265 111.591C200.265 111.727 200.311 111.818 200.495 111.818ZM200.219 111.591C200.219 111.545 200.173 111.591 200.219 111.591V111.591ZM197.499 109.909C197.684 109.864 197.73 109.955 197.868 109.955L197.822 109.773C197.684 109.727 197.499 109.818 197.361 109.864C197.407 109.955 197.315 110.091 197.407 110.136V110.182C197.453 110.182 197.453 110.182 197.499 110.227C197.453 110.091 197.453 110 197.499 109.909V109.909ZM197.361 110V109.909C197.407 109.909 197.407 109.909 197.407 109.864C197.499 109.864 197.453 110.045 197.361 110V110ZM197.822 111.273C197.684 111.364 197.545 111.227 197.499 111.364C197.453 111.364 197.453 111.409 197.453 111.455C197.407 111.455 197.407 111.455 197.407 111.5C197.315 111.5 197.315 111.545 197.315 111.591H197.269C197.315 111.773 197.223 111.682 197.223 111.909C197.776 112.091 198.052 111.545 197.822 111.273V111.273ZM199.481 111.682H199.573C199.573 111.773 199.85 111.773 199.804 111.636C200.08 111.682 200.127 111.455 200.173 111.273C200.219 111.273 200.219 111.227 200.219 111.182C200.265 111.182 200.265 111.091 200.265 111.045C200.311 111.045 200.311 110.909 200.265 110.909C200.265 110.864 200.265 110.864 200.219 110.864C200.219 110.818 200.219 110.773 200.173 110.773C200.173 110.727 200.173 110.727 200.127 110.727C200.127 110.682 200.127 110.682 200.08 110.682C200.08 110.636 200.08 110.636 200.034 110.636C200.034 110.591 199.896 110.5 199.942 110.636C199.85 110.636 199.85 110.682 199.85 110.727C199.573 110.773 199.435 111 199.481 111.364C199.389 111.409 199.389 111.682 199.481 111.682V111.682ZM197.914 110.364V109.955H197.868C197.868 110 197.868 110.045 197.914 110.091C197.776 110.182 197.638 110.227 197.453 110.182C197.453 110.273 197.545 110.318 197.637 110.364C197.637 110.318 197.637 110.318 197.684 110.318V110.364H197.914ZM198.052 110.727C198.052 110.682 198.052 110.591 198.006 110.591L198.052 111.273H198.098C198.098 111.227 198.191 111.227 198.237 111.227C198.375 111.182 198.467 111.182 198.605 111.227C198.605 111.273 198.698 111.273 198.698 111.227C198.744 111.227 198.744 111.227 198.744 111.182C198.974 110.909 199.066 110.591 199.205 110.182C199.251 110.182 199.251 110.182 199.251 110.136C199.573 110 198.928 109.955 198.882 110.045C198.79 110.091 198.652 110 198.605 110.091H198.559C198.513 110.273 198.283 110.227 198.329 110.455C198.283 110.455 198.283 110.5 198.283 110.545C198.098 110.5 198.145 110.636 198.052 110.727V110.727ZM200.403 113.318C200.449 112.955 201.095 112.955 201.095 112.682C201.048 112.773 201.002 112.545 201.002 112.455C200.449 112.5 200.219 112.955 200.173 113.318C200.173 113.273 200.173 113.227 200.219 113.227C200.173 113.364 200.311 113.273 200.403 113.318ZM203.63 111.364C203.676 111.364 203.63 111.318 203.63 111.364V111.364ZM204.505 110.318C204.505 110.364 204.459 110.318 204.505 110.318V110.318ZM204.413 110.273C204.367 110.409 204.413 110.136 204.275 110.227L204.229 110.545C204.367 110.545 204.552 110.409 204.413 110.273V110.273ZM201.002 114.455C200.91 114.5 200.91 114.636 200.956 114.636C201.048 114.818 201.233 114.545 201.095 114.455C201.095 114.318 201.002 114.364 201.002 114.455ZM205.151 110.682C205.197 110.682 205.197 110.636 205.151 110.682C205.243 110.636 205.243 110.636 205.243 110.591C205.289 110.591 205.289 110.591 205.289 110.545C205.335 110.545 205.335 110.545 205.335 110.5C205.427 110.5 205.427 110.455 205.427 110.364C205.566 110.227 205.427 110 205.289 110C205.243 110 205.243 110 205.243 109.955V109.909C205.151 109.864 204.966 109.864 204.828 109.864C204.736 110.136 204.69 110.5 204.828 110.727C204.782 110.864 205.197 110.818 205.151 110.682V110.682ZM195.702 111.864C195.794 111.864 195.794 111.818 195.794 111.773C195.748 111.773 195.702 111.818 195.702 111.864ZM201.187 112.091C201.187 112.136 201.141 112.091 201.187 112.091V112.091ZM195.563 111.818V111.682C195.471 111.682 195.471 111.818 195.563 111.818ZM195.563 111.591C195.517 111.591 195.517 111.636 195.517 111.682C195.563 111.682 195.563 111.636 195.563 111.591ZM195.609 111.5C195.563 111.5 195.563 111.545 195.563 111.591C195.609 111.591 195.609 111.545 195.609 111.5ZM194.319 109.455C194.227 109.455 194.227 109.682 194.365 109.636C194.411 109.864 194.595 109.591 194.688 109.591C194.734 109.409 194.411 109.273 194.319 109.455ZM195.794 111.545V111.682C195.84 111.682 195.84 111.545 195.794 111.545ZM194.964 109.864C194.918 109.955 194.918 109.955 194.918 110C195.056 110.045 195.056 109.864 194.964 109.864ZM195.978 109.273V109.136C195.932 109.136 195.932 109.091 195.932 109.045C195.886 109.045 195.886 109.045 195.886 109H195.84C195.84 109.045 195.794 109.045 195.794 109H195.563C195.471 109.091 195.379 109.136 195.379 109.318C195.471 109.409 195.655 109.5 195.794 109.409C195.794 109.364 195.794 109.364 195.84 109.364C195.886 109.318 195.886 109.318 195.978 109.273V109.273ZM196.716 113.955C196.808 113.955 196.9 114.045 196.992 113.955L196.946 113.773C196.762 113.727 196.716 113.818 196.716 113.955ZM196.255 110.136C196.255 110.182 196.255 110.227 196.301 110.227L196.623 111.045C197.407 111.045 197.038 109.682 196.347 109.864C196.347 109.909 196.347 109.909 196.301 109.909C196.301 109.955 196.301 109.955 196.255 109.955C196.255 110 196.255 110 196.209 110C196.209 109.909 196.209 110.136 196.255 110.136ZM196.623 111.455C196.531 111.409 196.485 111.455 196.439 111.5C196.393 111.5 196.393 111.5 196.393 111.545C196.347 111.545 196.347 111.545 196.347 111.591C196.301 111.591 196.301 111.591 196.301 111.636C196.209 111.636 196.301 111.773 196.255 111.864C196.301 111.909 196.347 111.909 196.439 111.909V111.955L196.623 112C196.67 112.136 196.946 112.091 197.038 112.045C197.084 111.682 196.854 111.591 196.623 111.455V111.455ZM195.932 111.364C195.932 111.409 195.978 111.409 196.024 111.409C196.024 111.364 195.978 111.364 195.932 111.364ZM195.794 111.727C195.84 111.773 195.84 111.727 195.794 111.727V111.727ZM196.301 111.364C196.255 111.364 196.209 111.364 196.209 111.409L196.301 111.364ZM196.209 111.409H196.024C195.978 111.455 196.209 111.455 196.209 111.409Z" fill="#3D2F30"/>
        <path fill-rule="evenodd" clip-rule="evenodd" d="M214.877 105.273C212.203 107.227 209.391 109.045 205.243 109.818C204.459 109.955 203.86 110.364 202.846 110.409C202.293 110.409 201.786 110.227 201.141 110.227C200.495 110.182 199.712 110.409 198.836 110.227C198.006 110.091 196.577 109.273 195.333 108.864C194.641 108.636 193.996 108.682 193.443 108.455C192.567 108.091 191.461 107.091 191.23 106.364C190.631 104.318 191.922 101.455 193.028 100.636C193.305 100.455 193.627 100.455 193.95 100.227C194.549 99.8182 194.872 99.1818 195.333 98.9546C195.702 98.7727 196.116 98.7273 196.531 98.5455C197.545 98.0909 198.467 97.3636 199.527 96.8636C200.68 96.3182 201.97 96.1364 203.814 95.9546C207.225 95.6364 210.452 94.7727 213.54 94.5909C215.153 94.5 215.291 95 216.444 95.5L217.458 95.6818C217.688 95.8182 218.057 96.1818 218.38 96.3636C218.841 96.6364 219.209 96.6364 219.394 96.8636C219.762 97.3182 219.947 98.4091 219.809 99.1364C219.716 99.5909 219.255 99.9091 218.795 100.409C218.426 100.818 218.195 101.409 217.873 101.773C216.951 103 215.476 103.818 214.877 105.273V105.273Z" fill="#6C4317"/>
        <path fill-rule="evenodd" clip-rule="evenodd" d="M214.877 105C212.203 106.955 209.391 108.773 205.243 109.545C204.459 109.682 203.86 110.091 202.846 110.136C202.293 110.136 201.786 109.955 201.141 109.955C200.495 109.909 199.712 110.136 198.836 109.955C198.006 109.818 196.577 109 195.333 108.591C194.641 108.364 193.996 108.409 193.443 108.182C192.567 107.818 191.461 106.818 191.23 106.091C190.631 104.045 191.922 101.182 193.028 100.318C193.305 100.136 193.627 100.136 193.95 99.9091C194.549 99.5 194.872 98.8636 195.333 98.6364C195.702 98.4546 196.116 98.4091 196.531 98.2273C197.545 97.7727 198.467 97.0455 199.527 96.5455C200.68 96 201.97 95.8182 203.814 95.6364C207.225 95.3182 210.452 94.4546 213.54 94.2727C215.153 94.1818 215.291 94.6818 216.444 95.1818L217.458 95.3636C217.688 95.5 218.057 95.8636 218.38 96.0455C218.841 96.3182 219.209 96.3182 219.394 96.5455C219.762 97 219.947 98.0909 219.809 98.8182C219.716 99.2727 219.255 99.5909 218.795 100.091C218.426 100.5 218.195 101.091 217.873 101.455C216.951 102.727 215.476 103.545 214.877 105V105Z" fill="#A3B34F"/>
        <path fill-rule="evenodd" clip-rule="evenodd" d="M205.98 96.1818C207.778 95.8182 210.175 95.3636 212.295 95.1818C213.862 95.0455 214.554 95.5 215.706 96.0909C216.812 96.6364 218.564 97.4545 218.195 99.2727C218.149 99.5 216.951 101.227 216.674 101.545C216.305 102 215.568 102.409 215.061 103.045C214.416 103.818 213.955 104.682 213.448 105.136C213.125 105.409 212.664 105.455 212.249 105.727C211.65 106.136 211.235 106.773 210.544 107.091C210.221 107.227 209.852 107.227 209.53 107.409C208.838 107.727 207.594 108.5 206.626 108.682C206.303 108.773 205.842 108.636 205.52 108.682C204.69 108.818 203.952 109.227 203.123 109.273C202.062 109.318 200.772 109.364 199.712 109.182C199.343 109.136 199.02 108.773 198.513 108.591C195.886 107.727 192.014 107.773 192.705 103.636C192.798 103.182 193.212 102.727 193.489 102.136C193.72 101.682 193.72 101.182 193.904 100.955C194.134 100.636 194.734 100.409 195.195 100.045C196.162 99.3182 197.038 98.6364 198.421 98.1818L205.98 96.1818V96.1818Z" fill="#DDE072"/>
        <path fill-rule="evenodd" clip-rule="evenodd" d="M206.81 96.4091C211.927 94.5909 218.841 97.9091 215.338 102.318C214.738 103.045 213.632 104.091 212.941 104.591C212.48 104.955 211.973 105 211.42 105.273C210.083 106 208.977 106.636 207.594 107.045C206.027 107.5 204.413 107.455 202.57 107.727C201.924 107.818 201.325 108.091 200.68 108.136C197.914 108.364 195.379 107.318 194.503 105.773C193.443 103.955 195.563 101.5 196.716 101.045L206.81 96.4091Z" fill="#EAECA2"/>
        <path fill-rule="evenodd" clip-rule="evenodd" d="M213.079 101.409C213.033 100.409 211.88 98.7727 211.097 98.0455C210.267 97.2727 208.654 96.5455 208.285 96.3636C208.009 96.3182 207.824 96.1818 207.502 96.1818C204.367 95.6364 201.555 96.6818 199.942 98.3182C199.573 98.5909 199.251 98.9091 199.251 99.1818C199.251 99.1818 199.251 99.2273 199.205 99.2273C199.159 99.2273 199.113 99.3182 198.928 99.4091C197.776 100.318 197.084 103.409 197.73 104.136C198.052 104.5 198.237 104.545 198.329 104.636C199.942 105.409 201.371 106.409 203.768 106.545H205.75C205.888 106.545 206.165 106.545 206.303 106.5C206.764 106.455 206.534 106.455 206.856 106.409C209.576 106 213.217 104.091 213.079 101.409V101.409Z" fill="#6C4317"/>
        <path fill-rule="evenodd" clip-rule="evenodd" d="M203.768 106.591C201.371 106.455 199.942 105.409 198.329 104.682C198.237 104.591 198.052 104.545 197.73 104.182C197.084 103.455 197.776 100.318 198.928 99.4546C199.159 99.2728 199.205 99.2273 199.251 99.2728C199.113 98.6818 200.91 97.6364 201.233 97.6818C200.864 97.8637 200.772 97.7727 200.449 98.2728C201.187 98 201.786 97.7727 202.339 98.2728C202.708 98.2728 202.754 97.8637 202.938 97.6818C202.984 97.3182 202.708 97.3182 202.754 97C203.123 97 203.261 97.3182 203.538 97.4091C203.676 97.3182 203.814 96.3637 203.445 96.4091C203.676 96.3182 203.814 96.2727 204.229 96.2273C204.413 96.3182 204.183 96.3182 204.045 96.3182C203.63 96.9546 203.952 98 204.828 97.9091C205.105 97.6364 204.828 96.7727 205.52 96.9091C205.427 97.2273 205.612 97.2728 205.612 97.5C206.349 97.1364 207.225 96.9091 207.824 96.4091C207.824 96.5909 207.824 97.3182 208.239 97.4091C208.009 98.3637 207.732 99.2273 206.718 99.3637C206.672 100.091 206.856 101.045 206.211 101.136C206.119 100.455 206.488 99.8182 206.211 99.2728C205.612 99.3637 205.566 99.9546 205.289 100.364H204.505C205.243 100.727 203.353 101.5 204.321 102.318C204.736 102.182 205.427 101.773 205.842 102.227C205.796 102.5 205.658 102.682 205.427 102.818C205.612 103.045 205.888 103.182 205.934 103.5C206.073 103.5 206.119 103.091 206.119 103.5C206.257 103.409 206.257 103.182 206.441 103.091C206.902 103.591 207.179 102.909 207.548 103.409C207.778 103.227 207.594 102.682 207.363 102.636C207.455 102.227 207.824 102.636 207.963 102.455C208.055 101.955 207.64 101.955 207.64 101.545C207.778 101.409 208.055 101.455 208.331 101.455C208.193 102 208.516 102.045 208.746 102.227C208.746 102.545 208.47 102.591 208.562 103C208.7 103.227 209.069 103.091 208.884 103.5H209.299C209.438 103.091 209.714 102.909 209.991 102.409C209.76 102.182 209.898 101.5 209.576 101.318C209.714 101 210.037 100.773 210.359 100.909C210.452 101.5 210.129 101.727 209.945 102.091C210.175 102.364 210.636 102.227 210.959 102.591C211.143 102.591 211.097 102.318 211.373 102.409L211.189 101.909C211.097 102 210.959 102 210.774 102C210.866 101.636 211.696 101.545 211.466 101.227C211.88 100.818 212.618 101.364 212.756 101.818C212.572 101.909 212.019 102.409 212.572 102.5C211.973 103.682 211.742 103.864 210.866 104.682C210.636 104.409 210.405 104.409 210.175 104.364C209.898 104.727 209.391 104.909 208.654 104.864C208.516 105.364 208.285 105.773 207.963 106.045C207.87 106 207.778 105.955 207.64 105.955C207.64 105.727 207.64 105.5 207.732 105.364C206.856 105.545 206.119 106 205.704 106.591H203.768V106.591ZM199.758 99.5455C199.573 99.5 199.758 99.4091 199.758 99.2273C199.435 99.3182 199.205 100 199.251 100.136C199.435 99.9546 199.481 99.6818 199.666 99.5455C199.666 99.5909 199.712 99.6364 199.758 99.5455V99.5455Z" fill="#633C11"/>
        <path fill-rule="evenodd" clip-rule="evenodd" d="M232.807 105.409V105C232.807 104.864 232.807 104.727 232.761 104.591L232.715 104.182V104.091L232.669 103.773C232.669 103.727 232.669 103.682 232.623 103.636L232.577 103.364C232.577 103.318 232.577 103.273 232.53 103.227C232.53 103.136 232.484 103.045 232.484 103L232.438 102.864C232.392 102.773 232.392 102.682 232.346 102.636C232.346 102.591 232.346 102.545 232.3 102.545C232.254 102.455 232.208 102.318 232.208 102.227C231.885 101.364 231.194 100.727 230.917 99.8636C230.733 99.3182 230.687 98.5909 230.41 98C229.949 97 228.981 96.2273 228.428 95.2273C228.198 94.8182 227.967 94.4091 227.783 93.9546C227.414 93.2727 227.045 92.5455 226.538 91.9546C226.077 91.4546 225.57 91 225.017 90.5455C223.773 89.5909 222.298 88.8636 220.823 88.2727C219.209 87.6364 217.734 87.3636 216.121 87.3636C215.153 87.3636 214.139 87.5 212.987 87.7727C211.973 88 211.143 88.2727 210.452 88.5909C209.115 89.2273 208.147 90.0455 206.995 91.1364C206.027 92.0455 205.013 92.8182 204.275 93.8636C204.137 94.0455 204.045 94.2727 203.952 94.4546L203.676 95.1364C203.63 95.2727 203.584 95.3636 203.584 95.5H203.814L204.69 95.4091L204.966 95.3182L206.948 95.0909L208.608 94.8182C210.313 94.5 211.927 94.2273 213.54 94.1364H213.909C214.554 94.1364 214.923 94.2273 215.291 94.4091C216.582 94.6364 217.688 95.1818 218.61 95.9546C219.025 96.0455 219.394 96.1818 219.716 96.3636C221.145 98.9546 219.44 101.773 218.334 103.591C218.103 104.318 217.273 104.409 216.951 105.091C216.536 105.864 216.628 107 215.937 107.682C215.568 108.227 214.83 108.409 214.646 109.091C214.323 109.318 213.816 109.273 213.77 109.727V109.909C215.291 110.773 217.181 111.273 219.071 112C220.684 112.591 223.312 113.545 225.386 113.364C226.216 113.318 226.4 112.955 226.999 112.682C227.414 112.5 227.921 112.409 228.198 112.273C229.073 111.818 229.58 111.045 230.41 110.318C231.194 109.591 232.023 108.864 232.392 108.045C232.761 107.318 232.853 106.455 232.853 105.591C232.807 105.455 232.807 105.455 232.807 105.409V105.409Z" fill="#6C4317"/>
        <path fill-rule="evenodd" clip-rule="evenodd" d="M232.254 102.227C231.931 101.364 231.24 100.727 230.963 99.8636C230.779 99.3182 230.733 98.5909 230.456 98C229.995 97 229.027 96.2273 228.474 95.2273C227.829 94.1364 227.414 92.9091 226.584 91.9545C225.155 90.3636 222.989 89.1364 220.869 88.3182C218.288 87.3182 216.075 87.1364 213.033 87.8182C210.083 88.4545 208.792 89.5454 207.041 91.1818C205.612 92.5 204.091 93.5 203.63 95.5454H203.86L204.736 95.4545L205.013 95.3636L206.995 95.1364L208.654 94.8636C210.359 94.5454 211.973 94.2727 213.586 94.1818H213.955C214.6 94.1818 214.969 94.2727 215.338 94.4545C216.628 94.6818 217.734 95.2273 218.656 96C219.071 96.0909 219.44 96.2273 219.763 96.4091C221.191 99 219.486 101.818 218.38 103.636C218.149 104.364 217.32 104.455 216.997 105.136C216.582 105.909 216.674 107.045 215.983 107.727C215.614 108.273 214.877 108.409 214.692 109.091C214.416 109.409 213.816 109.227 213.77 109.773C215.291 110.636 217.181 111.136 219.071 111.864C220.684 112.455 223.312 113.409 225.386 113.227C226.216 113.182 226.4 112.818 226.999 112.545C227.414 112.364 227.921 112.273 228.198 112.136C229.073 111.682 229.58 110.909 230.41 110.182C231.194 109.455 232.023 108.727 232.392 107.909C233.13 106.136 232.853 103.773 232.254 102.227V102.227Z" fill="#A3B34F"/>
        <path fill-rule="evenodd" clip-rule="evenodd" d="M230.041 100.136C229.765 99.5 229.765 98.8182 229.534 98.2727C229.12 97.3182 228.152 96.5454 227.645 95.5909C227.045 94.5 226.63 93.3636 225.755 92.4091C224.049 90.6363 220.362 88.5 217.504 88.2727C213.632 88 209.76 89.9091 207.778 91.8182C206.58 93 205.243 93.8182 204.966 95.2727L206.948 95.0454L208.608 94.7727C210.313 94.4545 211.927 94.1818 213.54 94.0909H213.909C214.554 94.0909 214.923 94.1818 215.291 94.3636C216.582 94.5909 217.688 95.1363 218.61 95.9091C219.025 96 219.394 96.1363 219.716 96.3182C221.145 98.9091 219.44 101.727 218.334 103.545C218.103 104.273 217.273 104.364 216.951 105.045C216.536 105.818 216.628 106.955 215.937 107.636C215.568 108.182 214.784 108.318 214.6 109.045C214.6 109.091 214.462 109.182 214.462 109.182C214.416 109.182 214.554 109.227 214.646 109.227C217.366 110.091 220.27 111.682 223.45 112C225.432 112.182 226.538 111.545 227.875 110.909C228.152 110.773 228.52 110.455 228.797 110.227C229.995 109.182 231.563 107.318 231.701 105.364C231.839 103.045 230.641 101.636 230.041 100.136V100.136Z" fill="#DDE072"/>
        <path fill-rule="evenodd" clip-rule="evenodd" d="M227.137 97.6818C225.432 95.1818 220.869 91.7727 218.241 91.1818C215.061 90.4545 211.696 91.3636 209.945 92.7727C209.668 93 208.792 93.8181 208.654 94.4545C208.654 94.5 208.423 94.7727 208.608 94.8636H208.7C210.405 94.5454 212.019 94.2727 213.632 94.1818H214.001C214.646 94.1818 215.015 94.2727 215.384 94.4545C216.674 94.6818 217.78 95.2272 218.702 96C219.117 96.0909 219.486 96.2272 219.809 96.4091C221.237 99 219.532 101.818 218.426 103.636C218.195 104.364 217.366 104.455 217.043 105.136C216.628 105.909 216.72 107.045 216.029 107.727C216.72 108.318 217.688 108.409 218.518 108.727C220.039 109.273 221.514 110.227 223.45 109.727C225.017 109.318 226.031 108.318 226.953 106.955C227.46 106.182 228.152 105.591 228.336 104.364C228.612 101.864 228.198 99.1818 227.137 97.6818V97.6818Z" fill="#EAECA2"/>
        <path fill-rule="evenodd" clip-rule="evenodd" d="M221.975 97.5454C221.975 97.5 221.975 97.4091 221.883 97.3181C221.791 97 221.652 96.6818 221.514 96.3636C221.191 95.4545 220.777 94.8636 220.177 94.3181C219.255 93.5454 218.103 92.7727 216.674 92.6363H214.877C213.402 92.5 211.973 93.4091 211.88 93.5454C211.742 93.6363 211.235 93.9091 211.005 94.1818C210.959 94.2272 210.912 94.3181 210.866 94.4545C211.788 94.3181 212.756 94.1818 213.632 94.1363H214.001C214.923 94.1363 215.337 94.3636 215.798 94.6363C216.029 94.7727 216.259 94.9091 216.628 95.0454C216.72 95.0909 216.905 95.0909 217.043 95.1363C217.227 95.1363 217.458 95.1818 217.642 95.2727C217.78 95.3636 217.965 95.5 218.103 95.6363C218.241 95.7727 218.426 95.9091 218.564 96C218.748 96.0909 218.933 96.1818 219.071 96.2272C219.302 96.3181 219.486 96.3636 219.624 96.5454C219.947 96.9545 220.131 97.7727 220.131 98.5454C220.131 98.8181 220.131 99.0454 220.085 99.2727C220.039 99.5454 219.901 99.7272 219.67 99.9545C219.624 101.364 219.117 102.5 218.426 103.591C219.255 103.227 220.131 102.909 220.869 102.455C221.606 100.955 222.482 99.3636 221.975 97.5454Z" fill="#949952"/>
        <path fill-rule="evenodd" clip-rule="evenodd" d="M220.684 94.9091C220.684 94.9546 220.638 95.0455 220.546 95.0455C219.624 94.6818 218.887 93.6818 217.919 94C216.905 94.2728 216.536 93.5909 216.352 93.5C216.167 93.4091 215.891 93.3182 215.891 93.3182C215.199 93 215.153 93.1818 215.153 93.1818C215.245 93.4091 215.614 93.3182 215.66 93.4546C215.476 93.6818 215.153 93.5 215.061 93.1818C215.061 93.1364 214.877 93.1818 214.877 93.1818C214.877 93.1818 213.125 93.3637 213.125 94.0909C212.894 93.8182 212.295 94.0455 212.434 94.2273C212.848 94.1818 213.263 94.1364 213.632 94.1364H214.001C214.923 94.1364 215.337 94.3637 215.798 94.6364C216.029 94.7728 216.259 94.9091 216.628 95.0455C216.72 95.0909 216.905 95.0909 217.043 95.1364C217.227 95.1364 217.458 95.1818 217.642 95.2728C217.78 95.3637 217.965 95.5 218.103 95.6364C218.241 95.7728 218.426 95.9091 218.564 96C218.748 96.0909 218.933 96.1818 219.071 96.2273C219.302 96.3182 219.486 96.3637 219.624 96.5455C219.855 96.8182 219.993 97.3182 220.085 97.8637C220.73 98.3182 221.606 98.7273 222.113 99.2728V99.5455C222.574 97.2728 220.684 94.8637 220.684 94.9091V94.9091Z" fill="#B0AD51"/>
    </a>
    <a href="https://www.docker.com/" target="_blank">
        <g clip-path="url(#clip0_112_2)">
            <path d="M333.326 95.5285C333.135 95.3729 331.406 94.0725 327.694 94.0725C326.734 94.0725 325.74 94.167 324.78 94.3281C324.078 89.482 320.012 87.1368 319.849 87.0145L318.856 86.4421L318.215 87.3591C317.418 88.5928 316.806 89.9878 316.458 91.4105C315.784 94.167 316.2 96.7623 317.609 98.9797C315.913 99.93 313.162 100.152 312.583 100.186H267.139C265.954 100.186 264.994 101.136 264.994 102.309C264.932 106.238 265.601 110.161 266.976 113.868C268.543 117.919 270.879 120.932 273.889 122.766C277.28 124.822 282.817 125.994 289.055 125.994C291.869 125.994 294.688 125.739 297.473 125.233C301.347 124.538 305.059 123.205 308.479 121.276C311.297 119.659 313.824 117.603 315.969 115.196C319.586 111.173 321.731 106.677 323.297 102.687C323.522 102.687 323.713 102.687 323.937 102.687C327.874 102.687 330.305 101.136 331.647 99.8022C332.545 98.9797 333.214 97.9627 333.697 96.8234L333.983 96.0009L333.326 95.5285ZM305.199 98.8852H311.281C311.567 98.8852 311.825 98.6629 311.825 98.3461V92.961C311.825 92.6776 311.601 92.4219 311.281 92.4219H305.199C304.913 92.4219 304.655 92.6442 304.655 92.961V98.3461C304.688 98.6629 304.913 98.8852 305.199 98.8852ZM296.72 83.4633H302.802C303.088 83.4633 303.346 83.241 303.346 82.9242V77.5391C303.346 77.2556 303.088 77 302.802 77H296.72C296.434 77 296.176 77.2223 296.176 77.5391V82.9242C296.176 83.2077 296.428 83.4633 296.72 83.4633ZM296.72 91.1882H302.802C303.088 91.1882 303.346 90.9325 303.346 90.6491V85.2639C303.346 84.9805 303.088 84.7248 302.802 84.7248H296.72C296.434 84.7248 296.176 84.9471 296.176 85.2639V90.6491C296.176 90.9381 296.428 91.1882 296.72 91.1882ZM288.303 91.1882H294.384C294.671 91.1882 294.929 90.9325 294.929 90.6491V85.2639C294.929 84.9805 294.704 84.7248 294.384 84.7248H288.303C288.017 84.7248 287.758 84.9471 287.758 85.2639V90.6491C287.758 90.9381 287.983 91.1882 288.303 91.1882ZM279.757 91.1882H285.838C286.124 91.1882 286.383 90.9325 286.383 90.6491V85.2639C286.383 84.9805 286.158 84.7248 285.838 84.7248H279.757C279.47 84.7248 279.212 84.9471 279.212 85.2639V90.6491C279.246 90.9381 279.47 91.1882 279.757 91.1882ZM296.72 98.8852H302.802C303.088 98.8852 303.346 98.6629 303.346 98.3461V92.961C303.346 92.6776 303.122 92.4219 302.802 92.4219H296.72C296.434 92.4219 296.176 92.6442 296.176 92.961V98.3461C296.176 98.6629 296.428 98.8852 296.72 98.8852ZM288.303 98.8852H294.384C294.671 98.8852 294.929 98.6629 294.929 98.3461V92.961C294.929 92.6776 294.704 92.4219 294.384 92.4219H288.303C288.017 92.4219 287.758 92.6442 287.758 92.961V98.3461C287.758 98.6629 287.983 98.8852 288.303 98.8852ZM279.757 98.8852H285.838C286.124 98.8852 286.383 98.6629 286.383 98.3461V92.961C286.383 92.6776 286.158 92.4219 285.838 92.4219H279.757C279.47 92.4219 279.212 92.6442 279.212 92.961V98.3461C279.246 98.6629 279.47 98.8852 279.757 98.8852ZM271.373 98.8852H277.454C277.741 98.8852 277.999 98.6629 277.999 98.3461V92.961C277.999 92.6776 277.774 92.4219 277.454 92.4219H271.373C271.087 92.4219 270.828 92.6442 270.828 92.961V98.3461C270.862 98.6629 271.087 98.8852 271.373 98.8852Z" fill="#0091E2"/>
        </g>
    </a>
    <a href="https://supabase.com/" target="_blank">
        <g clip-path="url(#clip1_112_2)">
            <path d="M305.639 49.7742C304.354 51.3994 301.747 50.509 301.716 48.4338L301.263 18.0814H321.592C325.274 18.0814 327.327 22.351 325.038 25.2461L305.639 49.7742Z" fill="url(#paint0_linear_112_2)"/>
            <path d="M305.639 49.7742C304.354 51.3994 301.747 50.509 301.716 48.4338L301.263 18.0814H321.592C325.274 18.0814 327.327 22.351 325.038 25.2461L305.639 49.7742Z" fill="url(#paint1_linear_112_2)" fill-opacity="0.2"/>
            <path d="M297.372 0.934738C298.657 -0.690673 301.264 0.199935 301.295 2.27517L301.493 32.6275H281.42C277.737 32.6275 275.684 28.3579 277.974 25.4628L297.372 0.934738Z" fill="#3ECF8E"/>
        </g>
        <defs>
            <linearGradient id="paint0_linear_112_2" x1="301.263" y1="24.8113" x2="319.352" y2="32.3675" gradientUnits="userSpaceOnUse">
                <stop stop-color="#249361"/>
                <stop offset="1" stop-color="#3ECF8E"/>
            </linearGradient>
            <linearGradient id="paint1_linear_112_2" x1="293.254" y1="13.8007" x2="301.544" y2="29.3454" gradientUnits="userSpaceOnUse">
                <stop/>
                <stop offset="1" stop-opacity="0"/>
            </linearGradient>
            <clipPath id="clip0_112_2">
                <rect width="69" height="49" fill="white" transform="translate(265 77)"/>
            </clipPath>
            <clipPath id="clip1_112_2">
                <rect width="49" height="51" fill="white" transform="translate(277)"/>
            </clipPath>
            <clipPath id="clip2_112_2">
                <rect width="45" height="44" fill="white" transform="translate(98 85)"/>
            </clipPath>
        </defs>
    </a>
</svg>
