<svg width="339" height="60" viewBox="0 0 339 60" fill="none"
    xmlns="http://www.w3.org/2000/svg">
    <a href="https://www.phoenixframework.org/" target="_blank">
        <path d="M22.5316 38.0949C22.2673 38.0473 22.1637 38.0292 22.0601 38.01C18.7113 37.3873 16.5945 35.3609 15.5913 32.1752C14.966 30.1896 16.1023 28.7274 18.1849 28.631C19.8902 28.552 21.0574 29.5322 22.0896 30.6727C23.4202 32.1431 24.6398 33.7132 25.9467 35.2057C27.8283 37.3542 30.0452 38.7377 33.0785 38.3107C35.7984 37.9277 38.1687 36.8363 40.2312 35.0398C40.5412 34.7698 40.8813 34.5345 41.2078 34.283C41.1391 34.2021 41.0707 34.1213 41.002 34.0404C39.2707 34.5781 37.5049 34.7588 35.7007 34.6681C32.9707 34.5307 30.3694 33.9607 28.0418 32.4619C25.9179 31.0941 24.3516 29.2613 23.607 26.8132C23.0055 24.8356 24.2365 23.452 26.2859 23.738C27.0961 23.8509 27.7781 24.2159 28.3903 24.7334C28.8888 25.1543 29.367 25.6006 29.8753 26.0088C32.2673 27.9309 35.6098 28.0378 38.6461 25.9509C33.6544 25.9282 30.2583 23.1825 27.2754 19.7027C26.108 18.3408 24.9682 16.9545 23.7766 15.6141C21.4711 13.0202 18.9134 10.7351 15.4111 9.95556C10.9373 8.9597 6.61828 9.61056 2.47266 11.5092C1.64602 11.8877 0.852187 12.3279 0 13.0371C0.421875 13.0371 0.652031 13.0423 0.881719 13.0364C2.97188 12.9825 4.5382 13.9113 5.66789 15.6211C6.49008 16.8654 6.8775 18.2726 7.17281 19.7203C7.61109 21.8688 7.38422 24.0593 7.63734 26.2177C8.28797 31.7665 11.1239 35.6386 16.4044 37.6214C18.3408 38.3487 20.3269 38.5908 22.5316 38.0949ZM9.18656 12.7831C8.35219 12.9935 7.68539 12.6567 6.9982 11.9613C8.175 11.6681 9.21281 11.5545 10.328 11.5106C10.2368 12.2346 9.80977 12.626 9.18656 12.7831ZM36.5283 45.1856C36.4556 44.6515 35.9993 44.4162 35.6405 44.1368C34.0533 42.9014 32.197 42.4641 30.229 42.4277C29.0545 42.4062 27.8923 42.3185 26.7846 41.9067C26.277 41.7181 25.7091 41.4757 25.722 40.8197C25.7348 40.1541 26.314 39.9659 26.8411 39.8084C27.2726 39.6795 27.7179 39.5972 28.2091 39.4824C26.9613 38.6827 25.7423 38.5718 24.1181 39.225C21.5613 40.253 19.0406 40.1311 16.4918 39.2107C15.0527 38.6913 13.7756 37.8759 12.446 37.1538L12.4097 37.1789C12.427 37.167 12.4453 37.1543 12.4441 37.155C12.4113 37.0547 12.3518 37.0521 12.2754 37.1081C12.3103 37.1386 12.345 37.1691 12.3797 37.1995C13.4824 39.0068 14.9721 40.4609 16.6549 41.7035C19.8959 44.0965 23.4359 45.5236 27.578 44.8903C28.9158 44.6857 30.2637 44.527 31.613 44.4183C33.3047 44.2817 34.9165 44.7577 36.5283 45.1856ZM28.7191 19.2593C28.6296 19.1944 28.5436 19.0315 28.3608 19.2C29.8509 21.2156 31.7653 22.7016 34.0704 23.637C37.7906 25.1466 41.5664 25.4049 45.4282 24.0727C48.4263 23.0386 50.5823 24.049 51.702 26.9599C51.8639 23.5812 49.8762 21.1193 46.71 20.6367C44.9288 20.3653 43.2841 20.9562 41.6156 21.4402C36.9724 22.7864 32.6576 22.1217 28.7191 19.2593ZM51.8606 32.4377C52.4658 32.4886 53.0705 32.5434 53.6754 32.5964C52.3085 31.3957 50.6426 31.3006 48.9572 31.3964C46.3908 31.5422 44.5418 33.0223 42.8562 34.7906C41.3709 36.3492 40.0289 38.0977 37.8124 38.7239C37.8495 38.7905 37.8591 38.8238 37.8694 38.8238C38.1675 38.8282 38.4663 38.8423 38.7637 38.8287C41.9829 38.6829 45.0155 38.0039 47.4279 35.6677C48.1875 34.932 48.8674 34.1147 49.6008 33.3511C50.2125 32.7143 50.9543 32.3613 51.8606 32.4377ZM44.3824 28.4482C41.9801 28.6582 39.8932 29.652 37.9331 30.9624C36.4245 31.9709 34.811 32.4481 32.9979 32.1326C32.6789 32.077 32.3576 32.0356 32.0374 31.9875C32.0337 32.0323 32.0302 32.0768 32.0264 32.1216C32.1417 32.1809 32.253 32.2502 32.373 32.2978C32.6752 32.4174 32.9728 32.5613 33.2864 32.6358C36.7753 33.4652 40.1152 33.0403 43.1264 31.0952C45.0244 29.8692 46.9891 29.637 49.1187 29.9536C49.3338 29.9857 49.548 30.0249 49.7641 30.045C49.9643 30.064 50.1734 30.263 50.4436 30.0476C48.582 28.7027 46.5766 28.2565 44.3824 28.4482ZM35.7963 20.2936C37.0566 20.3372 38.3112 20.1722 39.6293 19.3892C39.2433 19.4234 39.0795 19.4227 38.9224 19.4541C37.1065 19.8159 35.4764 19.4199 34.0245 18.2719C33.4917 17.8505 32.9501 17.4403 32.4105 17.0276C30.2716 15.3917 27.8189 14.8444 25.136 14.8908C25.1794 15.0227 25.182 15.1132 25.2286 15.1601C28.1477 18.1127 31.5263 20.1464 35.7963 20.2936ZM56.9234 35.4431C55.1168 33.6513 52.6924 33.4205 50.449 34.9842C51.934 35.051 53.0487 35.5247 53.9527 36.4608C54.2726 36.792 54.6042 37.117 54.9621 37.4058C56.329 38.5083 58.6462 38.5613 60 37.5384C58.4098 36.9178 58.4098 36.9178 56.9234 35.4431ZM38.9311 49.1646C37.3434 46.2094 34.6751 45.5426 31.5926 45.7409C32.5038 45.9935 33.3548 46.3824 34.1358 46.9275C34.8532 47.4284 35.457 48.0485 36.052 48.6837C37.2312 49.942 39.0715 50.7143 40.2909 50.4532C39.731 50.1002 39.2337 49.7276 38.9311 49.1646ZM53.704 32.6574C53.7045 32.6386 53.7049 32.6196 53.7061 32.5999C53.7061 32.5997 53.7038 32.6023 53.7014 32.6049L53.7066 32.5992C53.6962 32.5983 53.6857 32.5974 53.6754 32.5964C53.6815 32.602 53.688 32.6065 53.6941 32.6121C53.6974 32.6271 53.7007 32.6424 53.704 32.6574ZM36.6164 45.2552C36.5955 45.2433 36.5747 45.2316 36.5538 45.2199C36.5566 45.2332 36.5599 45.2463 36.567 45.2571C36.5712 45.2642 36.5993 45.2562 36.6164 45.2552ZM36.5538 45.2199C36.552 45.2102 36.5503 45.2004 36.5477 45.1908C36.5477 45.1908 36.5442 45.1952 36.5405 45.1997L36.5477 45.191C36.5414 45.1892 36.5348 45.1875 36.5283 45.1856C36.5295 45.1936 36.5323 45.2002 36.5332 45.2084C36.5402 45.2121 36.547 45.2161 36.5538 45.2199Z" fill="#FD4F00"/>
    </a>
    <a href="https://nextjs.org/" target="_blank">
        <g clip-path="url(#clip0_112_0)">
            <path fill-rule="evenodd" clip-rule="evenodd" d="M100 30C100 15.0883 112.088 3 127 3C141.912 3 154 15.0883 154 30C154 39.3132 149.285 47.5252 142.111 52.3787L117.665 18.1539C117.21 17.5172 116.396 17.2472 115.651 17.486C114.906 17.7248 114.4 18.4176 114.4 19.2001V46.2H118V24.817L138.988 54.1996C135.376 55.9924 131.306 57 127 57C112.088 57 100 44.9116 100 30ZM136 39V17.4H139.6V39H136Z" fill="black"/>
        </g>
    </a>
    <a href="https://reactjs.org/" target="_blank">
        <path d="M244.826 20.3265C244.185 20.1058 243.521 19.897 242.836 19.6994C242.949 19.2405 243.052 18.7875 243.144 18.3422C244.65 11.0301 243.665 5.13938 240.302 3.19991C237.077 1.34022 231.803 3.27925 226.477 7.91477C225.964 8.36052 225.451 8.83246 224.937 9.32706C224.595 8.99982 224.254 8.68358 223.913 8.3811C218.331 3.42449 212.735 1.33571 209.375 3.28079C206.154 5.14587 205.199 10.6837 206.555 17.6134C206.686 18.2828 206.839 18.9663 207.012 19.6613C206.221 19.8861 205.456 20.1257 204.724 20.3807C198.18 22.6624 194 26.2386 194 29.9479C194 33.779 198.487 37.6216 205.304 39.9516C205.842 40.1354 206.4 40.3093 206.975 40.4744C206.789 41.226 206.626 41.9626 206.49 42.681C205.197 49.4905 206.207 54.8974 209.42 56.7507C212.739 58.6647 218.309 56.6974 223.733 51.9562C224.161 51.5814 224.592 51.184 225.023 50.7674C225.581 51.3054 226.139 51.8145 226.694 52.292C231.948 56.813 237.137 58.6386 240.347 56.7801C243.662 54.8607 244.74 49.0523 243.341 41.9855C243.234 41.4457 243.11 40.8944 242.97 40.3332C243.361 40.2175 243.745 40.0982 244.12 39.974C251.207 37.626 255.817 33.8302 255.817 29.9479C255.817 26.2251 251.503 22.6249 244.826 20.3265ZM243.289 37.4673C242.951 37.5792 242.604 37.6874 242.251 37.7923C241.469 35.3155 240.413 32.6818 239.121 29.9608C240.354 27.3046 241.369 24.7046 242.129 22.2439C242.762 22.4269 243.375 22.6199 243.967 22.8235C249.687 24.7928 253.177 27.7044 253.177 29.9479C253.177 32.3377 249.408 35.4398 243.289 37.4673ZM240.75 42.4983C241.369 45.6232 241.457 48.4484 241.048 50.657C240.679 52.6416 239.939 53.9648 239.023 54.4947C237.075 55.6223 232.909 54.1566 228.416 50.2902C227.901 49.847 227.382 49.3737 226.862 48.8728C228.604 46.9678 230.345 44.7532 232.044 42.2936C235.032 42.0284 237.855 41.5948 240.416 41.003C240.542 41.5117 240.654 42.0105 240.75 42.4983ZM215.075 54.2998C213.172 54.972 211.656 54.9913 210.739 54.4629C208.789 53.3382 207.979 48.997 209.084 43.1735C209.211 42.5066 209.362 41.8215 209.536 41.1212C212.068 41.6812 214.871 42.0842 217.866 42.327C219.577 44.7338 221.368 46.946 223.173 48.8831C222.778 49.2638 222.386 49.6262 221.995 49.9678C219.597 52.0643 217.193 53.5517 215.075 54.2998ZM206.158 37.4527C203.144 36.4225 200.654 35.0834 198.948 33.6223C197.415 32.3093 196.641 31.0057 196.641 29.9479C196.641 27.697 199.997 24.8258 205.594 22.8744C206.273 22.6376 206.984 22.4144 207.722 22.2048C208.495 24.7211 209.51 27.3519 210.734 30.0122C209.494 32.712 208.465 35.3847 207.684 37.9305C207.158 37.7793 206.648 37.6202 206.158 37.4527ZM209.147 17.1063C207.985 11.169 208.757 6.6902 210.698 5.56631C212.766 4.36903 217.34 6.0761 222.16 10.3559C222.468 10.6294 222.777 10.9157 223.087 11.2119C221.291 13.1405 219.516 15.3361 217.821 17.7287C214.914 17.9982 212.131 18.4311 209.572 19.0107C209.411 18.3636 209.269 17.7278 209.147 17.1063ZM235.812 23.6906C235.201 22.6341 234.573 21.6025 233.932 20.5991C235.905 20.8484 237.795 21.1794 239.569 21.5844C239.036 23.292 238.372 25.0773 237.591 26.9075C237.03 25.8429 236.437 24.7695 235.812 23.6906ZM224.938 13.0993C226.156 14.4189 227.376 15.8923 228.576 17.4908C227.367 17.4337 226.143 17.404 224.909 17.404C223.686 17.404 222.471 17.4331 221.27 17.4892C222.471 15.9055 223.701 14.4341 224.938 13.0993ZM213.995 23.7089C213.384 24.7684 212.801 25.8359 212.25 26.9055C211.48 25.0817 210.823 23.2882 210.285 21.5565C212.049 21.1618 213.93 20.8391 215.89 20.5945C215.24 21.6071 214.607 22.6463 213.995 23.7087V23.7089ZM215.946 39.4898C213.921 39.2639 212.012 38.9578 210.249 38.574C210.795 36.8113 211.467 34.9796 212.252 33.1165C212.806 34.1852 213.39 35.2532 214.005 36.3151H214.005C214.631 37.3968 215.28 38.4564 215.946 39.4898ZM225.011 46.9828C223.76 45.6323 222.511 44.1385 221.292 42.5317C222.476 42.5781 223.682 42.6019 224.909 42.6019C226.169 42.6019 227.414 42.5735 228.64 42.5189C227.437 44.1547 226.221 45.6508 225.011 46.9828ZM237.616 33.0215C238.442 34.9048 239.139 36.7269 239.692 38.4595C237.899 38.8684 235.964 39.1977 233.925 39.4425C234.567 38.4255 235.2 37.3762 235.823 36.2969C236.453 35.2049 237.05 34.1113 237.616 33.0215ZM233.535 34.9776C232.569 36.6531 231.577 38.2525 230.57 39.7623C228.735 39.8935 226.84 39.961 224.909 39.961C222.985 39.961 221.114 39.9013 219.312 39.7843C218.264 38.2547 217.25 36.6506 216.29 34.992H216.291C215.333 33.338 214.452 31.67 213.653 30.0113C214.451 28.3488 215.33 26.6789 216.282 25.0279L216.282 25.0282C217.237 23.3727 218.242 21.7763 219.28 20.2563C221.118 20.1174 223.003 20.0448 224.909 20.0448H224.909C226.823 20.0448 228.71 20.1179 230.548 20.2581C231.57 21.767 232.568 23.3582 233.527 25.0139C234.496 26.6882 235.386 28.3469 236.192 29.9738C235.389 31.6286 234.5 33.3041 233.535 34.9776ZM238.983 5.48775C241.053 6.68151 241.858 11.4959 240.557 17.8092C240.475 18.212 240.381 18.6223 240.28 19.0381C237.715 18.4464 234.93 18.006 232.014 17.7325C230.316 15.3136 228.555 13.1146 226.789 11.2107C227.264 10.7538 227.738 10.318 228.21 9.90683C232.774 5.93514 237.04 4.36705 238.983 5.48775ZM224.909 24.4278C227.957 24.4278 230.429 26.8992 230.429 29.9479C230.429 32.9965 227.957 35.468 224.909 35.468C221.86 35.468 219.389 32.9965 219.389 29.9479C219.389 26.8992 221.86 24.4278 224.909 24.4278Z" fill="#00D8FF"/>
    </a>
    <a href="https://remix.run/" target="_blank">
        <g clip-path="url(#clip1_112_0)">
            <path d="M319.614 5.5C332.443 5.5 338.818 11.497 338.818 21.0767C338.818 28.2419 334.332 32.9148 328.272 33.6937C333.387 34.7062 336.378 37.5879 336.929 43.2733L337.008 44.3189L337.078 45.2963L337.138 46.2106L337.18 46.9L337.225 47.7135L337.248 48.1777L337.281 48.9151L337.308 49.6117L337.321 50.012L337.339 50.6536L337.355 51.3871L337.36 51.7415L337.37 52.7686L337.374 53.8404L337.374 54.4813H324.145L324.145 54.214L324.15 53.6949L324.158 53.1892L324.181 51.9644L324.187 51.5538L324.191 50.9099L324.191 50.4982L324.187 50.0664L324.181 49.7275L324.171 49.2531L324.155 48.7499L324.134 48.2149L324.107 47.6449L324.091 47.3459L324.064 46.8785L324.033 46.3875L323.984 45.6938L323.943 45.1425C323.931 44.9724 323.917 44.8064 323.902 44.6442L323.868 44.3252C323.431 40.5591 321.91 39.0198 319.305 38.5064L319.085 38.4659C318.937 38.4405 318.786 38.4182 318.631 38.3987L318.397 38.3716C318.357 38.3674 318.317 38.3634 318.277 38.3596L318.035 38.3386L317.788 38.3216L317.536 38.3082L317.281 38.2986L317.022 38.2923L316.758 38.2892L295.818 38.2888V28.0862H317.254C317.604 28.0862 317.944 28.0797 318.273 28.0664L318.598 28.0508L318.916 28.0306L319.226 28.0058C319.278 28.0013 319.329 27.9965 319.379 27.9916L319.679 27.9597C319.877 27.9369 320.069 27.9108 320.257 27.8815L320.535 27.8351C324.014 27.2157 325.753 25.402 325.753 21.8627C325.753 17.8908 322.92 15.4836 317.254 15.4836H295.818V5.5H319.614ZM309.805 46.8754C311.541 46.8754 312.267 47.8219 312.526 48.728L312.56 48.8583L312.588 48.9873L312.606 49.0893L312.614 49.1397L312.627 49.2392L312.637 49.3366L312.641 49.3845L312.646 49.4782L312.648 49.5241L312.649 49.6133V54.4813H295.818V46.8754H309.805Z" fill="#121212"/>
        </g>
        <defs>
            <clipPath id="clip0_112_0">
                <rect width="54" height="54" fill="white" transform="translate(100 3)"/>
            </clipPath>
            <clipPath id="clip1_112_0">
                <rect width="43" height="49" fill="white" transform="translate(295.818 5.5)"/>
            </clipPath>
        </defs>
    </a>
</svg>
