<svg width="243" height="55" viewBox="0 0 243 55" fill="none" xmlns="http://www.w3.org/2000/svg" xmlns:xlink="http://www.w3.org/1999/xlink">
<a href="https://svelte.dev/" target="_blank">
<path d="M43.0678 7.26906C37.9344 -0.0324801 27.796 -2.19669 20.4655 2.44483L7.59124 10.5992C4.07459 12.7979 1.65237 16.3668 0.918557 20.4307C0.304428 23.8163 0.844211 27.3087 2.45245 30.355C1.35044 32.0163 0.598826 33.8824 0.243026 35.8405C-0.497885 39.9825 0.471297 44.2465 2.93177 47.6699C8.06623 54.9721 18.2047 57.1354 25.5341 52.4941L38.4083 44.3398C41.9252 42.1414 44.3475 38.5723 45.081 34.5082C45.695 31.1227 45.1557 27.6304 43.5482 24.5837C44.65 22.9225 45.4013 21.0565 45.7567 19.0985C46.4981 14.9564 45.5289 10.6922 43.068 7.26906" fill="#FF3E00"/>
<path d="M19.2066 48.3645C15.0555 49.4372 10.6719 47.8224 8.22724 44.3201C6.74686 42.2609 6.1637 39.6958 6.60946 37.2041C6.68418 36.7992 6.78701 36.3999 6.91721 36.009L7.15973 35.2741L7.81952 35.7557C9.34323 36.8683 11.0469 37.7142 12.8571 38.257L13.3358 38.4013L13.2917 38.8761C13.2332 39.5514 13.4172 40.2255 13.8111 40.7789C14.5468 41.8339 15.8666 42.3207 17.1168 41.9982C17.3966 41.9239 17.6634 41.8074 17.9078 41.6528L30.7862 33.4969C31.4233 33.0982 31.8624 32.4517 31.9961 31.7153C32.1296 30.9643 31.9539 30.1915 31.5085 29.5705C30.7724 28.5153 29.4522 28.0283 28.2016 28.3505C27.9221 28.4248 27.6557 28.5412 27.4116 28.6957L22.4973 31.809C21.6892 32.3196 20.8074 32.7044 19.8822 32.9502C15.7312 34.0228 11.3477 32.408 8.90307 28.9058C7.42263 26.8466 6.83947 24.2815 7.28529 21.7898C7.72661 19.3453 9.18382 17.1987 11.2994 15.8766L24.1766 7.72007C24.9851 7.20862 25.8676 6.82327 26.7934 6.57744C30.9444 5.50489 35.3279 7.11965 37.7726 10.6219C39.2529 12.6811 39.8361 15.2461 39.3903 17.7378C39.3153 18.1427 39.2125 18.542 39.0826 18.9329L38.8401 19.6679L38.1806 19.187C36.657 18.0737 34.9532 17.2274 33.1427 16.6846L32.664 16.5402L32.7081 16.0655C32.7661 15.3902 32.5821 14.7163 32.1887 14.1627C31.453 13.1077 30.1332 12.6209 28.883 12.9434C28.6032 13.0177 28.3364 13.1342 28.092 13.2888L15.2136 21.445C14.5766 21.8434 14.1377 22.4899 14.0046 23.2262C13.8703 23.9771 14.0457 24.7502 14.4913 25.3712C15.2274 26.4264 16.5476 26.9134 17.7982 26.5913C18.078 26.5168 18.3448 26.4003 18.5892 26.2458L23.5028 23.1337C24.3106 22.6224 25.1924 22.2372 26.1176 21.9915C30.2686 20.9189 34.6521 22.5337 37.0968 26.036C38.5772 28.0951 39.1604 30.6602 38.7146 33.1519C38.2729 35.5965 36.8158 37.7434 34.7005 39.066L21.8232 47.2219C21.0147 47.7333 20.1322 48.1187 19.2064 48.3645" fill="white"/>
</a>
<a href="https://reactjs.org/" target="_blank">
<path d="M231.826 17.8265C231.185 17.6058 230.521 17.397 229.836 17.1994C229.949 16.7405 230.052 16.2875 230.144 15.8422C231.65 8.53006 230.665 2.63938 227.302 0.699912C224.077 -1.15978 218.803 0.779247 213.477 5.41477C212.964 5.86052 212.451 6.33246 211.937 6.82706C211.595 6.49982 211.254 6.18358 210.913 5.8811C205.331 0.924492 199.735 -1.16429 196.375 0.780787C193.154 2.64587 192.199 8.18367 193.555 15.1134C193.686 15.7828 193.839 16.4663 194.012 17.1613C193.221 17.3861 192.456 17.6257 191.724 17.8807C185.18 20.1624 181 23.7386 181 27.4479C181 31.279 185.487 35.1216 192.304 37.4516C192.842 37.6354 193.4 37.8093 193.975 37.9744C193.789 38.726 193.626 39.4626 193.49 40.181C192.197 46.9905 193.207 52.3974 196.42 54.2507C199.739 56.1647 205.309 54.1974 210.733 49.4562C211.161 49.0814 211.592 48.684 212.023 48.2674C212.581 48.8054 213.139 49.3145 213.694 49.792C218.948 54.313 224.137 56.1386 227.347 54.2801C230.662 52.3607 231.74 46.5523 230.341 39.4855C230.234 38.9457 230.11 38.3944 229.97 37.8332C230.361 37.7175 230.745 37.5982 231.12 37.474C238.207 35.126 242.817 31.3302 242.817 27.4479C242.817 23.7251 238.503 20.1249 231.826 17.8265ZM230.289 34.9673C229.951 35.0792 229.604 35.1874 229.251 35.2923C228.469 32.8155 227.413 30.1818 226.121 27.4608C227.354 24.8046 228.369 22.2046 229.129 19.7439C229.762 19.9269 230.375 20.1199 230.967 20.3235C236.687 22.2928 240.177 25.2044 240.177 27.4479C240.177 29.8377 236.408 32.9398 230.289 34.9673ZM227.75 39.9983C228.369 43.1232 228.457 45.9484 228.048 48.157C227.679 50.1416 226.939 51.4648 226.023 51.9947C224.075 53.1223 219.909 51.6566 215.416 47.7902C214.901 47.347 214.382 46.8737 213.862 46.3728C215.604 44.4678 217.345 42.2531 219.044 39.7936C222.032 39.5284 224.855 39.0948 227.416 38.503C227.542 39.0116 227.654 39.5105 227.75 39.9983ZM202.075 51.7998C200.172 52.472 198.656 52.4913 197.739 51.9629C195.789 50.8382 194.979 46.497 196.084 40.6735C196.211 40.0066 196.362 39.3215 196.536 38.6212C199.068 39.1812 201.871 39.5842 204.866 39.827C206.577 42.2338 208.368 44.446 210.173 46.3831C209.778 46.7638 209.386 47.1262 208.995 47.4678C206.597 49.5643 204.193 51.0517 202.075 51.7998ZM193.158 34.9527C190.144 33.9225 187.654 32.5834 185.948 31.1223C184.415 29.8093 183.641 28.5057 183.641 27.4479C183.641 25.197 186.997 22.3258 192.594 20.3744C193.273 20.1376 193.984 19.9144 194.722 19.7048C195.495 22.2211 196.51 24.8519 197.734 27.5122C196.494 30.212 195.465 32.8847 194.684 35.4305C194.158 35.2793 193.648 35.1202 193.158 34.9527ZM196.147 14.6063C194.985 8.66904 195.757 4.1902 197.698 3.06631C199.766 1.86903 204.34 3.5761 209.16 7.85588C209.468 8.12943 209.777 8.41574 210.087 8.71195C208.291 10.6405 206.516 12.8361 204.821 15.2287C201.914 15.4982 199.131 15.9311 196.572 16.5107C196.411 15.8636 196.269 15.2278 196.147 14.6063ZM222.812 21.1906C222.201 20.1341 221.573 19.1025 220.932 18.0991C222.905 18.3484 224.795 18.6794 226.569 19.0844C226.036 20.792 225.372 22.5773 224.591 24.4075C224.03 23.3429 223.437 22.2695 222.812 21.1906ZM211.938 10.5993C213.156 11.9189 214.376 13.3923 215.576 14.9908C214.367 14.9337 213.143 14.904 211.909 14.904C210.686 14.904 209.471 14.9331 208.27 14.9892C209.471 13.4055 210.701 11.9341 211.938 10.5993ZM200.995 21.2089C200.384 22.2684 199.801 23.3359 199.25 24.4055C198.48 22.5817 197.823 20.7882 197.285 19.0565C199.049 18.6618 200.93 18.3391 202.89 18.0945C202.24 19.1071 201.607 20.1463 200.995 21.2087V21.2089ZM202.946 36.9898C200.921 36.7639 199.012 36.4578 197.249 36.074C197.795 34.3113 198.467 32.4796 199.252 30.6165C199.806 31.6852 200.39 32.7532 201.005 33.8151H201.005C201.631 34.8968 202.28 35.9564 202.946 36.9898ZM212.011 44.4828C210.76 43.1323 209.511 41.6385 208.292 40.0317C209.476 40.0781 210.682 40.1019 211.909 40.1019C213.169 40.1019 214.414 40.0735 215.64 40.0189C214.437 41.6547 213.221 43.1508 212.011 44.4828ZM224.616 30.5215C225.442 32.4048 226.139 34.2269 226.692 35.9595C224.899 36.3684 222.964 36.6977 220.925 36.9425C221.567 35.9255 222.2 34.8762 222.823 33.7969C223.453 32.7049 224.05 31.6113 224.616 30.5215ZM220.535 32.4776C219.569 34.1531 218.577 35.7525 217.57 37.2623C215.735 37.3935 213.84 37.461 211.909 37.461C209.985 37.461 208.114 37.4013 206.312 37.2843C205.264 35.7547 204.25 34.1506 203.29 32.492H203.291C202.333 30.838 201.452 29.17 200.653 27.5113C201.451 25.8488 202.33 24.1789 203.282 22.5279L203.282 22.5282C204.237 20.8727 205.242 19.2763 206.28 17.7563C208.118 17.6174 210.003 17.5448 211.909 17.5448H211.909C213.823 17.5448 215.71 17.6179 217.548 17.7581C218.57 19.267 219.568 20.8582 220.527 22.5139C221.496 24.1882 222.386 25.8469 223.192 27.4738C222.389 29.1286 221.5 30.8041 220.535 32.4776ZM225.983 2.98775C228.053 4.18151 228.858 8.99595 227.557 15.3092C227.475 15.712 227.381 16.1223 227.28 16.5381C224.715 15.9464 221.93 15.506 219.014 15.2325C217.316 12.8136 215.555 10.6146 213.789 8.71074C214.264 8.25377 214.738 7.81803 215.21 7.40683C219.774 3.43514 224.04 1.86705 225.983 2.98775ZM211.909 21.9278C214.957 21.9278 217.429 24.3992 217.429 27.4479C217.429 30.4965 214.957 32.968 211.909 32.968C208.86 32.968 206.389 30.4965 206.389 27.4479C206.389 24.3992 208.86 21.9278 211.909 21.9278Z" fill="#00D8FF"/>
</a>
<a href="https://elm-lang.org/" target="_blank">
<path d="M113.5 29.0086L87.5088 55H139.491L113.5 29.0086Z" fill="#5FB4CB"/>
<path d="M129.47 41.9614L141 53.4917V30.4312L129.47 41.9614Z" fill="#EEA400"/>
<path d="M111.991 27.5L86 1.50864V53.4917L111.991 27.5Z" fill="#596277"/>
<path d="M141 24.4506V0H116.549L141 24.4506Z" fill="#5FB4CB"/>
<path d="M128.02 14.4878L140.973 27.4405L127.961 40.4522L115.008 27.4996L128.02 14.4878Z" fill="#8CD636"/>
<path d="M87.5085 0L99.4806 11.9723H125.504L113.532 0H87.5085Z" fill="#8CD636"/>
<path d="M113.5 25.9915L125.386 14.1058H101.614L113.5 25.9915Z" fill="#EEA400"/>
</a>
</svg>
