<svg width="267" height="293" viewBox="0 0 267 293" fill="none"
    xmlns="http://www.w3.org/2000/svg"
    xmlns:xlink="http://www.w3.org/1999/xlink">
    <a href="https://www.javascript.com/" target="_blank">
        <g clip-path="url(#clip2_112_4)">
            <path d="M160.828 16.6896H220V75.862H160.828V16.6896Z" fill="#F7DF1E"/>
            <path d="M176.386 66.1384L180.914 63.398C181.788 64.9469 182.583 66.2574 184.489 66.2574C186.316 66.2574 187.468 65.5427 187.468 62.7625V43.8555H193.029V62.8411C193.029 68.6006 189.653 71.2221 184.727 71.2221C180.279 71.2221 177.697 68.9182 176.386 66.138" fill="black"/>
            <path d="M196.049 65.5426L200.577 62.921C201.769 64.8675 203.318 66.2973 206.059 66.2973C208.363 66.2973 209.832 65.1454 209.832 63.5565C209.832 61.65 208.323 60.9746 205.78 59.8629L204.391 59.2666C200.379 57.559 197.717 55.4141 197.717 50.8859C197.717 46.7153 200.895 43.5376 205.86 43.5376C209.395 43.5376 211.937 44.769 213.764 47.9864L209.435 50.7667C208.481 49.0588 207.449 48.3837 205.86 48.3837C204.232 48.3837 203.199 49.4164 203.199 50.7667C203.199 52.4349 204.232 53.1103 206.615 54.1431L208.005 54.7389C212.731 56.7648 215.393 58.83 215.393 63.4771C215.393 68.4821 211.46 71.2226 206.178 71.2226C201.014 71.2226 197.678 68.76 196.049 65.5426" fill="black"/>
        </g>
    </a>
    <a href="https://www.typescriptlang.org/" target="_blank">
        <g clip-path="url(#clip1_112_4)">
            <path d="M217 67.5V53H246V82H217" fill="#007ACC"/>
            <path d="M223.358 67.5508V68.7325H227.128V79.4625H229.803V68.7325H233.573V67.5725C233.573 66.92 233.573 66.3908 233.544 66.3763C233.544 66.3545 231.246 66.3473 228.455 66.3473L223.38 66.369V67.558L223.358 67.5508ZM240.301 66.34C241.041 66.514 241.606 66.8475 242.114 67.3768C242.382 67.6668 242.781 68.1743 242.81 68.3048C242.81 68.3483 241.556 69.1965 240.794 69.6678C240.765 69.6895 240.649 69.5663 240.533 69.3778C240.156 68.8413 239.772 68.6093 239.17 68.5658C238.3 68.5078 237.72 68.9645 237.72 69.7258C237.72 69.9578 237.764 70.0883 237.851 70.2768C238.047 70.6755 238.409 70.9148 239.533 71.4078C241.606 72.2995 242.505 72.8868 243.049 73.7278C243.665 74.6703 243.803 76.1493 243.39 77.2585C242.926 78.4693 241.795 79.2885 240.178 79.5568C239.671 79.6438 238.511 79.6293 237.967 79.535C236.807 79.3175 235.698 78.7375 235.016 77.9908C234.748 77.7008 234.233 76.925 234.262 76.8743L234.538 76.7003L235.625 76.0695L236.444 75.591L236.633 75.8448C236.872 76.2218 237.409 76.7293 237.72 76.9033C238.663 77.389 239.924 77.3238 240.548 76.7583C240.816 76.5118 240.932 76.2508 240.932 75.8883C240.932 75.5548 240.881 75.4025 240.715 75.1488C240.483 74.8298 240.019 74.5688 238.714 73.9888C237.213 73.3508 236.575 72.9448 235.98 72.3213C235.64 71.9443 235.328 71.357 235.183 70.8713C235.074 70.4508 235.038 69.4213 235.139 69.008C235.451 67.558 236.546 66.543 238.112 66.253C238.619 66.1515 239.816 66.195 240.316 66.3255L240.301 66.34Z" fill="white"/>
        </g>
    </a>
    <a href="https://developer.mozilla.org/en-US/docs/Web/HTML" target="_blank">
        <g clip-path="url(#clip3_112_4)">
            <path d="M60.5841 16.6555L55.0744 77.9342L30.3078 84.7509L5.60946 77.9438L0.105537 16.6555H60.5841Z" fill="#E44D26"/>
            <path d="M30.3448 79.5405L50.3574 74.0322L55.0658 21.6667H30.3448V79.5405Z" fill="#F16529"/>
            <path d="M19.6341 36.7004H30.3448V29.1836H11.3596L11.5409 31.2002L13.4017 51.9144H30.3448V44.3977H20.326L19.6341 36.7004Z" fill="#EBEBEB"/>
            <path d="M21.3404 55.6729H13.74L14.8008 67.4752L30.31 71.7497L30.3448 71.7401V63.9195L30.3116 63.9283L21.8795 61.6678L21.3404 55.6729Z" fill="#EBEBEB"/>
            <path d="M5.7325 0H9.58012V3.77406H13.0998V0H16.9476V11.4288H13.1V7.60175H9.58029V11.4288H5.73266V0H5.7325Z" fill="black"/>
            <path d="M22.0073 3.78995H18.6201V0H29.2441V3.78995H25.8553V11.4288H22.0075V3.78995H22.0073Z" fill="black"/>
            <path d="M30.9302 0H34.9422L37.4102 4.01573L39.8756 0H43.8891V11.4288H40.0573V5.76405L37.4102 9.82762H37.344L34.695 5.76405V11.4288H30.9302V0Z" fill="black"/>
            <path d="M45.804 0H49.6528V7.65108H55.0637V11.4288H45.804V0Z" fill="black"/>
            <path d="M30.3186 51.9144H39.6418L38.763 61.663L30.3186 63.9258V71.7461L45.8402 67.4753L45.9541 66.2053L47.7333 46.4162L47.918 44.3977H30.3186V51.9144Z" fill="white"/>
            <path d="M30.3186 36.6821V36.7004H48.6069L48.7588 35.0109L49.1038 31.2002L49.2848 29.1836H30.3186V36.6821Z" fill="white"/>
        </g>
    </a>
    <a href="https://developer.mozilla.org/en-US/docs/Web/CSS" target="_blank">
        <path d="M106.928 84.9655L82.1438 78.1412L76.6207 16.6977H137.31L131.781 78.1316L106.928 84.9655Z" fill="#264DE4"/>
        <path d="M127.048 74.2197L131.773 21.7216H106.966V79.7419L127.048 74.2197Z" fill="#2965F1"/>
        <path d="M89.2823 44.5102L89.9633 52.0459H106.966V44.5102H89.2823Z" fill="#EBEBEB"/>
        <path d="M87.9141 29.2575L88.6047 36.7934H106.966V29.2575H87.9141Z" fill="#EBEBEB"/>
        <path d="M106.966 64.0814L106.932 64.0902L98.4706 61.824L97.9297 55.8139H90.3028L91.3672 67.6462L106.931 71.9314L106.966 71.9218V64.0814Z" fill="#EBEBEB"/>
        <path d="M90.9036 0H100.106V3.81681H94.7517V7.63362H100.106V11.4504H90.9036V0Z" fill="black"/>
        <path d="M101.946 0H111.148V3.31897H105.794V3.98276H111.148V11.6164H101.946V8.13146H107.3V7.46767H101.946V0Z" fill="black"/>
        <path d="M112.989 0H122.191V3.31897H116.837V3.98276H122.191V11.6164H112.989V8.13146H118.343V7.46767H112.989V0Z" fill="black"/>
        <path d="M124.6 44.5102L125.972 29.2575H106.939V36.7934H117.645L116.954 44.5102H106.939V52.0459H116.295L115.413 61.8192L106.939 64.0878V71.9278L122.515 67.6462L122.629 66.373L124.415 46.5337L124.6 44.5102Z" fill="white"/>
    </a>
    <a href="https://www.cplusplus.com/" target="_blank">
        <g clip-path="url(#clip4_112_4)">
            <path d="M101.549 124.685C101.549 123.502 101.295 122.456 100.781 121.559C100.276 120.677 99.5202 119.937 98.5064 119.352C90.1376 114.546 81.7608 109.755 73.3947 104.944C71.1393 103.647 68.9525 103.694 66.7137 105.01C63.3827 106.966 46.7055 116.483 41.7359 119.35C39.6892 120.53 38.6933 122.336 38.6928 124.683C38.6897 134.348 38.6928 144.013 38.6897 153.679C38.6901 154.836 38.9334 155.861 39.4246 156.745C39.9295 157.654 40.6959 158.414 41.7331 159.012C46.703 161.879 63.3825 171.395 66.7128 173.352C68.9525 174.668 71.1393 174.715 73.3955 173.418C81.7618 168.606 90.1391 163.815 98.5091 159.009C99.5463 158.411 100.313 157.651 100.818 156.743C101.308 155.859 101.552 154.834 101.552 153.676C101.552 153.676 101.552 134.351 101.549 124.685Z" fill="#5C8DBC"/>
            <path d="M70.2172 139.087L39.4246 156.745C39.9295 157.654 40.6959 158.414 41.7331 159.012C46.703 161.879 63.3825 171.395 66.7127 173.352C68.9525 174.668 71.1393 174.715 73.3955 173.418C81.7618 168.606 90.1391 163.815 98.5091 159.009C99.5463 158.411 100.313 157.651 100.818 156.743L70.2172 139.087Z" fill="#1A4674"/>
            <path d="M61.0968 144.317C62.8886 147.433 66.257 149.534 70.121 149.534C74.0089 149.534 77.3965 147.406 79.1792 144.257L70.2172 139.087L61.0968 144.317Z" fill="#1A4674"/>
            <path d="M101.549 124.685C101.549 123.502 101.295 122.456 100.781 121.559L70.2172 139.087L100.818 156.743C101.308 155.859 101.552 154.834 101.552 153.676C101.552 153.676 101.552 134.351 101.549 124.685Z" fill="#1B598E"/>
            <path d="M99.8665 140.349H97.4753V142.731H95.0836V140.349H92.6927V137.967H95.0836V135.586H97.4753V137.967H99.8665V140.349Z" fill="white"/>
            <path d="M91.1412 140.349H88.7502V142.731H86.359V140.349H83.9678V137.967H86.359V135.586H88.7502V137.967H91.1412V140.349Z" fill="white"/>
            <path d="M79.1792 144.257C77.3965 147.406 74.0089 149.534 70.121 149.534C66.257 149.534 62.8886 147.433 61.0968 144.317C60.2263 142.803 59.7258 141.051 59.7258 139.181C59.7258 133.463 64.3801 128.827 70.121 128.827C73.9602 128.827 77.3109 130.903 79.1115 133.986L88.1975 128.775C84.5861 122.566 77.8436 118.389 70.121 118.389C58.5914 118.389 49.2452 127.698 49.2452 139.181C49.2452 142.948 50.2514 146.481 52.0101 149.528C55.6124 155.77 62.374 159.973 70.121 159.973C77.8822 159.973 84.6545 155.753 88.2516 149.493L79.1792 144.257Z" fill="white"/>
        </g>
    </a>
    <a href="https://www.python.org/" target="_blank">
        <g clip-path="url(#clip5_112_4)">
            <path d="M156.363 105.468C138.88 105.468 139.972 113.079 139.972 113.079L139.991 120.965H156.675V123.332H133.364C133.364 123.332 122.177 122.059 122.177 139.768C122.177 157.478 131.942 156.85 131.942 156.85H137.769V148.632C137.769 148.632 137.455 138.829 147.378 138.829H163.925C163.925 138.829 173.222 138.98 173.222 129.809V114.645C173.222 114.645 174.633 105.468 156.363 105.468ZM147.163 110.77C148.823 110.77 150.165 112.117 150.165 113.784C150.165 115.45 148.823 116.797 147.163 116.797C145.504 116.797 144.162 115.45 144.162 113.784C144.162 112.117 145.504 110.77 147.163 110.77Z" fill="url(#paint0_linear_112_4)"/>
            <path d="M156.859 174.246C174.342 174.246 173.251 166.635 173.251 166.635L173.231 158.749H156.547V156.382H179.858C179.858 156.382 191.045 157.656 191.045 139.946C191.045 122.236 181.281 122.864 181.281 122.864H175.453V131.082C175.453 131.082 175.767 140.885 165.844 140.885H149.297C149.297 140.885 140 140.734 140 149.905V165.069C140 165.069 138.589 174.246 156.859 174.246ZM166.059 168.944C164.399 168.944 163.057 167.597 163.057 165.93C163.057 164.264 164.399 162.917 166.059 162.917C167.719 162.917 169.06 164.264 169.06 165.93C169.06 167.597 167.719 168.944 166.059 168.944Z" fill="url(#paint1_linear_112_4)"/>
        </g>
        <defs>
            <linearGradient id="paint0_linear_112_4" x1="128.795" y1="111.654" x2="163.056" y2="145.441" gradientUnits="userSpaceOnUse">
                <stop stop-color="#387EB8"/>
                <stop offset="1" stop-color="#366994"/>
            </linearGradient>
            <linearGradient id="paint1_linear_112_4" x1="149.743" y1="133.436" x2="186.529" y2="168.075" gradientUnits="userSpaceOnUse">
                <stop stop-color="#FFE052"/>
                <stop offset="1" stop-color="#FFC331"/>
            </linearGradient>
            <linearGradient id="paint2_linear_112_4" x1="118.888" y1="268.443" x2="113.625" y2="209.236" gradientUnits="userSpaceOnUse">
                <stop stop-color="white" stop-opacity="0"/>
                <stop offset="0.01" stop-color="#F7F6F8" stop-opacity="0.04"/>
                <stop offset="0.09" stop-color="#AA9CB3" stop-opacity="0.39"/>
                <stop offset="0.2" stop-color="#6F567E" stop-opacity="0.66"/>
                <stop offset="0.32" stop-color="#452459" stop-opacity="0.86"/>
                <stop offset="0.5" stop-color="#2D0843" stop-opacity="0.97"/>
                <stop offset="1" stop-color="#26003D"/>
            </linearGradient>
            <clipPath id="clip0_112_4">
                <rect width="56" height="67" fill="white" transform="translate(2 204)"/>
            </clipPath>
            <clipPath id="clip1_112_4">
                <rect width="29" height="29" fill="white" transform="translate(217 53)"/>
            </clipPath>
            <clipPath id="clip2_112_4">
                <rect width="59.1724" height="59.1724" fill="white" transform="translate(160.828 16.6896)"/>
            </clipPath>
            <clipPath id="clip3_112_4">
                <rect width="60.6897" height="84.9655" fill="white"/>
            </clipPath>
            <clipPath id="clip4_112_4">
                <rect width="62.9655" height="70.5517" fill="white" transform="translate(38.6897 103.931)"/>
            </clipPath>
            <clipPath id="clip5_112_4">
                <rect width="69.0345" height="69.0345" fill="white" transform="translate(122.138 105.448)"/>
            </clipPath>
        </defs>
    </a>
    <a href="https://svelte.dev/" target="_blank">
        <g clip-path="url(#clip0_112_4)">
            <path d="M54.4303 212.855C48.181 203.96 35.8386 201.324 26.9145 206.978L11.2415 216.912C6.96038 219.59 4.01158 223.938 3.11824 228.888C2.37061 233.013 3.02774 237.267 4.98559 240.978C3.64402 243.002 2.729 245.275 2.29586 247.66C1.39388 252.706 2.57375 257.9 5.56912 262.071C11.8198 270.966 24.1622 273.601 33.085 267.947L48.7579 258.014C53.0394 255.336 55.9883 250.988 56.8812 246.037C57.6288 241.913 56.9721 237.659 55.0153 233.947C56.3565 231.924 57.2711 229.651 57.7038 227.265C58.6064 222.22 57.4265 217.025 54.4306 212.855" fill="#FF3E00"/>
            <path d="M25.3819 262.917C20.3285 264.223 14.9919 262.256 12.0158 257.99C10.2136 255.481 9.50366 252.357 10.0463 249.321C10.1373 248.828 10.2625 248.342 10.421 247.866L10.7162 246.97L11.5194 247.557C13.3744 248.912 15.4484 249.943 17.6522 250.604L18.2349 250.78L18.1812 251.358C18.11 252.181 18.334 253.002 18.8135 253.676C19.7091 254.961 21.3159 255.554 22.8378 255.161C23.1785 255.071 23.5033 254.929 23.8008 254.741L39.4788 244.805C40.2545 244.32 40.789 243.532 40.9518 242.635C41.1143 241.72 40.9004 240.779 40.3582 240.022C39.4621 238.737 37.8549 238.143 36.3324 238.536C35.9921 238.627 35.6678 238.768 35.3707 238.957L29.3881 242.749C28.4043 243.371 27.3307 243.84 26.2045 244.139C21.1511 245.446 15.8146 243.479 12.8385 239.212C11.0363 236.704 10.3263 233.579 10.8691 230.544C11.4063 227.566 13.1803 224.951 15.7558 223.341L31.4324 213.404C32.4166 212.781 33.491 212.312 34.6181 212.012C39.6715 210.706 45.0079 212.673 47.984 216.939C49.7862 219.448 50.4961 222.573 49.9535 225.608C49.8621 226.101 49.7369 226.588 49.5788 227.064L49.2836 227.959L48.4808 227.373C46.6259 226.017 44.5517 224.986 42.3476 224.325L41.7649 224.149L41.8186 223.571C41.8892 222.748 41.6652 221.927 41.1863 221.253C40.2906 219.968 38.6839 219.375 37.162 219.767C36.8213 219.858 36.4965 220 36.199 220.188L20.521 230.124C19.7454 230.609 19.2112 231.397 19.0491 232.294C18.8856 233.208 19.0991 234.15 19.6415 234.907C20.5377 236.192 22.1449 236.785 23.6674 236.393C24.008 236.302 24.3328 236.16 24.6303 235.972L30.6121 232.181C31.5955 231.558 32.669 231.089 33.7954 230.79C38.8488 229.483 44.1852 231.45 47.1613 235.717C48.9636 238.225 49.6735 241.35 49.1308 244.385C48.5932 247.363 46.8193 249.978 44.2441 251.59L28.5674 261.525C27.5832 262.148 26.5088 262.617 25.3817 262.917" fill="white"/>
        </g>
    </a>
    <a href="https://elixir-lang.org/" target="_blank">
        <path d="M120.162 219.867C124.97 230.467 137.83 234.898 136.676 248.713C135.33 264.94 123.839 269.026 117.445 269.315C112.305 269.714 107.204 268.15 103.17 264.938C99.1369 261.726 96.4703 257.105 95.7078 252.006C91.9916 234.794 108.265 208.399 117.64 204.625C117.331 209.83 118.193 215.039 120.162 219.867ZM119.779 263.473C119.809 263.345 119.813 263.212 119.79 263.082C119.767 262.952 119.719 262.828 119.647 262.717C118.276 260.174 106.211 258.913 103.674 258.666C104.803 259.824 106.073 260.834 107.455 261.672C109.447 262.89 111.658 263.708 113.963 264.079C115.82 264.359 119.392 264.595 119.781 263.471L119.779 263.473Z" fill="#7C648F"/>
        <g opacity="0.25">
            <path d="M121.199 224.554C131.535 235.707 136.103 236.068 135.622 248.785C135.046 263.76 125.116 267.726 119.3 268.256C109.587 269.53 101.968 264.722 99.9721 255.107C95.909 239.458 109.012 213.928 117.473 210.083C117.685 215.104 118.963 220.023 121.222 224.513L121.199 224.554Z" fill="#26003D"/>
        </g>
        <g opacity="0.75">
            <path d="M119.203 222.942C126.103 232.375 135.238 231.681 136.813 245.42C137.03 261.429 128.488 266.887 122.389 268.425C111.983 271.382 102.701 266.933 99.0471 256.862C92.0286 240.675 105.178 214.048 113.639 208.496C114.366 213.653 116.239 218.581 119.12 222.919L119.203 222.942Z" fill="url(#paint2_linear_112_4)"/>
        </g>
    </a>
    <a href="https://go.dev/" target="_blank">
        <path d="M164.271 234.079C164.079 234.079 164.031 233.984 164.127 233.841L165.134 232.557C165.229 232.414 165.469 232.319 165.661 232.319H182.774C182.966 232.319 183.014 232.462 182.918 232.604L182.103 233.841C182.007 233.984 181.768 234.126 181.624 234.126L164.271 234.079Z" fill="#00ACD7"/>
        <path d="M157.032 238.454C156.84 238.454 156.793 238.359 156.888 238.216L157.895 236.932C157.991 236.789 158.231 236.694 158.422 236.694H180.282C180.473 236.694 180.569 236.837 180.521 236.98L180.138 238.121C180.09 238.311 179.898 238.406 179.706 238.406L157.032 238.454Z" fill="#00ACD7"/>
        <path d="M168.633 242.829C168.441 242.829 168.393 242.686 168.489 242.544L169.16 241.355C169.256 241.212 169.448 241.069 169.64 241.069H179.227C179.419 241.069 179.515 241.212 179.515 241.402L179.419 242.544C179.419 242.734 179.227 242.876 179.083 242.876L168.633 242.829Z" fill="#00ACD7"/>
        <path d="M218.392 233.223C215.372 233.984 213.31 234.554 210.338 235.315C209.619 235.505 209.571 235.553 208.948 234.84C208.229 234.031 207.702 233.508 206.695 233.032C203.675 231.558 200.751 231.986 198.018 233.746C194.759 235.838 193.081 238.929 193.129 242.781C193.177 246.586 195.813 249.724 199.6 250.248C202.86 250.676 205.593 249.534 207.75 247.109C208.181 246.586 208.565 246.015 209.044 245.349C207.318 245.349 205.161 245.349 199.792 245.349C198.785 245.349 198.546 244.731 198.881 243.923C199.505 242.448 200.655 239.976 201.326 238.739C201.47 238.454 201.806 237.978 202.525 237.978C204.969 237.978 213.982 237.978 219.974 237.978C219.878 239.262 219.878 240.546 219.686 241.83C219.159 245.254 217.864 248.393 215.755 251.151C212.304 255.669 207.798 258.475 202.093 259.236C197.395 259.854 193.033 258.95 189.198 256.097C185.651 253.434 183.637 249.915 183.11 245.54C182.487 240.356 184.021 235.696 187.185 231.606C190.588 227.183 195.094 224.377 200.607 223.379C205.113 222.57 209.428 223.093 213.31 225.709C215.851 227.373 217.673 229.656 218.871 232.414C219.159 232.842 218.967 233.08 218.392 233.223Z" fill="#00ACD7"/>
        <path d="M234.259 259.521C229.897 259.426 225.918 258.189 222.562 255.336C219.734 252.911 217.96 249.82 217.385 246.158C216.522 240.784 218.008 236.028 221.268 231.796C224.767 227.231 228.986 224.853 234.69 223.854C239.58 222.998 244.182 223.474 248.352 226.28C252.14 228.848 254.488 232.319 255.112 236.884C255.927 243.304 254.057 248.536 249.599 253.006C246.435 256.192 242.552 258.189 238.094 259.093C236.8 259.331 235.505 259.378 234.259 259.521ZM245.668 240.308C245.62 239.69 245.62 239.215 245.524 238.739C244.661 234.031 240.299 231.368 235.745 232.414C231.287 233.413 228.411 236.219 227.356 240.689C226.493 244.398 228.315 248.155 231.766 249.677C234.403 250.818 237.039 250.676 239.58 249.392C243.367 247.442 245.428 244.398 245.668 240.308Z" fill="#00ACD7"/>
    </a>
</svg>
