<svg width="290" height="230" viewBox="0 0 290 230" fill="none" xmlns="http://www.w3.org/2000/svg" xmlns:xlink="http://www.w3.org/1999/xlink">
<a href="https://www.javascript.com/" target="_blank">
<path d="M212 22H290V100H212V22Z" fill="#F7DF1E"/>
<path d="M232.509 87.1825L238.478 83.5701C239.63 85.6118 240.677 87.3394 243.19 87.3394C245.599 87.3394 247.117 86.3972 247.117 82.7324V57.8095H254.447V82.836C254.447 90.428 249.997 93.8837 243.504 93.8837C237.64 93.8837 234.237 90.8468 232.509 87.1819" fill="black"/>
<path d="M258.429 86.397L264.397 82.9414C265.968 85.5072 268.01 87.392 271.623 87.392C274.66 87.392 276.596 85.8734 276.596 83.7791C276.596 81.2659 274.607 80.3757 271.256 78.9101L269.424 78.1242C264.135 75.8732 260.627 73.0459 260.627 67.0769C260.627 61.5793 264.816 57.3904 271.361 57.3904C276.021 57.3904 279.372 59.0137 281.78 63.2548L276.073 66.9197C274.816 64.6685 273.455 63.7785 271.361 63.7785C269.214 63.7785 267.853 65.1398 267.853 66.9197C267.853 69.1188 269.214 70.0091 272.356 71.3705L274.188 72.1558C280.419 74.8263 283.927 77.5486 283.927 83.6743C283.927 90.2719 278.743 93.8843 271.78 93.8843C264.973 93.8843 260.575 90.6383 258.429 86.397" fill="black"/>
</a>
<a href="https://developer.mozilla.org/en-US/docs/Web/HTML" target="_blank">
<path d="M79.8609 21.955L72.598 102.731L39.9512 111.717L7.39429 102.744L0.139122 21.955H79.8609Z" fill="#E44D26"/>
<path d="M40 104.849L66.3802 97.5879L72.5868 28.5607H40V104.849Z" fill="#F16529"/>
<path d="M25.8813 48.3778H40V38.4693H14.9741L15.213 41.1276L17.6659 68.4326H40V58.5242H26.7934L25.8813 48.3778Z" fill="#EBEBEB"/>
<path d="M28.1306 73.387H18.1119L19.5101 88.9447L39.9541 94.5792L40 94.5665V84.2576L39.9563 84.2691L28.8411 81.2894L28.1306 73.387Z" fill="#EBEBEB"/>
<path d="M7.55649 0H12.6284V4.9749H17.2679V0H22.34V15.0652H17.2681V10.0205H12.6286V15.0652H7.55671V0H7.55649Z" fill="black"/>
<path d="M29.0097 4.99585H24.5446V0H38.549V4.99585H34.082V15.0652H29.0099V4.99585H29.0097Z" fill="black"/>
<path d="M40.7717 0H46.0602L49.3134 5.29347L52.5633 0H57.8538V15.0652H52.8029V7.59807L49.3134 12.9546H49.2262L45.7343 7.59807V15.0652H40.7717V0Z" fill="black"/>
<path d="M60.378 0H65.4514V10.0855H72.584V15.0652H60.378V0Z" fill="black"/>
<path d="M39.9655 68.4326H52.2552L51.0967 81.2831L39.9655 84.2659V94.5744L60.4257 88.9447L60.5758 87.2707L62.9211 61.185L63.1646 58.5243H39.9655V68.4326Z" fill="white"/>
<path d="M39.9655 48.3536V48.3778H64.0727L64.273 46.1507L64.7277 41.1276L64.9664 38.4693H39.9655V48.3536Z" fill="white"/>
</a>
<a href="https://developer.mozilla.org/en-US/docs/Web/CSS" target="_blank">
<path d="M140.951 112L108.28 103.004L101 22.0106H181L173.712 102.992L140.951 112Z" fill="#264DE4"/>
<path d="M167.472 97.835L173.701 28.6331H141V105.114L167.472 97.835Z" fill="#2965F1"/>
<path d="M117.69 58.6725L118.588 68.6059H141V58.6725H117.69Z" fill="#EBEBEB"/>
<path d="M115.887 38.5667L116.797 48.5004H141V38.5667H115.887Z" fill="#EBEBEB"/>
<path d="M141 84.471L140.956 84.4826L129.802 81.4953L129.089 73.5728H119.035L120.439 89.1699L140.954 94.8187L141 94.806V84.471Z" fill="#EBEBEB"/>
<path d="M119.827 0H131.958V5.03125H124.9V10.0625H131.958V15.0937H119.827V0Z" fill="black"/>
<path d="M134.384 0H146.514V4.375H139.456V5.25H146.514V15.3125H134.384V10.7187H141.441V9.84375H134.384V0Z" fill="black"/>
<path d="M148.94 0H161.07V4.375H154.012V5.25H161.07V15.3125H148.94V10.7187H155.997V9.84375H148.94V0Z" fill="black"/>
<path d="M164.245 58.6725L166.054 38.5667H140.965V48.5004H155.078L154.166 58.6725H140.965V68.6059H153.298L152.135 81.489L140.965 84.4793V94.8139L161.497 89.17L161.648 87.4917L164.001 61.3399L164.245 58.6725Z" fill="white"/>
</a>
<a href="https://www.cplusplus.com/" target="_blank">
<path d="M133.86 164.358C133.86 162.798 133.525 161.42 132.847 160.237C132.182 159.074 131.186 158.099 129.849 157.328C118.818 150.993 107.776 144.677 96.7476 138.335C93.7745 136.625 90.8919 136.688 87.9408 138.422C83.5499 141.001 61.5663 153.545 55.0154 157.324C52.3176 158.88 51.0049 161.26 51.0042 164.355C51 177.095 51.0042 189.836 51 202.577C51.0006 204.102 51.3213 205.453 51.9688 206.619C52.6344 207.817 53.6447 208.819 55.0119 209.607C61.563 213.386 83.5496 225.929 87.9395 228.509C90.8919 230.244 93.7745 230.306 96.7486 228.596C107.777 222.254 118.82 215.938 129.853 209.603C131.22 208.815 132.23 207.813 132.896 206.615C133.543 205.45 133.864 204.099 133.864 202.573C133.864 202.573 133.864 177.099 133.86 164.358Z" fill="#5C8DBC"/>
<path d="M92.559 183.341L51.9688 206.619C52.6344 207.817 53.6447 208.819 55.0119 209.607C61.563 213.386 83.5496 225.929 87.9395 228.509C90.8919 230.244 93.7745 230.306 96.7486 228.596C107.777 222.254 118.82 215.938 129.853 209.603C131.22 208.815 132.23 207.813 132.896 206.615L92.559 183.341Z" fill="#1A4674"/>
<path d="M80.5367 190.236C82.8986 194.343 87.3388 197.113 92.4322 197.113C97.5572 197.113 102.023 194.308 104.373 190.157L92.559 183.341L80.5367 190.236Z" fill="#1A4674"/>
<path d="M133.86 164.357C133.86 162.798 133.525 161.42 132.847 160.237L92.559 183.341L132.896 206.615C133.543 205.45 133.864 204.099 133.864 202.573C133.864 202.573 133.864 177.098 133.86 164.357Z" fill="#1B598E"/>
<path d="M131.642 185.005H128.49V188.145H125.338V185.005H122.186V181.866H125.338V178.727H128.49V181.866H131.642V185.005Z" fill="white"/>
<path d="M120.141 185.005H116.989V188.145H113.837V185.005H110.685V181.866H113.837V178.727H116.989V181.866H120.141V185.005Z" fill="white"/>
<path d="M104.373 190.157C102.023 194.308 97.5572 197.113 92.4322 197.113C87.3388 197.113 82.8986 194.343 80.5366 190.236C79.3892 188.241 78.7295 185.93 78.7295 183.465C78.7295 175.928 84.8646 169.818 92.4322 169.818C97.493 169.818 101.91 172.553 104.283 176.618L116.26 169.749C111.5 161.565 102.612 156.058 92.4322 156.058C77.2342 156.058 64.9142 168.329 64.9142 183.465C64.9142 188.431 66.2405 193.088 68.5587 197.105C73.3072 205.333 82.2203 210.873 92.4322 210.873C102.663 210.873 111.59 205.31 116.332 197.058L104.373 190.157Z" fill="white"/>
</a>
<a href="https://www.python.org/" target="_blank">
<path d="M206.115 139.026C183.069 139.026 184.508 149.059 184.508 149.059L184.534 159.453H206.526V162.574H175.798C175.798 162.574 161.051 160.895 161.051 184.24C161.051 207.585 173.923 206.757 173.923 206.757H181.605V195.924C181.605 195.924 181.191 183.002 194.271 183.002H216.083C216.083 183.002 228.338 183.201 228.338 171.112V151.122C228.338 151.122 230.199 139.026 206.115 139.026ZM193.988 146.016C196.176 146.016 197.945 147.791 197.945 149.988C197.945 152.184 196.176 153.96 193.988 153.96C191.8 153.96 190.032 152.184 190.032 149.988C190.032 147.791 191.8 146.016 193.988 146.016Z" fill="url(#paint0_linear)"/>
<path d="M206.769 229.688C229.815 229.688 228.376 219.655 228.376 219.655L228.35 209.261H206.358V206.14H237.085C237.085 206.14 251.832 207.819 251.832 184.474C251.832 161.129 238.961 161.957 238.961 161.957H231.279V172.79C231.279 172.79 231.693 185.712 218.613 185.712H196.801C196.801 185.712 184.546 185.513 184.546 197.602V217.592C184.546 217.592 182.685 229.688 206.769 229.688ZM218.896 222.698C216.708 222.698 214.939 220.923 214.939 218.726C214.939 216.53 216.708 214.754 218.896 214.754C221.084 214.754 222.852 216.53 222.852 218.726C222.852 220.923 221.084 222.698 218.896 222.698Z" fill="url(#paint1_linear)"/>
</a><defs>
<linearGradient id="paint0_linear" x1="169.776" y1="147.181" x2="214.938" y2="191.718" gradientUnits="userSpaceOnUse">
<stop stop-color="#387EB8"/>
<stop offset="1" stop-color="#366994"/>
</linearGradient>
<linearGradient id="paint1_linear" x1="197.389" y1="175.893" x2="245.88" y2="221.553" gradientUnits="userSpaceOnUse">
<stop stop-color="#FFE052"/>
<stop offset="1" stop-color="#FFC331"/>
</linearGradient>
</defs>
</svg>
